if (_typeface_js && _typeface_js.loadFace) _typeface_js.loadFace({"glyphs":{"0":{"ha":913,"x_min":57,"x_max":861,"o":"m 861 594 q 833 747 860 667 q 756 892 807 826 q 632 1000 706 957 q 465 1043 558 1043 q 291 1002 367 1043 q 163 897 215 961 q 84 752 111 832 q 57 594 57 672 l 57 475 q 84 318 57 401 q 163 164 111 235 q 291 47 215 93 q 465 0 367 0 q 632 47 558 0 q 757 164 706 93 q 835 318 808 235 q 861 475 861 401 l 861 594 m 217 458 l 217 611 q 238 740 217 676 q 294 852 260 803 q 372 932 329 901 q 458 961 415 963 q 545 932 501 963 q 624 851 589 901 q 680 737 658 800 q 701 611 701 674 l 701 458 q 680 330 701 397 q 624 207 658 263 q 545 116 589 151 q 458 82 501 81 q 374 114 415 81 q 301 201 333 147 q 245 323 268 256 q 217 458 222 390 z "},"1":{"ha":478,"x_min":40,"x_max":453,"o":"m 326 285 l 326 1042 l 40 1042 l 40 979 l 54 979 q 118 968 96 979 q 151 931 140 957 q 165 863 163 906 q 167 757 167 821 l 167 285 q 165 178 167 221 q 151 110 163 136 q 113 74 139 85 q 42 63 88 63 l 42 0 l 453 0 l 453 63 l 439 63 q 375 74 397 63 q 342 110 353 85 q 328 178 331 136 q 326 285 326 221 z "},"2":{"ha":765,"x_min":17,"x_max":729,"o":"m 692 254 l 622 254 l 621 157 q 589 106 617 121 q 493 88 561 90 l 225 86 l 224 225 q 260 344 226 301 q 344 411 294 386 q 447 452 393 436 q 546 493 501 468 q 591 525 560 501 q 653 583 622 549 q 706 662 683 618 q 728 754 729 706 q 703 871 725 818 q 640 961 682 924 q 535 1019 597 999 q 390 1040 474 1040 q 202 1019 294 1039 q 17 971 110 1000 q 27 911 22 944 q 37 843 32 878 q 46 775 42 808 q 53 715 50 742 l 119 715 l 118 833 q 138 890 118 868 q 194 924 158 911 q 274 944 229 938 q 369 954 319 950 q 448 944 411 954 q 512 915 485 935 q 554 862 539 894 q 568 782 569 829 q 561 737 568 763 q 540 686 554 711 q 501 640 525 661 q 439 604 476 618 l 219 525 q 153 484 183 513 q 101 419 124 456 q 67 343 79 383 q 56 265 56 303 l 56 -1 l 692 -1 l 692 254 z "},"3":{"ha":722,"x_min":33,"x_max":693,"o":"m 338 86 q 269 93 297 86 q 221 115 242 100 q 183 154 200 131 q 147 210 165 178 q 88 163 108 176 q 59 147 68 150 q 51 144 50 143 q 54 139 51 144 q 110 69 69 107 q 228 7 150 32 q 413 1 328 -17 q 560 67 497 19 q 658 189 622 115 q 693 351 693 263 q 674 453 693 407 q 622 535 656 500 q 538 589 588 569 q 425 608 488 608 l 686 883 l 686 1042 l 33 1042 l 33 821 l 96 821 q 97 878 96 854 q 105 919 97 903 q 129 942 113 935 q 179 949 146 949 l 542 949 l 257 526 q 390 516 336 526 q 476 487 443 506 q 524 442 508 468 q 544 382 540 415 q 539 250 554 304 q 494 162 524 196 q 422 110 464 128 q 338 86 381 92 z "},"4":{"ha":818,"x_min":8,"x_max":790,"o":"m 8 317 l 24 272 l 478 272 q 475 172 478 213 q 460 108 472 132 q 422 73 447 83 q 353 63 397 63 l 353 0 l 764 0 l 764 63 l 750 63 q 688 73 710 63 q 654 108 665 83 q 640 172 643 132 q 638 272 638 213 l 790 272 l 790 481 l 728 481 q 727 423 728 447 q 719 383 726 399 q 696 359 713 367 q 646 351 679 351 l 638 351 l 638 1043 l 478 1043 l 8 317 m 158 350 l 478 844 l 478 350 l 158 350 z "},"5":{"ha":696,"x_min":26,"x_max":661,"o":"m 618 786 l 618 1042 l 46 1042 l 46 483 l 214 483 q 278 592 242 558 q 365 625 314 626 q 403 613 381 626 q 449 569 426 600 q 486 489 471 538 q 501 371 501 440 l 501 322 q 483 203 501 253 q 433 123 464 154 q 360 78 401 92 q 276 65 319 64 q 178 83 222 64 q 104 139 135 103 l 26 83 q 85 32 51 51 q 155 2 119 13 q 224 -12 190 -8 q 283 -17 258 -17 q 444 10 375 -17 q 560 85 513 38 q 633 200 607 133 q 661 347 658 267 q 635 519 661 451 q 572 626 610 586 q 492 683 535 665 q 418 703 450 700 q 364 703 393 706 q 306 692 335 701 q 251 667 278 683 q 204 624 225 650 l 206 954 l 419 953 q 515 935 488 950 q 547 883 543 919 l 549 786 l 618 786 z "},"6":{"ha":801,"x_min":47,"x_max":763,"o":"m 401 0 q 565 29 497 0 q 676 106 633 58 q 740 217 719 154 q 763 347 761 279 q 739 479 760 417 q 675 590 718 542 q 565 665 632 638 q 401 693 497 693 q 306 672 353 693 q 225 636 258 651 q 258 783 233 721 q 321 889 282 844 q 414 963 360 933 q 536 1013 468 993 l 513 1042 q 351 1009 422 1042 q 227 922 281 976 q 138 796 174 867 q 81 648 101 725 q 53 493 60 571 q 54 347 47 415 q 78 217 57 279 q 140 106 99 154 q 246 29 182 58 q 401 0 310 0 m 603 371 l 603 322 q 589 206 603 253 q 549 132 575 160 q 488 92 524 104 q 408 82 451 81 q 329 92 365 81 q 267 131 293 103 q 228 206 242 158 q 214 322 214 253 l 214 371 q 228 488 214 440 q 267 563 242 535 q 329 601 293 590 q 408 611 365 613 q 488 601 451 613 q 549 561 524 589 q 589 487 575 533 q 603 371 603 440 z "},"7":{"ha":711,"x_min":33,"x_max":686,"o":"m 33 821 l 96 821 q 97 878 96 854 q 105 919 97 903 q 129 942 113 935 q 179 949 146 949 l 567 950 l 50 0 l 217 0 l 686 988 l 686 1043 l 33 1042 l 33 821 z "},"8":{"ha":801,"x_min":44,"x_max":753,"o":"m 406 1047 q 273 1027 328 1047 q 183 972 218 1007 q 132 893 149 938 q 114 800 115 849 q 146 676 117 733 q 240 586 175 618 q 153 538 189 567 q 92 472 117 508 q 57 392 68 435 q 44 306 46 350 q 68 189 47 244 q 132 92 89 133 q 242 25 175 50 q 406 0 310 0 q 562 24 497 0 q 668 90 626 49 q 730 188 710 132 q 753 306 750 243 q 738 392 750 350 q 703 472 726 435 q 646 538 681 508 q 564 585 611 567 q 655 674 626 617 q 686 800 683 731 q 667 893 683 849 q 618 972 651 938 q 532 1027 585 1007 q 406 1047 479 1047 m 204 299 l 204 306 q 218 408 204 367 q 258 474 232 450 q 319 509 283 499 q 399 518 356 519 q 478 510 442 519 q 540 475 514 500 q 579 409 565 450 q 593 306 593 368 l 593 299 q 579 196 593 238 q 540 130 565 154 q 478 95 514 106 q 399 86 442 85 q 319 95 356 85 q 258 131 283 106 q 218 197 232 156 q 204 299 204 238 m 243 782 q 286 923 243 874 q 400 969 329 972 q 464 956 435 971 q 514 919 493 942 q 546 869 535 896 q 557 817 557 842 q 519 675 557 729 q 406 613 481 621 q 285 669 325 619 q 243 782 246 719 z "},"9":{"ha":801,"x_min":51,"x_max":767,"o":"m 413 1042 q 249 1013 317 1042 q 138 935 181 983 q 74 825 94 888 q 51 694 53 763 q 75 563 54 625 q 139 452 96 500 q 249 376 182 404 q 413 349 317 349 q 508 369 461 349 q 589 406 556 390 q 556 259 581 321 q 493 153 532 197 q 400 78 454 108 q 278 29 346 49 l 301 0 q 463 33 392 0 q 587 120 533 65 q 676 246 640 175 q 733 394 713 317 q 760 549 754 471 q 760 694 767 626 q 736 825 757 763 q 674 935 715 888 q 568 1013 632 983 q 413 1042 504 1042 m 211 671 l 211 719 q 225 835 211 789 q 265 910 239 882 q 326 949 290 938 q 406 960 363 961 q 485 950 449 961 q 547 911 521 939 q 586 836 572 883 q 600 719 600 789 l 600 671 q 586 554 600 601 q 547 479 572 507 q 485 440 521 451 q 406 431 449 429 q 326 441 363 429 q 265 481 290 453 q 225 555 239 508 q 211 671 211 601 z "}," ":{"ha":486,"x_min":0,"x_max":0,"o":""},"˘":{"ha":488,"x_min":82,"x_max":408,"o":"m 242 1249 q 204 1258 218 1249 q 183 1282 190 1267 q 173 1316 176 1297 q 168 1356 169 1335 l 85 1356 q 90 1290 82 1322 q 119 1233 99 1258 q 169 1193 139 1208 q 243 1179 200 1178 q 321 1196 289 1181 q 372 1236 353 1211 q 400 1292 392 1261 q 408 1356 408 1324 l 331 1356 q 324 1317 328 1336 q 310 1283 319 1299 q 283 1258 300 1268 q 242 1249 267 1249 z "},"˙":{"ha":231,"x_min":38,"x_max":201,"o":"m 121 1321 q 58 1297 76 1321 q 38 1240 39 1272 q 58 1185 39 1208 q 121 1161 76 1161 q 181 1185 163 1161 q 201 1240 199 1208 q 181 1297 199 1272 q 121 1321 163 1321 z "},"˚":{"ha":626,"x_min":175,"x_max":450,"o":"m 450 1250 q 440 1303 450 1278 q 410 1347 429 1328 q 367 1376 392 1365 q 313 1388 342 1388 q 215 1348 254 1388 q 175 1250 175 1308 q 185 1197 175 1222 q 215 1153 196 1172 q 258 1124 233 1135 q 313 1113 283 1113 q 365 1123 340 1113 q 409 1152 390 1133 q 439 1196 428 1171 q 450 1250 450 1221 m 317 1174 q 260 1197 283 1174 q 238 1251 238 1219 q 260 1307 238 1283 q 317 1331 283 1331 q 372 1307 349 1331 q 394 1251 394 1283 q 372 1196 394 1218 q 317 1174 349 1174 z "},"˝":{"ha":697,"x_min":147,"x_max":550,"o":"m 550 1042 l 428 1042 l 318 763 l 357 763 l 550 1042 m 363 1042 l 240 1042 l 147 763 l 186 763 l 363 1042 z "},"˛":{"ha":693,"x_min":317,"x_max":693,"o":"m 618 68 l 497 68 q 459 59 488 68 q 399 27 431 50 q 344 -33 368 4 q 318 -126 319 -71 q 333 -197 317 -165 q 376 -251 349 -228 q 442 -287 404 -274 q 524 -300 479 -300 q 597 -285 565 -300 q 651 -250 629 -271 q 683 -207 672 -229 q 693 -171 693 -185 q 669 -142 693 -142 q 649 -151 658 -142 q 626 -171 640 -160 q 592 -191 613 -182 q 536 -200 571 -200 q 463 -174 488 -200 q 438 -114 438 -149 q 453 -44 438 -75 q 494 9 469 -14 q 552 47 519 32 q 618 68 585 61 z "},"ˇ":{"ha":489,"x_min":44,"x_max":449,"o":"m 449 1346 l 439 1369 l 247 1250 l 54 1367 l 44 1343 l 244 1092 l 449 1346 z "},"ı":{"ha":478,"x_min":40,"x_max":453,"o":"m 326 410 q 328 516 326 474 q 342 584 331 558 q 380 621 354 610 q 451 632 406 632 l 451 694 l 40 694 l 40 632 l 54 632 q 118 621 96 632 q 151 584 140 610 q 165 516 163 558 q 167 410 167 474 l 167 285 q 165 178 167 221 q 151 110 163 136 q 113 74 139 85 q 42 63 88 63 l 42 0 l 453 0 l 453 63 l 439 63 q 375 74 397 63 q 342 110 353 85 q 328 178 331 136 q 326 285 326 221 l 326 410 z "},"∕":{"ha":1175,"x_min":174,"x_max":868,"o":"m 747 1042 q 722 997 747 1042 q 657 879 697 953 q 565 712 617 806 q 460 521 514 618 q 354 330 406 424 q 263 163 303 236 q 198 44 222 89 q 175 0 174 0 l 246 0 q 274 44 247 0 q 345 163 301 89 q 444 330 389 236 q 558 521 500 424 q 672 712 617 618 q 772 879 728 806 q 842 997 815 953 q 868 1042 868 1042 l 747 1042 z "},"ﬁ":{"ha":983,"x_min":-64,"x_max":947,"o":"m 821 300 q 823 406 821 364 q 837 474 825 449 q 874 511 849 500 q 946 522 900 522 l 946 585 l 222 586 l 222 721 q 244 835 222 789 q 299 910 265 882 q 376 950 333 939 q 463 961 419 961 l 622 961 l 622 1042 l 463 1042 q 165 943 268 1040 q 63 678 63 846 l 63 7 q 60 -99 63 -57 q 47 -167 58 -142 q 14 -204 36 -193 q -50 -215 -8 -215 l -64 -219 l -64 -278 l 353 -278 l 353 -214 l 314 -214 q 260 -203 279 -215 q 233 -162 242 -190 q 224 -92 225 -135 q 222 7 222 -50 l 222 522 l 549 522 q 613 511 590 522 q 646 474 635 500 q 659 406 657 449 q 661 300 661 364 l 661 286 q 659 180 661 222 q 645 112 657 138 q 608 75 633 86 q 536 64 582 64 l 536 1 l 947 1 l 947 64 l 933 64 q 869 75 892 64 q 836 112 847 86 q 823 180 825 138 q 821 286 821 222 l 821 300 m 635 807 q 665 733 635 764 q 738 703 694 703 q 811 733 781 703 q 842 807 842 764 q 811 881 842 850 q 738 911 781 911 q 665 881 694 911 q 635 807 635 850 z "},"ﬂ":{"ha":914,"x_min":-69,"x_max":897,"o":"m 897 64 l 883 64 q 819 75 842 64 q 786 112 797 86 q 773 180 775 138 q 771 286 771 222 l 771 1043 l 457 1042 q 160 943 263 1040 q 57 678 57 846 l 57 6 q 55 -101 57 -58 q 42 -169 53 -143 q 8 -206 31 -194 q -56 -217 -14 -217 l -69 -221 l -69 -279 l 347 -279 l 347 -215 l 308 -215 q 255 -204 274 -217 q 228 -164 236 -192 q 218 -94 219 -136 q 217 6 217 -51 l 217 461 l 524 461 l 524 525 l 217 525 l 217 721 q 238 835 217 789 q 294 910 260 882 q 371 950 328 939 q 457 961 414 961 l 611 961 l 611 286 q 609 180 611 222 q 595 112 607 138 q 558 75 583 86 q 486 64 532 64 l 486 1 l 897 1 l 897 64 z "},"Ł":{"ha":839,"x_min":19,"x_max":839,"o":"m 68 551 l 71 458 l 146 496 l 146 361 q 249 96 146 193 q 546 -3 351 -1 l 839 -3 l 839 69 l 546 69 q 460 81 503 69 q 383 120 417 92 q 327 194 349 149 q 306 310 306 240 l 306 576 l 386 617 l 385 700 l 306 660 l 306 757 q 307 854 306 814 q 317 920 308 894 q 345 960 326 946 q 397 978 364 974 l 417 978 l 417 1042 l 19 1042 l 19 983 l 33 979 q 97 968 75 979 q 131 931 119 957 q 144 863 142 906 q 146 757 146 821 l 146 586 l 68 551 z "},"ł":{"ha":479,"x_min":39,"x_max":450,"o":"m 86 589 l 88 488 l 164 525 l 164 285 q 162 178 164 221 q 148 110 160 136 q 110 74 136 85 q 39 63 85 63 l 39 0 l 450 0 l 450 63 l 436 63 q 372 74 394 63 q 339 110 350 85 q 326 178 328 136 q 324 285 324 221 l 324 606 l 403 646 l 401 733 l 324 697 l 324 1043 l 164 1043 l 164 624 l 86 589 z "},"Ž":{"ha":1039,"x_min":38,"x_max":982,"o":"m 72 835 l 135 835 q 135 892 135 868 q 144 933 136 917 q 168 956 151 949 q 218 963 185 963 l 761 964 q 671 849 722 915 q 561 709 619 783 q 441 556 503 635 q 320 401 379 476 q 210 260 261 326 q 119 144 158 193 q 59 69 81 96 q 40 44 38 42 l 56 0 q 410 1 264 0 q 653 1 556 1 q 810 1 751 1 q 900 1 868 1 q 946 1 932 1 q 972 1 961 1 l 972 210 l 910 210 q 909 152 910 176 q 901 112 908 128 q 878 88 894 96 q 828 81 861 81 l 283 81 q 418 255 346 161 q 563 443 490 349 q 704 628 635 538 q 831 790 774 718 q 927 913 888 863 q 982 978 967 963 l 982 1042 l 72 1043 l 72 835 m 714 1357 l 704 1381 l 513 1261 l 319 1378 l 310 1354 l 510 1103 l 714 1357 z "},"ž":{"ha":760,"x_min":40,"x_max":724,"o":"m 82 486 l 144 485 q 145 542 144 518 q 153 583 146 567 q 178 606 161 599 q 228 614 194 614 l 518 615 q 413 486 468 553 q 306 356 358 419 q 205 235 253 292 q 121 135 157 178 q 63 68 85 93 q 40 43 40 43 l 56 0 l 615 0 q 661 1 635 1 q 724 1 689 1 l 724 210 l 661 210 q 660 152 661 176 q 653 112 660 128 q 629 88 646 96 q 579 81 613 81 l 264 81 q 563 453 451 322 q 718 629 674 585 l 718 693 l 82 694 l 82 486 m 589 1015 l 579 1039 l 388 919 l 194 1036 l 185 1013 l 385 761 l 589 1015 z "},"!":{"ha":242,"x_min":38,"x_max":208,"o":"m 208 1042 l 38 1042 l 85 208 l 156 208 l 208 1042 m 124 160 q 60 135 79 160 q 40 79 42 111 q 60 24 42 47 q 124 0 79 0 q 183 24 165 0 q 204 79 201 47 q 183 135 201 111 q 124 160 165 160 z "},"\"":{"ha":375,"x_min":29,"x_max":349,"o":"m 349 1042 l 224 1042 l 265 694 l 318 694 l 349 1042 m 154 1042 l 29 1042 l 72 694 l 124 694 l 154 1042 z "},"#":{"ha":763,"x_min":32,"x_max":739,"o":"m 739 771 l 739 831 l 583 831 l 619 1040 l 544 1043 l 504 831 l 317 831 l 357 1040 l 283 1043 l 239 831 l 93 831 l 93 771 l 232 771 l 197 597 l 32 597 l 32 536 l 190 536 l 157 356 l 229 357 l 264 536 l 458 536 l 429 356 l 503 357 l 536 536 l 678 536 l 678 597 l 540 597 l 571 771 l 739 771 m 497 771 l 465 597 l 275 597 l 306 771 l 497 771 z "},"$":{"ha":642,"x_min":29,"x_max":608,"o":"m 367 -4 l 367 104 q 460 123 417 107 q 535 167 503 139 q 585 233 567 194 q 607 319 604 271 q 601 380 608 349 q 576 440 593 411 q 531 495 558 469 q 463 538 503 521 l 367 576 l 367 858 q 419 847 393 854 q 465 828 444 839 q 499 801 486 817 q 511 765 511 786 l 510 672 l 563 671 q 569 718 565 692 q 576 772 572 744 q 583 826 579 800 q 592 874 588 853 q 478 909 532 897 q 367 925 425 921 l 367 1046 l 268 1046 l 268 928 q 94 869 154 917 q 32 717 35 821 q 72 599 29 654 q 203 511 115 543 l 268 488 l 268 176 q 211 186 238 181 q 165 202 185 192 q 135 228 146 213 q 124 267 124 244 l 124 361 l 71 361 q 65 314 68 340 q 59 259 63 288 q 51 204 56 231 q 43 157 47 178 q 154 126 99 139 q 268 106 210 113 l 268 -4 l 367 -4 m 378 449 q 426 419 407 438 q 458 378 446 400 q 475 334 469 356 q 481 297 481 313 q 449 208 482 235 q 367 174 415 181 l 367 453 l 378 449 m 149 742 q 181 820 146 792 q 268 860 217 849 l 268 619 q 183 676 218 644 q 149 742 149 708 z "},"%":{"ha":1192,"x_min":38,"x_max":1156,"o":"m 528 769 q 511 862 528 814 q 464 950 494 910 q 388 1016 433 990 q 286 1042 343 1042 q 180 1017 226 1042 q 102 953 133 992 q 54 865 71 914 q 38 769 38 817 l 38 700 q 54 603 38 654 q 102 510 71 553 q 180 438 133 467 q 286 410 226 410 q 388 438 343 410 q 465 510 433 467 q 512 603 496 553 q 528 700 528 654 l 528 769 m 1156 356 q 1139 448 1156 400 q 1092 536 1122 496 q 1016 602 1061 576 q 914 628 971 628 q 808 603 854 628 q 730 539 761 578 q 682 451 699 500 q 665 356 665 403 l 665 286 q 682 190 665 240 q 730 96 699 139 q 808 24 761 53 q 914 -4 854 -4 q 1016 24 971 -4 q 1092 96 1061 53 q 1140 190 1124 139 q 1156 286 1156 240 l 1156 356 m 147 688 l 147 779 q 159 853 147 817 q 190 917 171 889 q 233 962 208 944 q 283 979 258 979 q 333 961 308 979 q 376 915 357 943 q 406 851 394 886 q 418 779 418 815 l 418 688 q 406 615 418 653 q 376 547 394 578 q 332 494 357 515 q 281 474 307 474 q 233 492 256 474 q 193 542 211 511 q 163 610 175 572 q 147 688 150 649 m 775 274 l 775 365 q 787 439 775 403 q 817 503 799 475 q 861 548 836 531 q 911 565 886 565 q 960 547 936 565 q 1003 501 985 529 q 1034 437 1022 472 q 1046 365 1046 401 l 1046 274 q 1034 201 1046 239 q 1003 133 1022 164 q 960 81 985 101 q 908 60 935 60 q 861 78 883 60 q 821 128 839 97 q 790 197 803 158 q 775 274 778 235 m 815 1043 q 792 998 815 1043 q 731 880 768 953 q 644 713 693 807 q 545 522 596 619 q 446 330 494 424 q 360 163 397 236 q 299 45 322 90 q 278 0 276 0 l 349 0 q 376 45 350 0 q 442 163 401 90 q 536 330 483 236 q 644 522 589 424 q 751 713 699 619 q 845 880 804 807 q 911 998 886 953 q 936 1043 936 1043 l 815 1043 z "},"&":{"ha":875,"x_min":0,"x_max":876,"o":"m 875 -1 l 876 71 q 818 80 839 71 q 788 113 797 89 q 776 177 778 136 q 775 281 775 218 l 775 526 l 875 526 l 875 590 l 775 590 l 775 774 l 615 774 l 615 590 l 286 590 l 286 744 q 288 842 286 801 q 298 908 289 882 q 326 947 307 933 q 378 965 344 961 l 654 965 l 654 1042 l 0 1042 l 0 978 l 14 979 q 78 968 56 979 q 111 931 100 957 q 124 863 122 906 q 126 757 126 821 l 126 361 q 142 209 126 271 q 185 107 157 147 q 253 45 213 67 q 342 13 293 24 q 450 1 392 3 q 572 -1 508 -1 l 875 -1 m 286 317 l 286 526 l 615 526 l 615 282 q 613 201 615 238 q 601 138 611 164 q 573 95 592 111 q 519 76 554 79 q 422 76 467 74 q 347 101 378 79 q 299 174 315 124 q 286 317 283 224 z "},"'":{"ha":183,"x_min":29,"x_max":154,"o":"m 154 1042 l 29 1042 l 72 694 l 124 694 l 154 1042 z "},"(":{"ha":431,"x_min":44,"x_max":464,"o":"m 464 -82 q 197 513 197 135 q 464 1104 197 888 l 461 1107 q 165 881 279 1036 q 44 511 44 714 q 165 143 44 307 q 461 -85 281 -14 l 464 -82 z "},")":{"ha":415,"x_min":-51,"x_max":368,"o":"m -51 -68 l -49 -71 q 247 157 132 0 q 368 525 368 321 q 247 894 368 728 q -49 1121 133 1050 l -51 1118 q 215 526 215 901 q -51 -68 215 149 z "},"*":{"ha":538,"x_min":36,"x_max":489,"o":"m 489 856 l 319 825 l 404 978 l 274 1032 l 240 853 l 117 982 l 39 863 l 196 786 l 36 721 l 110 596 l 240 719 l 265 535 l 399 600 l 317 747 l 489 719 l 489 856 z "},"+":{"ha":685,"x_min":26,"x_max":660,"o":"m 299 528 l 26 528 l 26 438 l 299 438 l 299 167 l 388 167 l 388 438 l 660 438 l 660 528 l 388 528 l 388 799 l 299 799 l 299 528 z "},",":{"ha":250,"x_min":38,"x_max":211,"o":"m 144 3 q 137 -42 149 -18 q 108 -86 125 -65 q 73 -123 90 -107 q 51 -144 56 -139 q 46 -162 40 -154 q 51 -171 51 -171 q 133 -98 101 -131 q 181 -35 164 -65 q 205 22 199 -6 q 211 81 211 50 q 206 111 211 94 q 190 142 201 128 q 160 165 178 156 q 118 174 143 174 q 58 147 78 174 q 38 81 38 121 q 44 53 38 67 q 63 27 50 39 q 97 8 76 15 q 144 3 117 1 z "},"-":{"ha":486,"x_min":67,"x_max":414,"o":"m 67 422 l 67 318 l 414 318 l 414 422 l 67 422 z "},".":{"ha":231,"x_min":35,"x_max":199,"o":"m 118 160 q 55 135 74 160 q 35 79 36 111 q 55 24 36 47 q 118 0 74 0 q 178 24 160 0 q 199 79 196 47 q 178 135 196 111 q 118 160 160 160 z "},"/":{"ha":628,"x_min":-67,"x_max":715,"o":"m 594 1097 q 566 1046 594 1097 q 491 910 538 994 q 385 717 444 825 q 263 497 325 610 q 142 276 201 383 q 36 83 82 168 q -38 -53 -10 -1 q -65 -104 -67 -104 l 6 -104 q 38 -53 7 -104 q 118 83 68 -1 q 232 276 168 168 q 362 497 296 383 q 492 717 428 610 q 605 910 556 825 q 685 1046 654 994 q 715 1097 715 1097 l 594 1097 z "},":":{"ha":231,"x_min":35,"x_max":199,"o":"m 118 160 q 55 135 74 160 q 35 79 36 111 q 55 24 36 47 q 118 0 74 0 q 178 24 160 0 q 199 79 196 47 q 178 135 196 111 q 118 160 160 160 m 118 531 q 55 506 74 531 q 35 450 36 482 q 55 394 36 418 q 118 371 74 371 q 178 394 160 371 q 199 450 196 418 q 178 506 196 482 q 118 531 160 531 z "},";":{"ha":250,"x_min":38,"x_max":211,"o":"m 144 3 q 137 -42 149 -18 q 108 -86 125 -65 q 73 -123 90 -107 q 51 -144 56 -139 q 46 -162 40 -154 q 51 -171 51 -171 q 133 -98 101 -131 q 181 -35 164 -65 q 205 22 199 -6 q 211 81 211 50 q 206 111 211 94 q 190 142 201 128 q 160 165 178 156 q 118 174 143 174 q 58 147 78 174 q 38 81 38 121 q 44 53 38 67 q 63 27 50 39 q 97 8 76 15 q 144 3 117 1 m 122 522 q 59 498 78 522 q 39 442 40 474 q 59 386 40 410 q 122 363 78 363 q 182 386 164 363 q 203 442 200 410 q 182 498 200 474 q 122 522 164 522 z "},"<":{"ha":699,"x_min":28,"x_max":671,"o":"m 671 81 l 671 186 l 139 407 l 671 611 l 671 731 l 28 467 l 28 347 l 671 81 z "},"=":{"ha":554,"x_min":0,"x_max":557,"o":"m 0 385 l 0 281 l 557 281 l 557 385 l 0 385 m 0 632 l 0 528 l 557 528 l 557 632 l 0 632 z "},">":{"ha":699,"x_min":28,"x_max":671,"o":"m 560 407 l 28 186 l 28 81 l 671 347 l 671 467 l 28 731 l 28 611 l 560 407 z "},"?":{"ha":738,"x_min":0,"x_max":713,"o":"m 529 499 q 574 531 543 507 q 636 589 606 554 q 690 667 667 624 q 711 760 713 711 q 687 876 708 824 q 623 967 665 929 q 519 1025 581 1004 q 374 1046 457 1046 q 185 1025 278 1044 q 0 976 93 1006 q 10 917 6 950 q 20 849 15 883 q 29 781 25 814 q 36 721 33 747 l 103 721 l 101 839 q 122 895 101 874 q 177 930 142 917 q 258 949 213 943 q 353 960 303 956 q 431 950 394 960 q 495 920 468 940 q 538 867 522 900 q 551 788 553 835 q 544 742 551 768 q 523 692 538 717 q 484 645 508 667 q 422 610 460 624 l 360 576 q 294 535 324 564 q 242 471 264 507 q 208 394 219 435 q 196 317 196 354 l 196 210 l 364 210 l 364 276 q 379 363 369 331 q 408 417 389 396 q 456 456 426 439 q 529 499 485 474 m 286 151 q 223 127 242 151 q 203 71 204 103 q 223 15 204 39 q 286 -8 242 -8 q 346 15 328 -8 q 367 71 364 39 q 346 127 364 103 q 286 151 328 151 z "},"@":{"ha":1296,"x_min":44,"x_max":1256,"o":"m 722 90 q 815 88 765 86 q 914 100 864 90 q 1010 128 964 110 q 1090 174 1056 146 q 1208 333 1161 239 q 1256 535 1256 426 q 1217 732 1256 640 q 1108 891 1178 824 q 940 997 1038 958 q 725 1036 843 1036 q 480 992 600 1036 q 269 874 360 949 q 171 770 213 828 q 101 649 129 713 q 58 516 72 585 q 44 379 44 447 q 97 136 44 244 q 253 -50 150 28 q 671 -175 415 -175 q 1115 -25 913 -175 l 1094 22 q 679 -118 901 -118 q 285 15 442 -118 q 164 178 200 88 q 124 358 128 269 q 165 610 117 497 q 303 808 214 722 q 721 967 467 967 q 903 937 818 967 q 1049 854 988 907 q 1186 546 1186 733 q 1142 349 1186 426 q 1014 217 1099 272 q 985 203 1001 208 q 951 195 968 199 q 915 192 933 192 q 885 194 899 192 q 951 440 951 438 q 955 572 963 513 q 916 671 947 631 q 827 733 885 711 q 682 756 769 756 q 536 733 599 756 q 428 671 474 711 q 353 572 383 631 q 307 440 324 513 q 301 303 296 367 q 333 191 306 239 q 411 115 360 143 q 546 88 463 88 q 658 133 601 88 q 769 243 715 179 l 722 90 m 675 681 q 744 672 714 682 q 794 635 775 661 q 817 567 813 610 q 810 460 822 524 q 781 360 801 411 q 728 266 760 308 q 654 194 696 224 q 565 163 613 165 q 456 225 486 160 q 449 418 425 290 q 485 550 463 499 q 537 631 508 601 q 600 672 565 661 q 675 681 635 682 z "},"A":{"ha":1111,"x_min":29,"x_max":1086,"o":"m 29 0 l 440 0 l 440 63 q 369 74 394 63 q 331 110 343 85 q 317 178 319 136 q 315 285 315 221 l 315 463 l 800 463 l 800 285 q 798 178 800 221 q 784 110 796 136 q 747 74 772 85 q 675 63 721 63 l 675 0 l 1086 0 l 1086 63 l 1072 63 q 1008 74 1031 63 q 975 110 986 85 q 962 178 964 136 q 960 285 960 221 l 960 676 q 933 828 960 761 q 856 943 907 896 q 731 1016 804 990 q 564 1042 657 1042 q 260 944 365 1042 q 156 676 156 846 l 156 285 q 153 178 156 221 q 140 110 151 136 q 107 74 129 85 q 43 63 85 63 l 29 58 l 29 0 m 315 719 q 337 835 315 789 q 393 910 358 882 q 471 949 428 938 q 557 960 514 961 q 644 950 600 961 q 722 911 688 939 q 778 836 757 883 q 800 719 800 789 l 800 526 l 315 526 l 315 719 z "},"B":{"ha":888,"x_min":53,"x_max":853,"o":"m 853 307 q 804 465 853 404 q 663 554 756 526 q 774 647 735 588 q 814 782 814 707 q 723 973 814 904 q 465 1042 632 1042 l 53 1042 l 53 979 l 67 979 q 131 968 108 979 q 164 931 153 957 q 177 863 175 906 q 179 757 179 821 l 179 285 q 177 178 179 221 q 163 110 175 136 q 126 74 151 85 q 54 63 100 63 l 54 0 l 511 0 q 647 18 585 0 q 756 74 710 36 q 827 169 801 111 q 853 307 853 228 m 385 508 q 533 495 472 508 q 630 455 593 482 q 683 388 667 428 q 700 297 700 349 q 684 197 697 239 q 643 126 671 154 q 572 83 615 99 q 465 63 528 68 q 394 74 419 63 q 356 110 368 85 q 341 178 343 136 q 339 285 339 221 l 339 490 q 351 505 342 501 q 385 508 361 508 m 339 757 q 341 869 339 825 q 358 938 343 913 q 432 953 378 953 q 613 913 558 953 q 667 775 667 872 q 651 687 667 724 q 602 626 636 650 q 513 592 568 603 q 379 581 458 581 q 350 583 358 581 q 339 601 342 586 l 339 757 z "},"C":{"ha":1001,"x_min":39,"x_max":961,"o":"m 942 190 q 803 122 875 146 q 658 99 732 99 q 474 132 557 99 q 333 226 392 165 q 244 369 275 286 q 213 554 213 453 q 238 717 213 642 q 312 848 264 793 q 429 934 360 903 q 586 965 499 965 q 671 959 624 965 q 760 938 718 953 q 831 900 801 924 q 860 842 860 876 l 858 724 l 925 724 q 932 783 928 750 q 941 851 936 817 q 951 919 946 886 q 961 979 956 953 q 768 1030 865 1013 q 583 1047 671 1047 q 374 1012 472 1047 q 201 909 275 976 q 83 744 126 842 q 39 524 39 647 q 84 299 39 397 q 207 135 129 201 q 389 34 285 68 q 611 0 493 0 q 687 6 644 0 q 773 24 729 13 q 859 50 817 35 q 935 85 901 65 l 942 190 z "},"D":{"ha":985,"x_min":24,"x_max":943,"o":"m 943 532 q 909 744 943 650 q 810 905 875 839 q 651 1006 746 971 q 435 1042 557 1042 l 24 1042 l 24 979 l 38 979 q 101 968 79 979 q 135 931 124 957 q 148 863 146 906 q 150 757 150 821 l 150 285 q 148 178 150 221 q 134 110 146 136 q 97 74 122 85 q 25 63 71 63 l 25 0 q 282 -1 189 -1 q 424 -1 375 -1 q 490 -1 472 -1 q 521 0 508 0 q 685 38 608 -3 q 819 151 761 79 q 910 321 876 222 q 943 532 943 419 m 392 947 q 681 836 583 947 q 779 514 779 725 q 776 410 779 465 q 760 302 774 356 q 718 201 746 249 q 642 123 690 154 q 519 81 593 92 q 339 88 446 69 q 313 157 317 110 q 310 285 310 204 l 310 815 q 325 929 310 893 q 349 944 333 940 q 392 947 365 947 z "},"E":{"ha":867,"x_min":3,"x_max":824,"o":"m 822 76 l 529 76 q 443 88 486 76 q 366 127 400 99 q 310 201 332 156 q 289 317 289 247 l 289 526 l 668 526 l 668 590 l 289 590 l 289 744 q 290 842 289 801 q 301 908 292 882 q 328 947 310 933 q 381 965 347 961 l 824 965 l 824 1042 l 3 1042 l 3 983 l 17 979 q 81 968 58 979 q 114 931 103 957 q 127 863 125 906 q 129 757 129 821 l 129 361 q 232 96 129 193 q 529 -3 335 -1 l 822 -3 l 822 76 z "},"F":{"ha":725,"x_min":19,"x_max":685,"o":"m 676 961 l 676 1042 l 546 1042 q 249 943 351 1040 q 146 678 146 846 l 146 282 q 144 176 146 218 q 131 108 142 133 q 97 71 119 82 q 33 60 75 60 l 19 56 l 19 -3 l 436 -3 l 436 61 l 397 61 q 344 72 363 60 q 317 113 325 85 q 307 183 308 140 q 306 282 306 225 l 306 461 l 685 461 l 685 525 l 306 525 l 306 721 q 327 835 306 789 q 383 910 349 882 q 460 950 417 939 q 546 961 503 961 l 676 961 z "},"G":{"ha":1049,"x_min":35,"x_max":1010,"o":"m 599 -215 l 599 -278 l 1010 -278 l 1010 -215 l 996 -215 q 933 -204 956 -215 q 899 -168 910 -193 q 885 -102 888 -143 q 885 0 883 -61 l 885 263 q 887 365 885 326 q 900 426 889 404 q 937 455 911 447 q 1008 463 963 463 l 1008 525 l 597 525 l 597 463 q 669 462 643 463 q 708 448 696 461 q 724 401 721 435 q 725 300 726 367 l 725 147 q 631 109 679 119 q 524 99 582 99 q 398 127 454 99 q 302 210 342 156 q 240 342 263 264 q 218 518 218 419 q 303 840 218 726 q 532 953 388 953 q 712 893 638 953 q 825 696 786 833 l 867 696 q 851 806 854 753 q 846 901 847 860 q 844 966 844 942 q 835 990 843 990 q 761 999 801 990 q 678 1017 721 1007 q 593 1036 636 1028 q 511 1044 550 1044 q 320 1006 407 1044 q 169 897 233 967 q 70 728 106 826 q 35 513 35 631 q 68 297 35 393 q 163 134 101 201 q 310 30 224 67 q 503 -7 396 -7 q 725 67 631 -7 l 725 0 q 722 -102 725 -61 q 707 -168 719 -143 q 669 -204 694 -193 q 599 -215 644 -215 z "},"H":{"ha":960,"x_min":39,"x_max":931,"o":"m 39 979 l 53 979 q 117 968 94 979 q 150 931 139 957 q 163 863 161 906 q 165 757 165 821 l 165 -1 l 325 -1 l 325 451 l 646 451 l 646 -1 l 806 -1 l 806 757 q 808 863 806 821 q 822 931 810 906 q 859 968 833 957 q 931 979 885 979 l 931 1042 l 519 1042 l 519 979 l 533 979 q 597 968 575 979 q 631 931 619 957 q 644 863 642 906 q 646 757 646 821 l 646 515 l 325 515 l 325 757 q 327 863 325 821 q 341 931 329 906 q 378 968 353 957 q 450 979 404 979 l 450 1042 l 39 1042 l 39 979 z "},"I":{"ha":478,"x_min":40,"x_max":453,"o":"m 326 757 q 328 863 326 821 q 342 931 331 906 q 380 968 354 957 q 451 979 406 979 l 451 1042 l 40 1042 l 40 979 l 54 979 q 118 968 96 979 q 151 931 140 957 q 165 863 163 906 q 167 757 167 821 l 167 285 q 165 178 167 221 q 151 110 163 136 q 113 74 139 85 q 42 63 88 63 l 42 0 l 453 0 l 453 63 l 439 63 q 375 74 397 63 q 342 110 353 85 q 328 178 331 136 q 326 285 326 221 l 326 757 z "},"J":{"ha":479,"x_min":-119,"x_max":450,"o":"m 450 979 l 450 1042 l 39 1042 l 39 979 q 110 968 85 979 q 148 931 136 957 q 162 863 160 906 q 164 757 164 821 l 164 44 q 143 -69 164 -24 q 89 -144 122 -115 q 15 -184 56 -172 q -62 -196 -25 -196 q -92 -194 -78 -196 q -119 -189 -106 -192 l -119 -275 q -96 -277 -108 -276 q -69 -278 -83 -278 q 97 -252 24 -278 q 220 -179 169 -226 q 297 -65 271 -132 q 324 88 324 3 l 324 757 q 326 863 324 821 q 339 931 328 906 q 372 968 350 957 q 436 979 394 979 l 450 979 z "},"K":{"ha":1054,"x_min":40,"x_max":1017,"o":"m 731 276 l 731 251 q 728 150 731 188 q 715 93 726 113 q 677 68 703 74 q 606 63 651 63 l 606 0 l 1017 0 l 1017 63 l 1003 63 q 943 69 965 63 q 909 93 921 75 q 894 142 897 111 q 890 222 890 172 q 847 408 890 331 q 721 522 804 485 q 843 630 800 558 q 889 803 886 701 q 892 893 889 858 q 906 947 894 928 q 939 973 917 967 q 1001 979 961 979 l 1015 979 l 1015 1042 l 604 1042 l 604 979 q 676 974 650 979 q 713 949 701 968 q 727 892 725 929 q 729 790 729 854 l 729 769 q 714 673 729 711 q 673 611 699 635 q 613 577 647 588 q 543 564 579 567 q 511 564 536 564 q 453 564 486 564 q 386 564 421 564 q 326 565 351 564 l 326 757 q 328 863 326 821 q 342 931 331 906 q 380 968 354 957 q 451 979 406 979 l 451 1042 l 40 1042 l 40 979 l 54 979 q 118 968 96 979 q 151 931 140 957 q 165 863 163 906 q 167 757 167 821 l 167 285 q 165 178 167 221 q 151 110 163 136 q 113 74 139 85 q 42 63 88 63 l 42 0 l 453 0 l 453 63 l 439 63 q 375 74 397 63 q 342 110 353 85 q 328 178 331 136 q 326 285 326 221 l 326 479 q 396 483 360 482 q 463 483 432 483 q 515 482 493 482 q 543 482 538 482 q 613 469 579 479 q 673 435 647 458 q 715 373 699 411 q 731 276 731 335 z "},"L":{"ha":839,"x_min":19,"x_max":839,"o":"m 839 69 l 546 69 q 460 81 503 69 q 383 120 417 92 q 327 194 349 149 q 306 310 306 240 l 306 757 q 307 854 306 814 q 317 920 308 894 q 345 960 326 946 q 397 978 364 974 l 417 978 l 417 1042 l 19 1042 l 19 983 l 33 979 q 97 968 75 979 q 131 931 119 957 q 144 863 142 906 q 146 757 146 821 l 146 361 q 249 96 146 193 q 546 -3 351 -1 l 839 -3 l 839 69 z "},"M":{"ha":1322,"x_min":29,"x_max":1301,"o":"m 740 961 q 833 940 785 956 q 922 895 882 924 q 989 825 963 867 q 1015 725 1015 783 l 1015 285 q 1013 178 1015 221 q 999 110 1011 136 q 962 74 988 85 q 890 63 936 63 l 890 0 l 1301 0 l 1301 63 l 1288 63 q 1224 74 1246 63 q 1190 110 1201 85 q 1177 178 1179 136 q 1175 285 1175 221 l 1175 682 q 1140 822 1175 758 q 1044 932 1104 885 q 908 1008 985 979 q 746 1044 831 1036 q 778 1109 753 1090 q 865 1128 804 1128 l 865 1190 l 454 1190 l 454 1128 l 468 1128 q 545 1108 522 1128 q 575 1039 568 1088 q 415 997 492 1026 q 281 921 339 967 q 190 815 224 875 q 156 682 156 754 l 156 285 q 153 178 156 221 q 140 110 151 136 q 107 74 129 85 q 43 63 85 63 l 29 58 l 29 0 l 440 0 l 440 63 q 369 74 394 63 q 331 110 343 85 q 317 178 319 136 q 315 285 315 221 l 315 725 q 340 819 315 779 q 403 886 364 858 q 488 931 442 914 q 581 957 535 949 l 581 408 q 578 305 581 344 q 565 243 576 265 q 527 213 553 221 q 456 206 501 206 l 456 143 l 867 143 l 867 206 l 853 206 q 789 213 811 206 q 756 243 767 221 q 742 305 744 265 q 740 408 740 344 l 740 961 z "},"N":{"ha":1111,"x_min":29,"x_max":1086,"o":"m 315 719 q 337 835 315 789 q 393 910 358 882 q 471 949 428 938 q 557 960 514 961 q 644 950 600 961 q 722 911 688 939 q 778 836 757 883 q 800 719 800 789 l 800 285 q 798 178 800 221 q 784 110 796 136 q 747 74 772 85 q 675 63 721 63 l 675 0 l 1086 0 l 1086 63 l 1072 63 q 1008 74 1031 63 q 975 110 986 85 q 962 178 964 136 q 960 285 960 221 l 960 676 q 933 828 960 761 q 856 943 907 896 q 731 1016 804 990 q 564 1042 657 1042 q 260 944 365 1042 q 156 676 156 846 l 156 285 q 153 178 156 221 q 140 110 151 136 q 107 74 129 85 q 43 63 85 63 l 29 58 l 29 0 l 440 0 l 440 63 q 369 74 394 63 q 331 110 343 85 q 317 178 319 136 q 315 285 315 221 l 315 719 z "},"O":{"ha":913,"x_min":57,"x_max":861,"o":"m 861 678 q 835 830 861 763 q 757 944 808 897 q 632 1017 706 992 q 465 1043 558 1043 q 162 945 267 1043 q 57 678 57 847 l 57 365 q 162 98 57 196 q 465 0 267 0 q 632 26 558 0 q 757 99 706 51 q 835 213 808 146 q 861 365 861 281 l 861 678 m 217 322 l 217 721 q 238 837 217 790 q 294 911 260 883 q 372 951 329 939 q 458 961 415 963 q 545 951 501 963 q 624 913 589 940 q 680 838 658 885 q 701 721 701 790 l 701 322 q 680 206 701 253 q 624 131 658 158 q 545 92 589 103 q 458 82 501 81 q 372 92 415 81 q 294 132 329 104 q 238 206 260 160 q 217 322 217 253 z "},"P":{"ha":972,"x_min":13,"x_max":942,"o":"m 546 1043 q 248 950 353 1043 q 138 696 143 857 l 138 285 q 135 178 138 221 q 122 110 133 136 q 84 74 110 85 q 13 63 58 63 l 13 0 l 424 0 l 424 63 l 410 63 q 346 74 368 63 q 313 110 324 85 q 299 178 301 136 q 297 285 297 221 l 297 408 q 546 350 393 350 q 832 442 729 350 q 942 696 935 535 q 832 950 935 857 q 546 1043 729 1043 m 297 721 q 319 837 297 790 q 375 911 340 883 q 453 951 410 939 q 539 961 496 963 q 626 951 582 963 q 704 913 669 940 q 760 838 739 885 q 782 721 782 790 l 782 672 q 760 556 782 603 q 704 481 739 508 q 626 442 669 453 q 539 432 582 431 q 456 441 497 431 q 380 477 414 451 q 323 545 346 503 q 297 651 300 588 l 297 721 z "},"Q":{"ha":913,"x_min":57,"x_max":861,"o":"m 861 678 q 835 830 861 763 q 757 944 808 897 q 632 1017 706 992 q 465 1043 558 1043 q 162 945 267 1043 q 57 678 57 847 l 57 365 q 140 121 57 215 q 378 6 222 26 q 376 -101 378 -58 q 362 -169 374 -143 q 324 -206 350 -194 q 253 -217 299 -217 l 253 -279 l 664 -279 l 664 -217 l 650 -217 q 586 -206 608 -217 q 553 -169 564 -194 q 540 -101 542 -143 q 538 4 538 -58 q 777 118 693 24 q 861 365 861 213 l 861 678 m 538 131 q 540 237 538 194 q 553 305 542 279 q 591 342 565 331 q 663 353 617 353 l 663 415 l 251 415 l 251 353 l 265 353 q 329 342 307 353 q 363 305 351 331 q 376 237 374 279 q 378 131 378 194 l 378 90 q 315 116 344 99 q 265 161 286 133 q 230 229 243 189 q 217 322 217 269 l 217 721 q 238 837 217 790 q 294 911 260 883 q 372 951 329 939 q 458 961 415 963 q 545 951 501 963 q 624 913 589 940 q 680 838 658 885 q 701 721 701 790 l 701 322 q 688 228 701 268 q 652 160 675 188 q 600 115 629 132 q 538 89 571 97 l 538 131 z "},"R":{"ha":972,"x_min":13,"x_max":942,"o":"m 424 0 l 424 63 l 410 63 q 346 74 368 63 q 313 110 324 85 q 299 178 301 136 q 297 285 297 221 l 297 443 q 382 385 335 407 q 468 353 429 363 q 548 318 517 333 q 599 284 579 303 q 627 237 618 265 q 640 163 636 208 q 632 110 638 129 q 613 80 626 90 q 576 66 599 69 q 517 63 553 63 l 517 0 l 917 0 l 917 63 l 914 63 q 853 65 876 63 q 819 75 831 68 q 803 95 807 82 q 801 129 800 108 q 792 213 801 176 q 767 276 783 249 q 725 324 750 303 q 667 363 700 344 q 865 476 794 390 q 942 696 936 563 q 832 950 935 857 q 546 1043 729 1043 q 248 950 353 1043 q 138 696 143 857 l 138 285 q 135 178 138 221 q 122 110 133 136 q 84 74 110 85 q 13 63 58 63 l 13 0 l 424 0 m 297 721 q 319 837 297 790 q 375 911 340 883 q 453 951 410 939 q 539 961 496 963 q 626 951 582 963 q 704 913 669 940 q 760 838 739 885 q 782 721 782 790 l 782 672 q 760 556 782 603 q 704 481 739 508 q 626 442 669 453 q 539 432 582 431 q 456 441 497 431 q 380 477 414 451 q 323 545 346 503 q 297 651 300 588 l 297 721 z "},"S":{"ha":808,"x_min":43,"x_max":772,"o":"m 46 771 q 97 623 43 692 q 263 514 151 554 l 482 435 q 544 397 519 421 q 583 345 568 372 q 604 290 597 318 q 611 243 611 263 q 597 165 613 196 q 555 117 582 135 q 491 92 528 100 q 413 85 454 85 q 317 95 363 89 q 237 115 272 101 q 181 149 201 128 q 161 206 161 171 l 163 324 l 96 324 q 89 264 93 297 q 80 196 85 231 q 70 128 75 161 q 60 68 65 94 q 245 19 153 39 q 433 -1 338 -1 q 563 17 503 -1 q 669 72 624 36 q 741 157 714 107 q 771 271 768 207 q 763 348 772 308 q 732 424 754 388 q 674 493 710 461 q 589 546 639 525 l 383 632 q 311 667 346 647 q 251 709 276 686 q 209 756 225 732 q 193 803 193 779 q 208 869 192 840 q 253 917 225 897 q 319 946 282 936 q 397 958 357 956 q 479 948 435 956 q 561 926 524 940 q 624 888 599 911 q 650 833 650 865 l 647 715 l 714 714 q 722 774 718 740 q 731 842 726 807 q 741 910 736 876 q 751 969 746 943 q 563 1023 653 1007 q 367 1039 474 1039 q 130 969 213 1029 q 46 771 47 908 z "},"T":{"ha":906,"x_min":21,"x_max":885,"o":"m 732 938 q 785 935 767 938 q 810 920 803 932 q 819 883 818 908 q 822 813 819 858 l 885 813 l 885 1042 l 21 1042 l 21 811 l 83 811 l 83 854 q 92 906 85 889 q 122 931 99 924 q 188 938 144 938 q 306 938 232 938 l 374 938 l 374 285 q 372 178 374 221 q 358 110 369 136 q 320 74 346 85 q 249 63 294 63 l 249 0 l 660 0 l 660 63 l 646 63 q 582 74 604 63 q 549 110 560 85 q 535 178 538 136 q 533 285 533 221 l 533 938 l 732 938 z "},"U":{"ha":1111,"x_min":29,"x_max":1086,"o":"m 315 322 l 315 757 q 317 863 315 821 q 331 931 319 906 q 369 968 343 957 q 440 979 394 979 l 440 1042 l 29 1042 l 29 983 l 43 979 q 107 968 85 979 q 140 931 129 957 q 153 863 151 906 q 156 757 156 821 l 156 365 q 260 98 156 196 q 564 0 365 0 q 731 26 657 0 q 856 99 804 51 q 933 213 907 146 q 960 365 960 281 l 960 757 q 962 863 960 821 q 975 931 964 906 q 1008 968 986 957 q 1072 979 1031 979 l 1086 979 l 1086 1042 l 675 1042 l 675 979 q 747 968 721 979 q 784 931 772 957 q 798 863 796 906 q 800 757 800 821 l 800 322 q 778 206 800 253 q 722 131 757 158 q 644 92 688 103 q 557 82 600 81 q 471 92 514 81 q 393 132 428 104 q 337 206 358 160 q 315 322 315 253 z "},"V":{"ha":1179,"x_min":0,"x_max":1179,"o":"m 622 -3 l 892 639 q 967 809 933 743 q 1033 914 1001 875 q 1100 968 1065 953 q 1179 988 1135 983 l 1179 1043 l 742 1043 l 742 986 l 789 986 q 864 972 839 986 q 889 921 889 957 q 869 822 889 883 q 808 663 849 760 l 625 225 l 446 663 q 377 824 407 758 q 347 926 347 889 q 383 975 347 964 q 471 986 418 986 l 518 986 l 518 1043 l 0 1043 l 0 988 q 83 964 47 985 q 151 901 119 943 q 215 795 183 860 q 285 639 247 731 l 556 -3 l 622 -3 z "},"W":{"ha":1322,"x_min":29,"x_max":1301,"o":"m 747 83 l 747 636 q 749 740 747 700 q 763 801 751 779 q 796 831 774 824 q 860 839 818 839 l 874 839 l 874 901 l 463 901 l 463 839 q 534 831 508 839 q 572 801 560 824 q 585 740 583 779 q 588 636 588 700 l 588 88 q 494 113 542 96 q 406 158 446 131 q 341 226 367 186 q 315 319 315 265 l 315 760 q 317 866 315 824 q 331 934 319 908 q 369 971 343 960 q 440 982 394 982 l 440 1044 l 29 1044 l 29 986 l 43 982 q 107 971 85 982 q 140 934 129 960 q 153 866 151 908 q 156 760 156 824 l 156 363 q 191 229 156 289 q 285 124 226 169 q 422 48 344 78 q 582 6 499 18 q 631 2 614 3 q 663 1 649 1 q 697 0 678 0 q 753 0 717 0 q 914 37 838 8 q 1049 113 990 65 q 1141 222 1107 160 q 1175 363 1175 285 l 1175 760 q 1177 866 1175 824 q 1190 934 1179 908 q 1224 971 1201 960 q 1288 982 1246 982 l 1301 982 l 1301 1044 l 890 1044 l 890 982 q 962 971 936 982 q 999 934 988 960 q 1013 866 1011 908 q 1015 760 1015 824 l 1015 319 q 990 219 1015 261 q 926 149 965 178 q 839 105 886 121 q 747 83 792 89 z "},"X":{"ha":1054,"x_min":47,"x_max":1017,"o":"m 333 276 q 348 371 333 333 q 388 432 363 408 q 444 467 413 456 q 513 481 476 478 l 550 481 q 617 467 585 478 q 675 432 650 456 q 715 371 700 408 q 731 276 731 333 l 731 251 q 728 150 731 188 q 715 93 726 113 q 677 68 703 74 q 606 63 651 63 l 606 0 l 1017 0 l 1017 63 l 1003 63 q 943 69 965 63 q 909 93 921 75 q 894 142 897 111 q 890 222 890 172 q 847 408 890 331 q 721 522 804 485 q 843 630 800 558 q 889 803 886 701 q 892 893 889 858 q 906 947 894 928 q 939 973 917 967 q 1001 979 961 979 l 1015 979 l 1015 1042 l 604 1042 l 604 979 q 676 974 650 979 q 713 949 701 968 q 727 892 725 929 q 729 790 729 854 l 729 769 q 714 673 729 711 q 673 611 699 635 q 613 577 647 588 q 543 564 579 567 l 521 564 q 451 577 485 567 q 391 611 417 588 q 350 673 365 635 q 335 769 335 711 l 335 790 q 337 892 335 854 q 351 949 339 929 q 388 974 363 968 q 460 979 414 979 l 460 1042 l 49 1042 l 49 979 l 63 979 q 124 973 101 979 q 158 947 147 967 q 172 893 169 928 q 175 803 175 858 q 221 630 178 701 q 343 522 264 558 q 217 408 260 485 q 174 222 174 331 q 170 142 174 172 q 155 93 167 111 q 121 69 143 75 q 61 63 99 63 l 47 63 l 47 0 l 458 0 l 458 63 q 387 68 413 63 q 349 93 361 74 q 335 150 338 113 q 333 251 333 188 l 333 276 z "},"Y":{"ha":1107,"x_min":26,"x_max":1083,"o":"m 313 679 l 313 758 q 315 865 313 822 q 328 933 317 907 q 366 969 340 958 q 438 981 392 981 l 438 1043 l 26 1043 l 26 981 l 40 981 q 104 969 82 981 q 138 933 126 958 q 151 865 149 907 q 153 758 153 822 l 153 722 q 236 476 153 571 q 478 361 319 382 l 478 285 q 476 178 478 221 q 462 110 474 136 q 424 74 450 85 q 353 63 399 63 l 353 0 l 764 0 l 764 63 l 750 63 q 686 74 708 63 q 653 110 664 85 q 640 178 642 136 q 638 285 638 221 l 638 361 q 874 476 790 381 q 957 722 957 571 l 957 760 q 959 866 957 824 q 972 933 961 908 q 1006 969 983 958 q 1069 979 1028 979 l 1083 979 l 1083 1042 l 672 1043 l 672 981 q 744 969 718 981 q 781 933 769 958 q 795 865 793 907 q 797 758 797 822 l 797 679 q 776 563 797 610 q 719 488 754 515 q 641 449 685 460 q 554 439 597 438 q 468 449 511 438 q 390 489 425 461 q 334 563 356 517 q 313 679 313 610 z "},"Z":{"ha":1039,"x_min":38,"x_max":982,"o":"m 72 835 l 135 835 q 135 892 135 868 q 144 933 136 917 q 168 956 151 949 q 218 963 185 963 l 761 964 q 671 849 722 915 q 561 709 619 783 q 441 556 503 635 q 320 401 379 476 q 210 260 261 326 q 119 144 158 193 q 59 69 81 96 q 40 44 38 42 l 56 0 q 410 1 264 0 q 653 1 556 1 q 810 1 751 1 q 900 1 868 1 q 946 1 932 1 q 972 1 961 1 l 972 210 l 910 210 q 909 152 910 176 q 901 112 908 128 q 878 88 894 96 q 828 81 861 81 l 283 81 q 418 255 346 161 q 563 443 490 349 q 704 628 635 538 q 831 790 774 718 q 927 913 888 863 q 982 978 967 963 l 982 1042 l 72 1043 l 72 835 z "},"[":{"ha":438,"x_min":53,"x_max":413,"o":"m 193 803 q 196 893 193 858 q 210 947 199 928 q 243 973 221 967 q 306 979 265 979 l 413 979 l 413 1042 l 53 1042 l 53 0 l 407 0 l 407 63 l 307 63 q 247 69 269 63 q 213 93 225 75 q 198 142 201 111 q 194 222 194 172 q 194 260 194 226 q 194 346 194 294 q 193 460 193 397 q 193 586 193 524 q 193 707 193 650 q 193 803 193 764 z "},"\\":{"ha":656,"x_min":-72,"x_max":708,"o":"m 49 1129 l -72 1129 q -42 1078 -72 1129 q 38 942 -11 1026 q 151 749 88 857 q 281 529 214 642 q 410 309 347 417 q 524 117 474 201 q 604 -19 574 32 q 636 -71 635 -71 l 707 -71 q 680 -19 708 -71 q 606 117 651 32 q 501 309 560 201 q 380 529 442 417 q 258 749 318 642 q 152 942 199 857 q 77 1078 106 1026 q 49 1129 49 1129 z "},"]":{"ha":438,"x_min":19,"x_max":379,"o":"m 239 803 q 239 707 239 764 q 239 586 239 650 q 239 460 239 524 q 238 346 239 397 q 238 260 238 294 q 238 222 238 226 q 234 142 238 172 q 219 93 231 111 q 185 69 207 75 q 125 63 163 63 l 25 63 l 25 0 l 379 0 l 379 1042 l 19 1042 l 19 979 l 126 979 q 188 973 165 979 q 222 947 211 967 q 236 893 233 928 q 239 803 239 858 z "},"^":{"ha":549,"x_min":10,"x_max":535,"o":"m 535 653 l 269 983 l 10 657 l 22 626 l 276 810 l 522 622 l 535 653 z "},"_":{"ha":554,"x_min":-1,"x_max":556,"o":"m -1 49 l -1 -56 l 556 -56 l 556 49 l -1 49 z "},"`":{"ha":853,"x_min":222,"x_max":574,"o":"m 300 1388 q 228 1264 222 1268 q 553 1149 231 1257 l 574 1192 l 300 1388 z "},"a":{"ha":793,"x_min":35,"x_max":743,"o":"m 743 4 q 743 193 743 126 q 743 293 743 261 q 743 335 743 326 q 743 346 743 343 q 719 490 740 426 q 656 599 699 554 q 545 669 613 644 q 382 693 478 693 q 226 669 290 693 q 121 599 163 644 q 58 490 79 554 q 35 346 38 426 q 58 201 38 265 q 121 92 79 138 q 226 24 163 47 q 382 0 290 0 q 440 6 413 0 q 490 28 467 13 q 537 72 514 44 q 583 143 560 100 l 582 4 l 582 0 l 743 0 l 743 4 m 583 368 q 530 154 583 229 q 389 82 476 79 q 310 92 346 81 q 248 131 274 103 q 208 206 222 158 q 194 322 194 253 l 194 371 q 208 488 194 440 q 248 563 222 535 q 310 601 274 590 q 389 611 346 613 q 468 601 432 613 q 530 561 504 589 q 569 487 556 533 q 583 371 583 440 l 583 368 z "},"b":{"ha":881,"x_min":19,"x_max":851,"o":"m 19 979 q 91 968 65 979 q 128 931 117 957 q 142 863 140 906 q 144 757 144 821 q 144 557 144 635 q 143 433 143 479 q 143 368 143 388 q 143 347 143 350 q 167 203 146 267 q 231 94 188 139 q 341 24 274 49 q 504 0 408 0 q 660 24 596 0 q 765 94 724 49 q 828 203 807 139 q 851 347 849 267 q 828 493 849 428 q 765 605 807 558 q 660 677 724 651 q 504 703 596 703 q 394 688 442 703 q 306 654 346 674 l 304 757 q 306 863 304 821 q 317 931 307 906 q 349 968 328 957 q 413 979 371 979 l 426 979 l 426 1042 l 19 1042 l 19 979 m 303 371 q 317 488 303 440 q 356 566 331 536 q 418 609 382 596 q 497 621 454 622 q 576 610 540 622 q 638 567 613 597 q 678 489 664 538 q 692 371 692 440 l 692 322 q 678 206 692 253 q 638 131 664 158 q 576 92 613 103 q 497 82 540 81 q 418 92 454 81 q 356 132 382 104 q 317 206 331 160 q 303 322 303 253 l 303 371 z "},"c":{"ha":713,"x_min":39,"x_max":685,"o":"m 394 594 q 463 588 435 594 q 511 565 490 581 q 549 526 532 550 q 585 471 565 503 q 644 517 624 504 q 673 534 664 531 q 681 537 682 538 q 678 542 681 536 q 622 611 663 574 q 504 674 582 649 q 319 679 404 697 q 172 613 235 661 q 74 492 110 565 q 39 329 39 418 q 64 190 39 254 q 135 81 89 126 q 243 9 181 35 q 381 -15 306 -17 q 491 -8 446 -14 q 569 8 536 -1 q 629 30 603 18 q 685 54 656 42 l 682 99 q 482 70 571 61 q 330 115 393 79 q 230 201 267 150 q 188 299 193 251 q 192 431 178 376 q 238 519 207 485 q 309 571 268 553 q 394 594 350 589 z "},"d":{"ha":893,"x_min":35,"x_max":867,"o":"m 867 979 l 867 1042 l 460 1042 l 460 979 l 474 979 q 537 968 515 979 q 568 931 558 957 q 579 863 578 906 q 581 757 581 821 l 581 654 q 492 688 540 674 q 382 703 444 703 q 226 677 290 703 q 121 605 163 651 q 58 493 79 558 q 35 347 38 428 q 58 203 38 267 q 121 94 79 139 q 226 24 163 49 q 382 0 290 0 q 545 24 478 0 q 655 94 613 49 q 718 203 697 139 q 742 347 739 267 q 742 368 742 350 q 742 433 742 388 q 742 557 742 479 q 742 757 742 635 q 744 863 742 821 q 758 931 746 906 q 795 968 769 957 q 867 979 821 979 m 583 371 l 583 322 q 569 206 583 253 q 530 132 556 160 q 468 92 504 104 q 389 82 432 81 q 310 92 346 81 q 248 131 274 103 q 208 206 222 158 q 194 322 194 253 l 194 371 q 208 489 194 440 q 248 567 222 538 q 310 610 274 597 q 389 621 346 622 q 468 609 432 622 q 530 566 504 596 q 569 488 556 536 q 583 371 583 440 z "},"e":{"ha":747,"x_min":49,"x_max":721,"o":"m 717 303 q 717 324 717 311 q 718 344 718 338 q 697 475 721 413 q 629 585 674 538 q 522 662 585 633 q 383 692 460 690 q 250 660 311 689 q 144 583 189 631 q 74 474 99 536 q 49 342 49 411 q 78 204 51 267 q 151 97 106 142 q 259 26 197 51 q 394 1 321 1 q 488 15 443 -1 q 575 51 532 32 l 564 97 q 425 74 476 74 q 321 96 363 74 q 253 151 279 118 q 216 225 228 185 q 200 303 204 265 l 717 303 m 378 606 l 381 606 q 506 554 457 606 q 565 389 554 503 l 201 389 q 218 469 206 431 q 252 538 231 508 q 305 587 274 568 q 378 606 336 606 z "},"f":{"ha":642,"x_min":-64,"x_max":601,"o":"m 593 961 l 593 1042 l 463 1042 q 165 943 268 1040 q 63 678 63 846 l 63 7 q 60 -99 63 -57 q 47 -167 58 -142 q 14 -204 36 -193 q -50 -215 -8 -215 l -64 -219 l -64 -278 l 353 -278 l 353 -214 l 314 -214 q 260 -203 279 -215 q 233 -162 242 -190 q 224 -92 225 -135 q 222 7 222 -50 l 222 464 l 601 464 l 601 528 l 222 528 l 222 721 q 244 835 222 789 q 299 910 265 882 q 376 950 333 939 q 463 961 419 961 l 593 961 z "},"g":{"ha":896,"x_min":60,"x_max":864,"o":"m 85 -276 l 485 -276 l 485 -214 q 425 -212 449 -214 q 388 -201 401 -210 q 369 -174 375 -192 q 361 -122 363 -156 q 421 -33 372 -58 q 533 0 469 -7 q 685 27 622 -3 q 787 106 747 57 q 845 217 826 154 q 864 343 864 279 q 753 597 858 504 q 456 690 649 690 q 169 597 272 690 q 60 343 67 504 q 136 124 65 210 q 335 10 207 38 q 278 -24 301 -8 q 238 -58 254 -40 q 212 -100 221 -76 q 200 -156 203 -124 q 198 -188 201 -176 q 183 -206 194 -200 q 148 -212 171 -211 q 88 -214 125 -214 l 85 -214 l 85 -276 m 704 368 l 704 299 q 678 192 701 235 q 622 124 656 150 q 546 88 588 99 q 463 79 504 78 q 376 89 419 78 q 297 128 332 100 q 241 203 263 156 q 219 319 219 250 l 219 368 q 241 485 219 438 q 297 560 263 532 q 376 599 332 588 q 463 608 419 610 q 549 598 506 610 q 626 558 592 586 q 683 484 661 531 q 704 368 704 438 z "},"h":{"ha":1014,"x_min":35,"x_max":978,"o":"m 447 979 l 447 1042 l 36 1042 l 36 979 q 108 968 82 979 q 145 931 133 957 q 159 863 157 906 q 161 757 161 821 l 161 279 q 159 173 161 215 q 146 105 157 131 q 113 68 135 79 q 49 57 90 57 l 35 57 l 35 -6 l 446 -6 l 446 57 q 374 68 400 57 q 337 105 349 79 q 323 173 325 131 q 321 279 321 215 l 321 381 q 337 490 322 446 q 377 561 351 535 q 438 598 403 588 q 515 607 474 608 q 592 597 558 608 q 647 557 625 585 q 681 483 669 529 q 692 367 692 436 l 692 279 q 690 173 692 215 q 676 105 688 131 q 638 68 664 79 q 567 57 613 57 l 567 -6 l 978 -6 l 978 53 l 964 57 q 900 68 922 57 q 867 105 878 79 q 853 173 856 131 q 851 279 851 215 l 851 324 q 833 476 851 408 q 773 590 814 543 q 667 663 732 638 q 508 689 601 689 q 321 644 399 689 l 321 757 q 323 863 321 821 q 336 931 325 906 q 369 968 347 957 q 433 979 392 979 l 447 979 z "},"i":{"ha":478,"x_min":40,"x_max":453,"o":"m 326 410 q 328 516 326 474 q 342 584 331 558 q 380 621 354 610 q 451 632 406 632 l 451 694 l 40 694 l 40 632 l 54 632 q 118 621 96 632 q 151 584 140 610 q 165 516 163 558 q 167 410 167 474 l 167 285 q 165 178 167 221 q 151 110 163 136 q 113 74 139 85 q 42 63 88 63 l 42 0 l 453 0 l 453 63 l 439 63 q 375 74 397 63 q 342 110 353 85 q 328 178 331 136 q 326 285 326 221 l 326 410 m 140 936 q 170 863 140 893 q 243 832 200 832 q 317 863 286 832 q 347 936 347 893 q 317 1010 347 979 q 243 1040 286 1040 q 170 1010 200 1040 q 140 936 140 979 z "},"j":{"ha":479,"x_min":-119,"x_max":450,"o":"m 450 633 l 450 696 l 39 696 l 39 633 q 110 622 85 633 q 148 585 136 611 q 162 517 160 560 q 164 411 164 475 l 164 43 q 143 -71 164 -25 q 89 -145 122 -117 q 15 -185 56 -174 q -62 -197 -25 -197 q -92 -195 -78 -197 q -119 -190 -106 -193 l -119 -276 q -96 -278 -108 -278 q -69 -279 -83 -279 q 97 -253 24 -279 q 220 -181 169 -228 q 297 -66 271 -133 q 324 86 324 1 l 324 411 q 326 517 324 475 q 339 585 328 560 q 372 622 350 611 q 436 633 394 633 l 450 633 m 135 936 q 165 863 135 893 q 238 832 194 832 q 311 863 281 832 q 342 936 342 893 q 311 1010 342 979 q 238 1040 281 1040 q 165 1010 194 1040 q 135 936 135 979 z "},"k":{"ha":993,"x_min":40,"x_max":957,"o":"m 654 549 q 662 599 654 582 q 685 622 669 615 q 726 630 701 629 q 783 631 750 631 l 783 693 l 524 693 q 523 565 524 607 q 504 514 522 524 q 417 478 464 503 q 325 413 369 454 l 325 757 q 328 863 325 821 q 343 931 331 906 q 381 968 356 957 q 453 979 407 979 l 453 1042 l 40 1042 l 40 979 q 106 968 82 979 q 144 931 131 957 q 163 863 158 906 q 167 757 167 821 l 167 285 q 165 178 167 221 q 151 110 163 136 q 113 74 139 85 q 42 63 88 63 l 42 0 l 453 0 l 453 63 l 439 63 q 378 72 401 63 q 344 103 356 81 q 330 161 333 125 q 326 250 326 197 q 363 338 333 300 q 432 402 393 376 q 510 441 471 428 q 578 454 550 454 q 654 439 615 454 q 725 390 693 424 q 778 306 757 357 q 799 182 799 254 q 792 14 799 82 q 767 -103 785 -54 q 719 -187 749 -151 q 647 -258 690 -224 l 668 -283 q 881 -130 804 -229 q 957 138 957 -31 q 878 389 957 289 q 654 517 799 489 q 654 533 657 525 q 654 549 651 540 z "},"l":{"ha":479,"x_min":39,"x_max":450,"o":"m 450 63 l 436 63 q 372 74 394 63 q 339 110 350 85 q 326 178 328 136 q 324 285 324 221 l 324 1043 l 164 1043 l 164 285 q 162 178 164 221 q 148 110 160 136 q 110 74 136 85 q 39 63 85 63 l 39 0 l 450 0 l 450 63 z "},"m":{"ha":1478,"x_min":0,"x_max":1472,"o":"m 1186 372 l 1186 285 q 1184 178 1186 221 q 1170 110 1182 136 q 1133 74 1158 85 q 1061 63 1107 63 l 1061 0 l 1472 0 l 1472 61 l 1458 63 q 1394 74 1417 63 q 1361 110 1372 85 q 1348 178 1350 136 q 1346 285 1346 221 l 1346 329 q 1327 481 1346 414 q 1267 596 1308 549 q 1161 669 1226 643 q 1003 694 1096 694 q 849 667 915 694 q 739 589 783 640 q 633 663 699 638 q 474 689 568 689 q 216 591 306 689 q 126 324 126 493 l 126 279 q 124 173 126 215 q 111 105 122 131 q 78 68 100 79 q 14 57 56 57 l 0 57 l 0 -6 l 411 -6 l 411 57 q 340 68 365 57 q 302 105 314 79 q 288 173 290 131 q 286 279 286 215 l 286 367 q 300 483 286 436 q 340 558 314 531 q 401 597 365 586 q 481 607 438 608 q 556 597 524 608 q 611 557 589 585 q 645 483 633 529 q 657 369 657 438 l 656 250 l 657 250 q 653 158 657 196 q 638 99 650 121 q 600 67 625 76 q 532 57 575 57 l 532 -6 l 943 -6 l 943 53 l 929 57 q 865 68 888 57 q 832 105 843 79 q 819 173 821 131 q 817 279 817 215 q 817 343 817 325 q 815 372 817 361 q 829 489 815 442 q 869 564 843 536 q 931 603 894 592 q 1010 613 967 614 q 1086 602 1053 614 q 1142 563 1119 590 q 1175 488 1164 535 q 1186 372 1186 442 z "},"n":{"ha":1014,"x_min":35,"x_max":978,"o":"m 692 367 l 692 279 q 690 173 692 215 q 676 105 688 131 q 638 68 664 79 q 567 57 613 57 l 567 -6 l 978 -6 l 978 53 l 964 57 q 900 68 922 57 q 867 105 878 79 q 853 173 856 131 q 851 279 851 215 l 851 324 q 833 476 851 408 q 773 590 814 543 q 667 663 732 638 q 508 689 601 689 q 251 591 340 689 q 161 324 161 493 l 161 279 q 159 173 161 215 q 146 105 157 131 q 113 68 135 79 q 49 57 90 57 l 35 57 l 35 -6 l 446 -6 l 446 57 q 374 68 400 57 q 337 105 349 79 q 323 173 325 131 q 321 279 321 215 l 321 367 q 335 483 321 436 q 374 558 349 531 q 436 597 400 586 q 515 607 472 608 q 592 597 558 608 q 647 557 625 585 q 681 483 669 529 q 692 367 692 436 z "},"o":{"ha":801,"x_min":44,"x_max":753,"o":"m 406 693 q 242 664 310 693 q 131 587 174 635 q 67 476 88 539 q 44 346 46 414 q 68 214 47 276 q 132 103 89 151 q 242 28 175 56 q 406 0 310 0 q 562 28 497 0 q 668 102 626 56 q 730 212 710 149 q 753 346 750 275 q 729 476 750 414 q 667 587 708 539 q 561 664 625 635 q 406 693 497 693 m 204 322 l 204 371 q 218 487 204 440 q 258 561 232 533 q 319 601 283 589 q 399 611 356 613 q 478 601 442 613 q 540 563 514 590 q 579 488 565 535 q 593 371 593 440 l 593 322 q 579 206 593 253 q 540 131 565 158 q 478 92 514 103 q 399 82 442 81 q 319 92 356 81 q 258 132 283 104 q 218 206 232 160 q 204 322 204 253 z "},"p":{"ha":801,"x_min":-79,"x_max":753,"o":"m -79 -218 l -79 -281 l 328 -281 l 328 -218 l 314 -218 q 251 -207 272 -218 q 219 -170 229 -196 q 207 -102 208 -144 q 206 4 206 -60 l 207 39 q 295 10 247 19 q 406 0 343 0 q 561 24 497 0 q 667 92 625 47 q 729 201 708 138 q 753 346 750 265 q 729 490 750 426 q 667 599 708 554 q 561 669 625 644 q 406 693 497 693 q 242 669 310 693 q 133 599 175 644 q 69 490 90 554 q 46 346 49 426 q 46 335 46 343 q 46 293 46 326 q 46 193 46 261 q 46 4 46 126 q 44 -102 46 -60 q 30 -170 42 -144 q -8 -207 18 -196 q -79 -218 -33 -218 m 204 322 l 204 371 q 218 487 204 440 q 258 561 232 533 q 319 601 283 589 q 399 611 356 613 q 478 601 442 613 q 540 563 514 590 q 579 488 565 535 q 593 371 593 440 l 593 322 q 579 206 593 253 q 540 131 565 158 q 478 92 514 103 q 399 82 442 81 q 319 92 356 81 q 258 132 283 104 q 218 206 232 160 q 204 322 204 253 z "},"q":{"ha":896,"x_min":61,"x_max":865,"o":"m 840 -276 l 840 -214 l 838 -214 q 777 -212 800 -214 q 742 -206 754 -211 q 727 -188 731 -200 q 725 -156 724 -176 q 713 -100 722 -124 q 688 -58 704 -76 q 647 -24 671 -40 q 590 10 624 -8 q 789 124 718 38 q 865 343 860 210 q 756 597 858 504 q 469 690 653 690 q 172 597 276 690 q 61 343 67 504 q 80 217 61 279 q 138 106 99 154 q 240 27 178 57 q 392 0 303 -3 q 504 -33 456 -7 q 564 -122 553 -58 q 556 -174 561 -156 q 536 -201 550 -192 q 499 -212 522 -210 q 440 -214 476 -214 l 440 -276 l 840 -276 m 221 368 q 242 484 221 438 q 299 558 264 531 q 376 598 333 586 q 463 608 419 610 q 549 599 506 610 q 628 560 593 588 q 684 485 663 532 q 706 368 706 438 l 706 319 q 684 203 706 250 q 628 128 663 156 q 549 89 593 100 q 463 79 506 78 q 379 88 421 78 q 303 124 338 99 q 247 192 269 150 q 221 299 224 235 l 221 368 z "},"r":{"ha":619,"x_min":15,"x_max":613,"o":"m 550 694 q 247 597 351 694 q 142 329 142 499 l 142 285 q 140 178 142 221 q 126 110 138 136 q 93 74 115 85 q 29 63 71 63 l 15 58 l 15 0 l 426 0 l 426 63 q 355 74 381 63 q 317 110 329 85 q 303 178 306 136 q 301 285 301 221 l 301 385 q 323 501 301 454 q 379 575 344 547 q 457 615 414 603 q 543 625 500 626 q 578 624 560 625 q 613 621 596 624 l 613 693 q 581 694 597 694 q 550 694 565 694 z "},"s":{"ha":583,"x_min":33,"x_max":547,"o":"m 261 61 q 192 74 221 61 q 144 105 164 86 q 113 146 125 124 q 93 189 101 168 l 33 189 l 57 1 q 171 -3 118 1 q 276 -10 224 -8 q 372 2 324 -10 q 460 39 421 14 q 523 103 499 64 q 547 197 547 143 q 528 280 547 246 q 477 338 508 314 q 407 380 446 363 q 329 413 368 397 q 270 437 299 425 q 219 464 242 449 q 184 497 197 479 q 171 540 171 515 q 183 581 171 564 q 215 610 196 599 q 260 628 235 622 q 313 635 286 635 q 392 624 364 636 q 433 591 419 611 q 452 547 447 571 q 465 503 457 524 l 533 503 q 529 543 529 526 q 530 576 529 560 q 531 607 531 592 q 526 644 531 624 q 475 673 499 661 q 425 692 451 685 q 368 701 399 699 q 299 704 338 704 q 203 692 249 704 q 122 655 157 679 q 65 596 86 631 q 44 518 44 561 q 64 431 44 467 q 115 372 83 396 q 185 331 146 347 q 264 300 224 314 q 322 278 294 289 q 372 252 350 267 q 406 219 393 238 q 419 175 419 200 q 407 126 419 147 q 372 91 394 106 q 322 69 350 76 q 261 61 293 61 z "},"t":{"ha":535,"x_min":24,"x_max":510,"o":"m 510 694 l 349 694 l 349 1043 l 189 1043 l 189 694 l 24 694 l 24 614 l 189 614 l 189 285 q 187 178 189 221 q 173 110 185 136 q 135 74 161 85 q 64 63 110 63 l 64 0 l 475 0 l 475 63 q 403 74 429 63 q 365 110 378 85 q 351 178 353 136 q 349 285 349 221 l 349 614 l 510 614 l 510 694 z "},"u":{"ha":1007,"x_min":29,"x_max":972,"o":"m 315 322 l 315 410 q 317 516 315 474 q 331 584 319 558 q 369 621 343 610 q 440 632 394 632 l 440 694 l 29 694 l 29 636 l 43 632 q 107 621 85 632 q 140 584 129 610 q 153 516 151 558 q 156 410 156 474 l 156 365 q 176 213 156 281 q 240 99 197 146 q 350 26 283 51 q 510 0 417 0 q 761 98 676 0 q 846 365 846 196 l 846 410 q 848 516 846 474 q 861 584 850 558 q 894 621 872 610 q 958 632 917 632 l 972 632 l 972 694 l 561 694 l 561 632 q 633 621 607 632 q 670 584 658 610 q 684 516 682 558 q 686 410 686 474 l 686 322 q 674 206 686 253 q 638 131 661 158 q 580 92 614 103 q 503 82 546 81 q 425 92 460 81 q 366 132 390 104 q 328 206 342 160 q 315 322 315 253 z "},"v":{"ha":792,"x_min":3,"x_max":789,"o":"m 425 -1 l 601 415 q 649 522 628 481 q 692 587 671 563 q 735 622 713 611 q 789 635 758 632 l 789 692 l 482 692 l 482 633 q 536 633 518 633 q 563 630 556 633 q 572 621 571 626 q 574 606 574 615 l 414 222 q 331 421 361 350 q 286 528 301 492 q 267 578 271 565 q 263 601 263 590 q 318 633 263 633 l 360 633 l 360 692 l 3 692 l 3 635 q 58 619 35 632 q 103 581 82 607 q 144 514 124 554 q 188 415 164 474 l 365 -1 l 425 -1 z "},"w":{"ha":1526,"x_min":35,"x_max":1507,"o":"m 321 317 l 321 408 q 323 515 321 472 q 337 583 325 557 q 374 619 349 608 q 446 631 400 631 l 446 693 l 35 693 l 35 632 l 49 631 q 113 619 90 631 q 146 583 135 608 q 159 515 157 557 q 161 408 161 472 l 161 360 q 180 208 161 275 q 240 93 199 140 q 346 20 281 46 q 504 -6 411 -6 q 658 22 592 -6 q 768 100 724 49 q 874 26 808 51 q 1033 0 939 0 q 1291 98 1201 0 q 1381 365 1381 196 l 1381 410 q 1383 516 1381 474 q 1396 584 1385 558 q 1429 621 1407 610 q 1493 632 1451 632 l 1507 632 l 1507 694 l 1096 694 l 1096 632 q 1167 621 1142 632 q 1205 584 1193 610 q 1219 516 1217 558 q 1221 410 1221 474 l 1221 322 q 1207 206 1221 253 q 1167 131 1193 158 q 1106 92 1142 103 q 1026 82 1069 81 q 896 131 940 79 q 850 319 851 183 l 850 439 l 849 439 q 853 531 849 493 q 869 590 857 568 q 907 622 882 613 q 975 632 932 632 l 975 694 l 564 694 l 564 632 l 578 632 q 642 621 619 632 q 675 584 664 610 q 688 516 686 558 q 690 410 690 474 q 690 346 690 364 q 692 317 690 328 q 678 200 692 247 q 638 125 664 153 q 576 86 613 97 q 497 76 540 75 q 421 87 454 75 q 365 126 388 99 q 332 201 343 154 q 321 317 321 247 z "},"x":{"ha":836,"x_min":46,"x_max":810,"o":"m 810 67 l 781 67 q 745 70 758 67 q 724 84 732 74 q 715 112 717 94 q 713 157 713 129 q 601 350 713 290 q 711 531 704 406 q 713 582 711 563 q 721 613 714 601 q 741 627 728 624 q 779 631 754 631 l 806 631 l 806 697 l 471 697 l 471 631 q 523 627 504 631 q 551 613 542 624 q 561 580 560 601 q 563 522 563 558 q 550 466 563 489 q 518 428 538 443 q 476 408 499 414 q 432 401 453 401 q 383 410 407 403 q 338 431 358 417 q 306 467 318 444 q 293 522 293 489 q 294 580 293 558 q 305 613 296 601 q 333 627 314 624 q 388 631 351 631 l 388 697 l 47 697 l 47 631 l 72 631 q 111 627 97 631 q 132 613 125 624 q 140 582 139 601 q 142 531 142 563 q 251 350 149 406 q 140 157 140 290 q 138 112 140 129 q 128 84 136 94 q 108 70 121 74 q 72 67 94 67 l 46 67 l 46 0 l 390 0 l 392 67 q 338 70 357 67 q 309 85 318 74 q 299 117 300 96 q 297 175 297 139 q 309 226 297 203 q 341 265 321 249 q 385 291 361 282 q 435 303 410 300 q 482 292 458 300 q 525 269 506 285 q 556 231 544 254 q 568 175 568 208 q 567 117 568 139 q 556 85 565 96 q 528 70 547 74 q 475 67 510 67 l 475 0 l 810 0 l 810 67 z "},"y":{"ha":1007,"x_min":26,"x_max":969,"o":"m 863 -272 l 863 -210 l 860 -210 q 799 -208 822 -210 q 765 -201 776 -207 q 749 -184 753 -196 q 747 -151 746 -172 q 735 -96 744 -119 q 710 -54 726 -72 q 669 -20 693 -36 q 614 13 646 -4 q 649 23 632 19 q 682 38 665 26 q 803 164 763 81 q 843 365 843 247 l 843 410 q 845 516 843 474 q 858 584 847 558 q 892 621 869 610 q 956 632 914 632 l 969 632 l 969 694 l 558 694 l 558 632 q 630 621 604 632 q 667 584 656 610 q 681 516 679 558 q 683 410 683 474 l 683 322 q 671 206 683 253 q 635 131 658 158 q 577 92 611 103 q 500 82 543 81 q 422 92 457 81 q 363 132 388 104 q 326 206 339 160 q 313 322 313 253 l 313 410 q 315 516 313 474 q 328 584 317 558 q 366 621 340 610 q 438 632 392 632 l 438 694 l 26 694 l 26 636 l 40 632 q 104 621 82 632 q 138 584 126 610 q 151 516 149 558 q 153 410 153 474 l 153 365 q 210 131 153 224 q 394 11 268 39 q 458 -3 426 4 q 517 -24 490 -10 q 563 -60 544 -37 q 586 -118 581 -82 q 578 -169 583 -151 q 558 -197 572 -187 q 522 -208 544 -206 q 463 -210 499 -210 l 463 -272 l 863 -272 z "},"z":{"ha":760,"x_min":40,"x_max":724,"o":"m 82 486 l 144 485 q 145 542 144 518 q 153 583 146 567 q 178 606 161 599 q 228 614 194 614 l 518 615 q 413 486 468 553 q 306 356 358 419 q 205 235 253 292 q 121 135 157 178 q 63 68 85 93 q 40 43 40 43 l 56 0 q 305 1 201 0 q 479 1 408 1 q 592 1 550 1 q 660 1 635 1 q 699 1 686 1 q 724 1 713 1 l 724 210 l 661 210 q 660 152 661 176 q 653 112 660 128 q 629 88 646 96 q 579 81 613 81 l 264 81 q 563 453 451 322 q 718 629 674 585 l 718 694 l 82 694 l 82 486 z "},"{":{"ha":625,"x_min":47,"x_max":600,"o":"m 269 276 l 269 251 q 267 150 269 188 q 253 93 265 113 q 216 68 242 74 q 144 63 190 63 l 144 0 l 594 0 l 594 63 l 542 63 q 482 69 504 63 q 448 93 460 75 q 433 142 436 111 q 429 222 429 172 q 386 408 429 331 q 260 522 343 485 q 382 630 339 558 q 428 803 425 701 q 431 893 428 858 q 444 947 433 928 q 478 973 456 967 q 540 979 500 979 l 600 979 l 600 1042 l 143 1042 l 143 979 q 215 974 189 979 q 252 949 240 968 q 266 892 264 929 q 268 790 268 854 l 268 769 q 253 673 268 711 q 212 611 238 635 q 152 577 186 588 q 82 564 118 567 l 47 564 l 47 482 q 68 482 63 482 q 76 482 75 482 q 79 482 79 482 q 82 482 79 482 q 152 469 118 479 q 212 435 186 458 q 253 373 238 411 q 269 276 269 335 z "},"|":{"ha":263,"x_min":69,"x_max":193,"o":"m 193 -158 l 193 1231 l 69 1231 l 69 -158 l 193 -158 z "},"}":{"ha":618,"x_min":33,"x_max":586,"o":"m 364 276 q 379 373 364 335 q 421 435 394 411 q 481 469 447 458 q 551 482 515 479 q 554 482 554 482 q 556 482 554 482 q 564 482 558 482 q 586 482 571 482 l 586 564 l 551 564 q 481 577 515 567 q 422 611 447 588 q 381 673 396 635 q 365 769 365 711 l 365 790 q 367 892 365 854 q 381 949 369 929 q 419 974 393 968 q 490 979 444 979 l 490 1042 l 33 1042 l 33 979 l 93 979 q 155 973 132 979 q 189 947 178 967 q 203 893 200 928 q 206 803 206 858 q 251 630 208 701 q 374 522 294 558 q 247 408 290 485 q 204 222 204 331 q 201 142 204 172 q 185 93 197 111 q 151 69 174 75 q 92 63 129 63 l 38 63 l 38 0 l 489 0 l 489 63 q 417 68 443 63 q 380 93 392 74 q 366 150 368 113 q 364 251 364 188 l 364 276 z "},"~":{"ha":615,"x_min":28,"x_max":593,"o":"m 593 825 l 568 846 q 512 810 544 826 q 447 793 479 793 q 401 801 426 793 q 340 824 375 808 q 225 857 274 857 q 28 715 88 857 q 45 709 38 707 q 61 699 53 711 q 118 745 86 732 q 178 758 150 758 q 232 749 201 758 q 303 725 263 740 q 428 690 381 690 q 593 825 529 690 z "},"‚":{"ha":190,"x_min":-22,"x_max":193,"o":"m 193 140 l 71 140 l -22 -139 l 17 -139 l 193 140 z "},"ƒ":{"ha":526,"x_min":-115,"x_max":526,"o":"m 29 526 l 29 422 l 126 422 l 126 43 q 105 -72 126 -26 q 49 -147 83 -118 q -28 -186 15 -175 q -114 -197 -71 -197 l -115 -197 l -115 -278 l -114 -278 q 183 -179 81 -276 q 286 86 286 -82 l 286 422 l 376 422 l 376 526 l 286 526 l 286 722 q 308 837 286 790 q 363 912 329 883 q 440 951 397 940 q 526 963 483 963 l 526 1043 q 229 944 332 1042 q 126 679 126 847 l 126 526 l 29 526 z "},"„":{"ha":381,"x_min":-18,"x_max":385,"o":"m 385 139 l 263 139 l 153 -140 l 192 -140 l 385 139 m 197 139 l 75 139 l -18 -140 l 21 -140 l 197 139 z "},"…":{"ha":746,"x_min":35,"x_max":717,"o":"m 118 160 q 55 135 74 160 q 35 79 36 111 q 55 24 36 47 q 118 0 74 0 q 178 24 160 0 q 199 79 196 47 q 178 135 196 111 q 118 160 160 160 m 382 160 q 319 135 338 160 q 299 79 300 111 q 319 24 300 47 q 382 0 338 0 q 442 24 424 0 q 463 79 460 47 q 442 135 460 111 q 382 160 424 160 m 636 163 q 573 138 592 163 q 553 82 554 114 q 573 26 554 50 q 636 3 592 3 q 696 26 678 3 q 717 82 714 50 q 696 138 714 114 q 636 163 678 163 z "},"†":{"ha":768,"x_min":39,"x_max":733,"o":"m 589 979 l 589 1042 l 178 1042 l 178 979 l 192 979 q 250 974 228 979 q 284 944 272 969 q 300 868 296 919 q 304 724 304 817 q 207 726 246 724 q 144 739 168 728 q 111 775 121 750 q 101 844 101 800 l 39 844 l 39 433 l 101 433 l 101 447 q 111 509 101 486 q 144 544 121 532 q 207 560 168 556 q 304 564 246 564 l 304 285 q 302 178 304 221 q 288 110 300 136 q 251 74 276 85 q 179 63 225 63 l 179 0 l 590 0 l 590 63 l 576 63 q 513 74 535 63 q 479 110 490 85 q 466 178 468 136 q 464 285 464 221 l 464 564 q 562 560 522 564 q 626 544 601 557 q 660 505 650 531 q 671 435 671 479 l 733 435 l 733 846 l 671 846 l 671 832 q 660 770 671 792 q 626 738 650 749 q 562 726 601 728 q 464 724 522 724 q 468 874 464 822 q 485 950 472 926 q 523 976 499 974 q 589 979 547 979 z "},"‡":{"ha":764,"x_min":36,"x_max":731,"o":"m 586 979 l 586 1042 l 175 1042 l 175 979 l 189 979 q 247 971 225 979 q 280 943 268 963 q 296 892 292 924 q 301 813 300 860 q 204 815 243 813 q 142 831 165 818 q 108 868 118 843 q 99 938 99 893 l 36 938 l 36 124 l 97 124 l 97 138 q 108 199 97 176 q 142 233 118 222 q 204 247 165 244 q 301 250 243 250 q 297 161 301 197 q 281 103 293 125 q 244 72 268 81 q 176 63 219 63 l 176 0 l 588 0 l 588 63 l 574 63 q 513 72 536 63 q 479 103 490 81 q 465 161 468 125 q 461 250 461 197 q 559 247 519 250 q 622 232 599 244 q 656 194 646 219 q 667 125 667 169 l 729 125 l 731 939 l 668 939 l 668 925 q 658 863 668 885 q 623 829 647 840 q 559 815 599 818 q 461 813 519 813 q 465 892 461 860 q 483 943 469 924 q 520 971 496 963 q 586 979 544 979 m 461 653 q 558 650 518 653 q 621 636 597 647 q 656 601 644 625 q 667 536 667 578 q 656 466 667 492 q 622 428 646 440 q 559 413 599 415 q 461 410 519 410 l 461 653 m 301 653 l 301 410 q 206 413 244 410 q 144 428 168 415 q 109 467 119 440 q 99 540 99 493 q 108 601 99 579 q 142 635 118 624 q 204 649 165 646 q 301 653 243 653 z "},"ˆ":{"ha":696,"x_min":146,"x_max":550,"o":"m 550 1132 l 346 1386 l 146 1135 l 156 1111 l 349 1228 l 540 1108 l 550 1132 z "},"‰":{"ha":1757,"x_min":38,"x_max":1715,"o":"m 528 769 q 511 862 528 814 q 464 950 494 910 q 388 1016 433 990 q 286 1042 343 1042 q 180 1017 226 1042 q 102 953 133 992 q 54 865 71 914 q 38 769 38 817 l 38 700 q 54 603 38 654 q 102 510 71 553 q 180 438 133 467 q 286 410 226 410 q 388 438 343 410 q 465 510 433 467 q 512 603 496 553 q 528 700 528 654 l 528 769 m 1156 356 q 1139 448 1156 400 q 1092 536 1122 496 q 1016 602 1061 576 q 914 628 971 628 q 808 603 854 628 q 730 539 761 578 q 682 451 699 500 q 665 356 665 403 l 665 286 q 682 190 665 240 q 730 96 699 139 q 808 24 761 53 q 914 -4 854 -4 q 1016 24 971 -4 q 1092 96 1061 53 q 1140 190 1124 139 q 1156 286 1156 240 l 1156 356 m 1715 356 q 1699 448 1715 400 q 1651 536 1682 496 q 1576 602 1621 576 q 1474 628 1531 628 q 1367 603 1414 628 q 1290 539 1321 578 q 1242 451 1258 500 q 1225 356 1225 403 l 1225 286 q 1242 190 1225 240 q 1290 96 1258 139 q 1367 24 1321 53 q 1474 -4 1414 -4 q 1576 24 1531 -4 q 1652 96 1621 53 q 1699 190 1683 139 q 1715 286 1715 240 l 1715 356 m 1335 274 l 1335 365 q 1347 439 1335 403 q 1377 503 1358 475 q 1421 548 1396 531 q 1471 565 1446 565 q 1520 547 1496 565 q 1563 501 1544 529 q 1594 437 1582 472 q 1606 365 1606 401 l 1606 274 q 1594 201 1606 239 q 1563 133 1582 164 q 1519 81 1544 101 q 1468 60 1494 60 q 1421 78 1443 60 q 1381 128 1399 97 q 1350 197 1363 158 q 1335 274 1338 235 m 775 274 l 775 365 q 787 439 775 403 q 817 503 799 475 q 861 548 836 531 q 911 565 886 565 q 960 547 936 565 q 1003 501 985 529 q 1034 437 1022 472 q 1046 365 1046 401 l 1046 274 q 1034 201 1046 239 q 1003 133 1022 164 q 960 81 985 101 q 908 60 935 60 q 861 78 883 60 q 821 128 839 97 q 790 197 803 158 q 775 274 778 235 m 147 688 l 147 779 q 159 853 147 817 q 190 917 171 889 q 233 962 208 944 q 283 979 258 979 q 333 961 308 979 q 376 915 357 943 q 406 851 394 886 q 418 779 418 815 l 418 688 q 406 615 418 653 q 376 547 394 578 q 332 494 357 515 q 281 474 307 474 q 233 492 256 474 q 193 542 211 511 q 163 610 175 572 q 147 688 150 649 m 815 1043 q 792 998 815 1043 q 731 880 768 953 q 644 713 693 807 q 545 522 596 619 q 446 330 494 424 q 360 163 397 236 q 299 45 322 90 q 278 0 276 0 l 349 0 q 376 45 350 0 q 442 163 401 90 q 536 330 483 236 q 644 522 589 424 q 751 713 699 619 q 845 880 804 807 q 911 998 886 953 q 936 1043 936 1043 l 815 1043 z "},"Š":{"ha":808,"x_min":43,"x_max":772,"o":"m 46 771 q 97 623 43 692 q 263 514 151 554 l 482 435 q 544 397 519 421 q 583 345 568 372 q 604 290 597 318 q 611 243 611 263 q 597 165 613 196 q 555 117 582 135 q 491 92 528 100 q 413 85 454 85 q 317 95 363 89 q 237 115 272 101 q 181 149 201 128 q 161 206 161 171 l 163 324 l 96 324 q 89 264 93 297 q 80 196 85 231 q 70 128 75 161 q 60 68 65 94 q 245 19 153 39 q 433 -1 338 -1 q 563 17 503 -1 q 669 72 624 36 q 741 157 714 107 q 771 271 768 207 q 763 348 772 308 q 732 424 754 388 q 674 493 710 461 q 589 546 639 525 l 383 632 q 311 667 346 647 q 251 709 276 686 q 209 756 225 732 q 193 803 193 779 q 208 869 192 840 q 253 917 225 897 q 319 946 282 936 q 397 958 357 956 q 479 948 435 956 q 561 926 524 940 q 624 888 599 911 q 650 833 650 865 l 647 715 l 714 714 q 722 774 718 740 q 731 842 726 807 q 741 910 736 876 q 751 969 746 943 q 563 1023 653 1007 q 367 1039 474 1039 q 130 969 213 1029 q 46 771 47 908 m 618 1346 l 608 1369 l 417 1250 l 224 1367 l 214 1343 l 414 1092 l 618 1346 z "},"‹":{"ha":351,"x_min":47,"x_max":317,"o":"m 93 268 q 231 107 181 168 q 289 46 282 46 q 306 50 296 46 q 313 64 317 54 q 283 121 303 85 q 245 197 264 157 q 212 275 226 236 q 197 342 197 314 q 209 375 197 342 q 239 455 221 408 q 277 550 257 501 q 313 628 297 599 q 306 638 315 635 q 289 642 296 642 q 263 616 286 642 q 209 553 240 590 q 143 474 178 515 q 82 403 108 433 q 53 364 58 375 q 47 343 47 353 q 55 317 47 333 q 93 268 63 301 z "},"Œ":{"ha":1299,"x_min":57,"x_max":1268,"o":"m 1267 78 l 974 78 q 888 89 931 78 q 810 128 844 100 q 755 203 776 157 q 733 318 733 249 l 733 525 l 1113 525 l 1113 589 l 733 589 l 733 757 q 735 854 733 814 q 745 920 736 894 q 773 960 754 946 q 825 978 792 974 l 1268 978 l 1268 1042 q 941 1042 1075 1042 q 719 1043 807 1043 q 582 1043 632 1043 q 508 1043 533 1043 q 476 1043 483 1043 q 465 1043 469 1043 q 162 945 267 1043 q 57 678 57 847 l 57 365 q 162 98 57 196 q 465 0 267 0 q 715 65 618 0 q 974 -3 815 -1 l 1267 -3 l 1267 78 m 458 82 q 372 92 415 81 q 294 132 329 104 q 238 206 260 160 q 217 322 217 253 l 217 721 q 238 837 217 790 q 294 911 260 883 q 372 951 329 939 q 458 961 415 963 q 503 959 481 961 q 547 950 525 957 q 564 934 558 950 q 572 892 569 918 q 574 829 574 865 q 574 757 574 794 l 574 361 q 636 142 574 229 q 553 93 600 107 q 458 82 506 79 z "},"‘":{"ha":211,"x_min":0,"x_max":215,"o":"m 0 1042 l 176 763 l 215 763 l 122 1042 l 0 1042 z "},"’":{"ha":211,"x_min":-1,"x_max":214,"o":"m 214 1042 l 92 1042 l -1 763 l 38 763 l 214 1042 z "},"“":{"ha":418,"x_min":19,"x_max":422,"o":"m 19 1042 l 213 763 l 251 763 l 142 1042 l 19 1042 m 207 1042 l 383 763 l 422 763 l 329 1042 l 207 1042 z "},"”":{"ha":418,"x_min":19,"x_max":422,"o":"m 422 1042 l 300 1042 l 190 763 l 229 763 l 422 1042 m 235 1042 l 113 1042 l 19 763 l 58 763 l 235 1042 z "},"•":{"ha":503,"x_min":38,"x_max":467,"o":"m 38 482 q 54 399 38 438 q 100 331 71 360 q 168 285 129 301 q 251 268 207 268 q 335 285 296 268 q 404 331 375 301 q 450 399 433 360 q 467 482 467 438 q 450 565 467 526 q 404 633 433 604 q 335 679 375 663 q 251 696 296 696 q 168 679 207 696 q 100 633 129 663 q 54 565 71 604 q 38 482 38 526 z "},"–":{"ha":554,"x_min":-1,"x_max":556,"o":"m -1 486 l -1 382 l 556 382 l 556 486 l -1 486 z "},"—":{"ha":767,"x_min":-1,"x_max":767,"o":"m -1 486 l -1 382 l 767 382 l 767 486 l -1 486 z "},"˜":{"ha":813,"x_min":196,"x_max":653,"o":"m 653 1282 l 632 1306 q 588 1266 614 1285 q 535 1247 561 1247 q 497 1256 518 1247 q 449 1282 476 1265 q 356 1317 396 1317 q 196 1164 243 1317 q 203 1159 200 1160 q 210 1158 207 1158 q 216 1155 213 1157 q 222 1146 219 1153 q 269 1197 243 1182 q 317 1211 294 1211 q 361 1201 336 1211 q 418 1174 386 1192 q 519 1138 481 1138 q 653 1282 600 1138 z "},"™":{"ha":1196,"x_min":10,"x_max":1181,"o":"m 981 638 l 981 571 q 979 515 981 538 q 971 478 978 492 q 949 458 964 464 q 907 453 935 453 l 907 394 l 1181 394 l 1181 449 q 1139 452 1154 446 q 1116 474 1124 458 q 1106 513 1108 489 q 1104 571 1104 538 l 1104 613 q 1054 782 1104 719 q 885 844 1004 844 q 796 830 836 844 q 728 788 756 815 q 660 827 700 813 q 568 842 621 842 q 404 779 461 842 q 347 608 347 717 l 347 582 q 340 488 347 514 q 293 463 332 463 q 258 469 271 463 q 240 489 246 475 q 233 526 235 503 q 232 582 232 549 l 232 765 l 329 765 l 329 842 l 232 842 l 232 1039 l 108 1039 l 108 842 l 10 842 l 10 765 l 108 765 l 108 582 q 107 526 108 549 q 99 489 106 503 q 76 469 92 475 q 33 463 61 463 l 33 397 l 544 397 l 544 463 q 501 469 517 463 q 479 489 486 475 q 471 526 472 503 q 469 582 469 549 l 469 635 q 498 735 469 707 q 579 764 526 764 q 642 735 621 764 q 664 636 664 707 l 664 564 q 662 517 664 536 q 652 485 660 497 q 630 468 644 474 q 589 463 615 463 l 589 397 l 864 397 l 864 457 q 817 462 833 456 q 795 484 801 468 q 788 524 789 500 q 788 582 788 549 l 788 638 q 815 739 788 710 q 893 768 843 768 q 959 740 938 768 q 981 638 981 711 z "},"š":{"ha":583,"x_min":33,"x_max":547,"o":"m 261 61 q 192 74 221 61 q 144 105 164 86 q 113 146 125 124 q 93 189 101 168 l 33 189 l 57 1 q 171 -3 118 1 q 276 -10 224 -8 q 372 2 324 -10 q 460 39 421 14 q 523 103 499 64 q 547 197 547 143 q 528 280 547 246 q 477 338 508 314 q 407 380 446 363 q 329 413 368 397 q 270 437 299 425 q 219 464 242 449 q 184 497 197 479 q 171 540 171 515 q 183 581 171 564 q 215 610 196 599 q 260 628 235 622 q 313 635 286 635 q 392 624 364 636 q 433 591 419 611 q 452 547 447 571 q 465 503 457 524 l 533 503 q 529 543 529 526 q 530 576 529 560 q 531 607 531 592 q 526 644 531 624 q 475 673 499 661 q 425 692 451 685 q 368 701 399 699 q 299 704 338 704 q 203 692 249 704 q 122 655 157 679 q 65 596 86 631 q 44 518 44 561 q 64 431 44 467 q 115 372 83 396 q 185 331 146 347 q 264 300 224 314 q 322 278 294 289 q 372 252 350 267 q 406 219 393 238 q 419 175 419 200 q 407 126 419 147 q 372 91 394 106 q 322 69 350 76 q 261 61 293 61 m 504 1017 l 494 1040 l 303 921 l 110 1038 l 100 1014 l 300 763 l 504 1017 z "},"›":{"ha":339,"x_min":39,"x_max":308,"o":"m 263 279 q 301 328 293 313 q 308 354 308 344 q 303 375 308 364 q 274 414 297 386 q 213 485 247 444 q 147 564 178 526 q 92 627 115 601 q 67 653 69 653 q 50 649 60 653 q 43 639 40 646 q 78 561 58 610 q 116 466 99 513 q 146 386 133 419 q 158 353 158 353 q 144 286 158 325 q 110 208 129 247 q 72 132 92 168 q 43 75 53 96 q 49 61 39 65 q 67 57 60 57 q 124 118 74 57 q 263 279 175 179 z "},"œ":{"ha":1299,"x_min":44,"x_max":1271,"o":"m 1267 303 q 1267 324 1267 311 q 1268 344 1268 338 q 1247 474 1271 413 q 1179 583 1224 536 q 1072 656 1135 629 q 933 685 1010 683 q 791 651 856 682 q 682 567 726 619 q 574 659 642 625 q 406 693 506 693 q 242 664 310 693 q 131 587 174 635 q 67 476 88 539 q 44 346 46 414 q 68 214 47 276 q 132 103 89 151 q 242 28 175 56 q 406 0 310 0 q 572 32 504 0 q 681 118 640 64 q 794 32 728 63 q 944 1 861 1 q 1038 15 993 -1 q 1125 51 1082 32 l 1114 97 q 975 74 1026 74 q 871 96 913 74 q 803 151 829 118 q 766 225 778 185 q 750 303 754 265 l 1267 303 m 204 322 l 204 371 q 218 487 204 440 q 258 561 232 533 q 319 601 283 589 q 399 611 356 613 q 478 601 442 613 q 540 563 514 590 q 579 488 565 535 q 593 371 593 440 l 593 322 q 579 206 593 253 q 540 131 565 158 q 478 92 514 103 q 399 82 442 81 q 319 92 356 81 q 258 132 283 104 q 218 206 232 160 q 204 322 204 253 m 928 606 l 931 606 q 1056 554 1007 606 q 1115 389 1104 503 l 751 389 q 768 469 756 431 q 802 538 781 508 q 855 587 824 568 q 928 606 886 606 z "},"Ÿ":{"ha":1107,"x_min":26,"x_max":1083,"o":"m 313 679 l 313 758 q 315 865 313 822 q 328 933 317 907 q 366 969 340 958 q 438 981 392 981 l 438 1043 l 26 1043 l 26 981 l 40 981 q 104 969 82 981 q 138 933 126 958 q 151 865 149 907 q 153 758 153 822 l 153 722 q 236 476 153 571 q 478 361 319 382 l 478 285 q 476 178 478 221 q 462 110 474 136 q 424 74 450 85 q 353 63 399 63 l 353 0 l 764 0 l 764 63 l 750 63 q 686 74 708 63 q 653 110 664 85 q 640 178 642 136 q 638 285 638 221 l 638 361 q 874 476 790 381 q 957 722 957 571 l 957 760 q 959 866 957 824 q 972 933 961 908 q 1006 969 983 958 q 1069 979 1028 979 l 1083 979 l 1083 1042 l 672 1043 l 672 981 q 744 969 718 981 q 781 933 769 958 q 795 865 793 907 q 797 758 797 822 l 797 679 q 776 563 797 610 q 719 488 754 515 q 641 449 685 460 q 554 439 597 438 q 468 449 511 438 q 390 489 425 461 q 334 563 356 517 q 313 679 313 610 m 342 1226 q 367 1165 342 1189 q 428 1140 392 1140 q 490 1165 464 1140 q 515 1226 515 1189 q 490 1286 515 1261 q 428 1311 464 1311 q 367 1286 392 1311 q 342 1226 342 1261 m 603 1226 q 628 1165 603 1189 q 688 1140 653 1140 q 751 1165 725 1140 q 776 1226 776 1189 q 750 1286 776 1261 q 688 1311 724 1311 q 628 1286 654 1311 q 603 1226 603 1261 z "},"¡":{"ha":242,"x_min":36,"x_max":207,"o":"m 36 -281 l 207 -281 l 160 553 l 89 553 l 36 -281 m 121 601 q 184 626 165 601 q 204 682 203 650 q 184 738 203 714 q 121 761 165 761 q 61 738 79 761 q 40 682 43 714 q 61 626 43 650 q 121 601 79 601 z "},"¢":{"ha":724,"x_min":40,"x_max":686,"o":"m 444 0 l 444 160 q 526 171 492 164 q 587 187 560 178 q 638 206 614 196 q 686 228 661 217 l 683 272 q 483 244 572 235 q 331 288 394 253 q 231 374 268 324 q 189 472 194 425 q 194 604 179 550 q 239 692 208 658 q 310 744 269 726 q 396 768 351 763 q 464 761 436 768 q 513 739 492 754 q 550 700 533 724 q 586 644 567 676 q 645 691 625 678 q 674 708 665 704 q 683 710 683 711 q 679 715 682 710 q 624 785 664 747 q 506 847 583 822 q 475 853 490 850 q 444 857 460 856 l 444 1042 l 321 1042 l 321 853 q 206 809 258 840 q 117 732 154 778 q 60 628 81 686 q 40 503 40 569 q 60 376 40 435 q 118 274 81 318 q 207 200 156 229 q 321 163 258 171 l 321 0 l 444 0 z "},"£":{"ha":740,"x_min":19,"x_max":694,"o":"m 686 356 l 686 414 l 306 414 l 306 525 l 685 525 l 685 589 l 306 589 l 306 721 q 327 835 306 789 q 383 910 349 882 q 460 950 417 939 q 546 961 503 961 l 688 961 l 688 1042 l 546 1042 q 249 943 351 1040 q 146 678 146 846 l 146 586 l 22 586 l 22 528 l 146 528 l 146 414 l 19 414 l 19 356 l 146 356 l 146 282 q 144 176 146 218 q 131 108 142 133 q 97 71 119 82 q 33 60 75 60 l 19 56 l 19 -3 l 694 -3 l 694 61 l 397 61 q 345 78 364 65 q 317 118 326 92 q 307 185 308 144 q 306 282 306 225 l 306 356 l 686 356 z "},"¤":{"ha":899,"x_min":35,"x_max":867,"o":"m 651 389 l 651 447 l 221 447 q 219 469 219 458 q 218 490 218 479 l 218 554 l 218 558 l 715 558 l 715 622 l 224 621 q 325 867 244 781 q 532 953 406 953 q 712 893 638 953 q 825 696 786 833 l 867 696 q 851 806 854 753 q 846 901 847 860 q 844 966 844 942 q 835 990 843 990 q 761 999 801 990 q 678 1017 721 1007 q 593 1036 636 1028 q 511 1044 550 1044 q 320 1006 407 1044 q 169 897 233 967 q 70 728 106 826 q 35 513 35 631 q 57 338 35 421 q 124 188 79 256 q 233 73 168 121 q 385 6 299 25 q 508 -10 446 -10 q 590 -1 547 -10 q 676 17 633 7 q 758 36 718 28 q 832 44 799 44 q 841 69 840 44 q 843 134 842 93 q 848 228 844 175 q 864 339 851 282 l 822 339 q 709 142 783 201 q 529 82 635 82 q 502 81 522 78 q 459 88 482 83 q 417 100 436 93 q 392 114 397 107 q 288 221 329 150 q 229 389 246 292 l 651 389 z "},"¥":{"ha":1107,"x_min":26,"x_max":1083,"o":"m 954 164 l 954 222 l 638 222 l 638 332 l 953 331 l 953 397 l 767 397 q 908 523 858 440 q 957 722 957 606 l 957 760 q 959 866 957 824 q 972 933 961 908 q 1006 969 983 958 q 1069 979 1028 979 l 1083 979 l 1083 1042 l 672 1043 l 672 981 q 744 969 718 981 q 781 933 769 958 q 795 865 793 907 q 797 758 797 822 l 797 679 q 776 563 797 610 q 719 488 754 515 q 641 449 685 460 q 554 439 597 438 q 468 449 511 438 q 390 489 425 461 q 334 563 356 517 q 313 679 313 610 l 313 758 q 315 865 313 822 q 328 933 317 907 q 366 969 340 958 q 438 981 392 981 l 438 1043 l 26 1043 l 26 981 l 40 981 q 104 969 82 981 q 138 933 126 958 q 151 865 149 907 q 153 758 153 822 l 153 722 q 202 523 153 606 q 346 397 251 440 l 157 397 l 157 332 l 478 332 l 478 222 l 154 222 l 154 164 l 474 164 q 464 117 471 136 q 443 85 457 97 q 408 68 429 74 q 353 63 386 63 l 353 0 l 764 0 l 764 63 l 750 63 q 669 85 692 63 q 640 164 646 107 l 954 164 z "},"¦":{"ha":263,"x_min":69,"x_max":193,"o":"m 193 -158 l 193 449 l 69 449 l 69 -158 l 193 -158 m 193 1231 l 69 1231 l 69 657 l 193 657 l 193 1231 z "},"§":{"ha":732,"x_min":33,"x_max":703,"o":"m 261 -46 q 192 -33 221 -46 q 144 -2 164 -21 q 113 39 125 17 q 93 82 101 61 l 33 82 l 57 -106 q 171 -110 118 -106 q 276 -117 224 -115 q 372 -105 324 -117 q 460 -68 421 -93 q 523 -3 499 -43 q 547 90 547 36 q 532 160 547 129 q 597 185 567 169 q 651 226 628 201 q 689 282 675 250 q 703 354 703 314 q 683 437 703 403 q 633 495 664 471 q 563 537 601 519 q 485 569 524 554 q 426 594 454 582 q 375 621 397 606 q 340 654 353 636 q 326 697 326 672 q 339 738 326 721 q 371 767 351 756 q 416 785 390 779 q 468 792 442 792 q 547 781 519 793 q 589 748 575 768 q 608 704 603 728 q 621 660 613 681 l 689 660 q 685 700 685 683 q 685 733 685 717 q 686 764 686 749 q 682 801 686 781 q 631 830 654 818 q 581 849 607 842 q 524 858 554 856 q 454 861 493 861 q 358 849 404 861 q 277 812 313 836 q 221 753 242 788 q 200 675 200 718 q 208 626 200 647 q 228 590 215 606 q 156 567 189 582 q 97 528 122 551 q 58 476 72 506 q 44 411 44 447 q 64 324 44 360 q 115 265 83 289 q 185 224 146 240 q 264 193 224 207 q 322 171 294 182 q 372 145 350 160 q 406 112 393 131 q 419 68 419 93 q 407 19 419 40 q 372 -16 394 -1 q 322 -38 350 -31 q 261 -46 293 -46 m 329 306 q 289 326 310 317 q 249 344 268 335 l 249 346 l 247 346 q 193 383 215 363 q 171 433 171 404 q 183 474 171 457 q 215 503 196 492 q 260 522 235 515 q 313 528 286 528 q 326 528 319 528 q 340 526 333 528 q 400 509 369 517 q 458 492 431 501 q 547 426 519 469 q 575 332 575 383 q 547 263 575 290 q 476 225 519 236 q 406 267 444 249 q 329 306 367 286 z "},"¨":{"ha":826,"x_min":219,"x_max":654,"o":"m 219 1226 q 244 1165 219 1189 q 306 1140 269 1140 q 367 1165 342 1140 q 393 1226 393 1189 q 367 1286 393 1261 q 306 1311 342 1311 q 244 1286 269 1311 q 219 1226 219 1261 m 481 1226 q 506 1165 481 1189 q 565 1140 531 1140 q 628 1165 603 1140 q 654 1226 654 1189 q 628 1286 654 1261 q 565 1311 601 1311 q 506 1286 532 1311 q 481 1226 481 1261 z "},"©":{"ha":1151,"x_min":28,"x_max":1124,"o":"m 576 6 q 785 47 686 6 q 960 158 885 88 q 1079 326 1035 229 q 1124 533 1124 422 q 1079 740 1124 643 q 960 907 1035 836 q 785 1019 885 978 q 576 1060 686 1060 q 366 1019 465 1060 q 192 907 267 978 q 72 740 117 836 q 28 533 28 643 q 72 326 28 422 q 192 158 117 229 q 366 47 267 88 q 576 6 465 6 m 110 533 q 147 708 110 626 q 249 849 185 789 q 397 944 313 910 q 576 978 482 978 q 756 944 671 978 q 903 849 840 910 q 1004 708 967 789 q 1042 533 1042 626 q 1004 359 1042 440 q 903 217 967 278 q 756 122 840 157 q 576 88 671 88 q 397 122 482 88 q 249 217 313 157 q 147 359 185 278 q 110 533 110 440 m 576 792 q 644 785 617 792 q 693 763 672 778 q 731 724 714 747 q 767 668 747 700 q 826 715 806 701 q 855 731 846 728 q 863 734 864 735 q 860 739 863 733 q 804 808 844 771 q 686 871 764 846 q 501 876 586 894 q 354 810 417 858 q 256 689 292 763 q 221 526 221 615 q 246 388 221 451 q 317 278 271 324 q 425 206 363 232 q 563 182 488 181 q 673 190 628 183 q 751 206 718 196 q 811 227 785 215 q 867 251 838 239 l 864 296 q 664 267 753 258 q 512 312 575 276 q 412 398 449 347 q 369 496 375 449 q 374 628 360 574 q 419 716 389 682 q 491 768 450 750 q 576 792 532 786 z "},"ª":{"ha":575,"x_min":43,"x_max":518,"o":"m 518 563 l 518 794 q 460 965 518 901 q 276 1028 401 1028 q 99 965 156 1028 q 43 794 43 903 q 99 624 43 686 q 276 563 156 563 q 338 574 311 563 q 388 617 364 585 l 388 563 l 518 563 m 389 808 q 359 685 389 729 q 276 642 329 642 q 201 672 229 642 q 172 781 172 703 q 179 863 172 831 q 200 915 186 896 q 232 941 214 933 q 274 949 250 949 q 358 919 328 949 q 389 811 389 889 l 389 808 m 74 453 l 74 349 l 518 349 l 518 453 l 74 453 z "},"«":{"ha":601,"x_min":40,"x_max":567,"o":"m 86 269 q 224 108 174 169 q 282 47 275 47 q 299 51 289 47 q 306 65 310 56 q 276 122 296 86 q 238 198 257 158 q 205 276 219 238 q 190 343 190 315 q 202 376 190 343 q 232 456 214 410 q 270 551 250 503 q 306 629 290 600 q 299 640 308 636 q 282 643 289 643 q 256 617 279 643 q 202 554 233 592 q 136 476 171 517 q 75 404 101 435 q 46 365 51 376 q 40 344 40 354 q 48 319 40 335 q 86 269 56 303 m 343 268 q 481 107 431 168 q 539 46 532 46 q 556 50 546 46 q 563 64 567 54 q 533 121 553 85 q 495 197 514 157 q 462 275 476 236 q 447 342 447 314 q 459 375 447 342 q 489 455 471 408 q 527 550 507 501 q 563 628 547 599 q 556 638 565 635 q 539 642 546 642 q 513 616 536 642 q 459 553 490 590 q 393 474 428 515 q 332 403 358 433 q 303 364 308 375 q 297 343 297 353 q 305 317 297 333 q 343 268 313 301 z "},"¬":{"ha":1422,"x_min":25,"x_max":1396,"o":"m 57 -6 l 1201 -6 q 1283 6 1247 -6 q 1344 39 1319 18 q 1383 87 1369 60 q 1396 144 1396 114 q 1365 239 1396 204 q 1282 290 1333 274 q 1338 338 1317 307 q 1360 413 1360 369 q 1354 456 1360 436 q 1333 494 1349 476 l 1338 494 l 1338 689 l 1272 689 l 1267 560 l 861 560 l 861 821 l 540 821 l 540 994 l 614 994 l 614 1061 l 38 1061 l 25 914 l 93 914 l 99 994 l 250 994 l 250 560 l 57 560 l 57 -6 m 319 494 l 319 994 l 469 994 l 469 754 l 792 754 l 792 561 l 718 561 l 718 494 l 721 494 l 825 236 l 558 236 l 531 171 l 850 171 l 894 61 l 125 61 l 125 494 l 319 494 m 971 61 l 967 61 l 789 494 l 1158 494 q 1225 485 1200 494 q 1265 463 1250 476 q 1284 435 1279 450 q 1289 410 1289 421 q 1254 345 1289 371 q 1171 319 1219 319 l 1013 319 l 1013 253 l 1156 253 q 1194 251 1167 253 q 1251 240 1222 249 q 1301 210 1279 231 q 1324 154 1324 190 q 1306 99 1324 118 q 1262 72 1289 81 q 1203 61 1235 63 q 1143 60 1172 60 l 971 60 l 971 61 m 1269 865 l 1333 865 l 1329 1060 l 921 1060 l 921 753 l 1133 753 l 1133 682 l 1199 682 l 1199 892 l 1133 892 l 1133 819 l 990 819 l 990 993 l 1258 993 l 1269 865 m 469 563 l 488 315 l 554 315 l 571 563 l 469 563 z "},"®":{"ha":1151,"x_min":28,"x_max":1124,"o":"m 576 6 q 785 47 686 6 q 960 158 885 88 q 1079 326 1035 229 q 1124 533 1124 422 q 1079 740 1124 643 q 960 907 1035 836 q 785 1019 885 978 q 576 1060 686 1060 q 366 1019 465 1060 q 192 907 267 978 q 72 740 117 836 q 28 533 28 643 q 72 326 28 422 q 192 158 117 229 q 366 47 267 88 q 576 6 465 6 m 110 533 q 147 708 110 626 q 249 849 185 789 q 397 944 313 910 q 576 978 482 978 q 715 957 649 978 q 839 899 781 936 q 555 795 653 892 q 457 535 457 699 l 457 490 q 455 384 457 426 q 442 316 453 342 q 408 279 431 290 q 344 268 386 268 l 331 264 l 331 206 l 742 206 l 742 268 q 670 279 696 268 q 633 316 644 290 q 619 384 621 342 q 617 490 617 426 l 617 590 q 638 706 617 660 q 694 781 660 753 q 772 820 729 808 q 858 831 815 832 q 892 830 874 831 q 925 826 910 829 q 1010 694 979 768 q 1042 533 1042 619 q 1004 359 1042 440 q 903 217 967 278 q 756 122 840 157 q 576 88 671 88 q 397 122 482 88 q 249 217 313 157 q 147 359 185 278 q 110 533 110 440 z "},"¯":{"ha":407,"x_min":31,"x_max":382,"o":"m 31 1283 l 31 1179 l 382 1179 l 382 1283 l 31 1283 z "},"°":{"ha":311,"x_min":21,"x_max":296,"o":"m 296 835 q 285 888 296 863 q 256 931 275 913 q 213 961 238 950 q 158 972 188 972 q 60 933 100 972 q 21 835 21 893 q 31 782 21 807 q 60 738 42 757 q 104 708 79 719 q 158 697 129 697 q 211 708 186 697 q 255 737 236 718 q 285 781 274 756 q 296 835 296 806 m 163 758 q 106 781 129 758 q 83 836 83 804 q 106 892 83 868 q 163 915 129 915 q 217 892 194 915 q 240 836 240 868 q 217 781 240 803 q 163 758 194 758 z "},"±":{"ha":685,"x_min":26,"x_max":661,"o":"m 299 568 l 26 568 l 26 478 l 299 478 l 299 207 l 388 207 l 388 478 l 660 478 l 660 568 l 388 568 l 388 839 l 299 839 l 299 568 m 28 157 l 28 67 l 661 67 l 661 157 l 28 157 z "},"²":{"ha":504,"x_min":19,"x_max":476,"o":"m 454 585 l 385 585 l 383 513 q 367 492 381 497 q 321 485 353 486 l 175 483 l 174 556 q 195 621 172 597 q 249 659 218 644 q 312 682 281 674 q 360 701 343 690 q 389 721 369 706 q 428 758 408 736 q 462 808 447 779 q 476 868 476 836 l 476 869 q 419 1003 472 951 q 260 1054 367 1054 q 141 1041 201 1054 q 19 1008 81 1028 q 27 967 24 990 q 34 918 31 943 q 40 870 38 893 q 46 832 43 847 l 111 832 l 111 918 q 123 944 111 935 q 153 960 135 954 q 197 969 172 967 q 249 975 222 972 q 322 954 290 974 q 353 886 353 935 q 338 835 351 864 q 285 792 324 807 l 151 744 q 110 719 129 736 q 77 678 92 701 q 54 630 63 656 q 46 579 46 604 l 46 403 l 454 403 l 454 585 z "},"³":{"ha":485,"x_min":39,"x_max":444,"o":"m 122 579 q 67 538 83 544 q 49 532 51 532 q 50 504 50 507 q 50 508 50 501 q 89 463 61 488 q 171 421 117 439 q 226 414 199 414 q 314 431 274 414 q 383 476 354 447 q 428 546 413 506 q 444 633 444 586 q 409 738 444 694 q 311 792 374 781 l 442 928 l 442 1040 l 39 1040 l 39 883 l 106 883 l 106 910 q 110 944 107 933 q 138 956 114 956 l 313 956 l 151 715 q 288 697 251 715 q 328 649 325 679 q 329 632 329 640 q 329 618 329 625 q 320 565 329 586 q 297 529 311 543 q 263 508 282 515 q 226 499 244 501 q 167 518 188 499 q 122 579 147 538 z "},"´":{"ha":853,"x_min":276,"x_max":629,"o":"m 551 1385 l 276 1189 l 299 1146 q 625 1261 617 1253 q 551 1385 629 1264 z "},"µ":{"ha":1007,"x_min":29,"x_max":972,"o":"m 318 322 l 318 410 q 319 516 318 474 q 333 584 321 558 q 369 621 344 610 q 440 632 394 632 l 440 694 l 29 694 l 29 633 l 43 632 q 107 621 85 632 q 140 584 129 610 q 153 516 151 558 q 156 410 156 474 l 156 4 q 155 -102 156 -60 q 144 -170 154 -144 q 110 -207 135 -196 q 40 -218 86 -218 l 40 -281 l 447 -281 l 447 -218 q 374 -206 401 -218 q 334 -164 347 -193 q 319 -86 321 -135 q 321 36 317 -37 q 510 0 397 0 l 971 0 l 971 104 l 767 104 q 846 365 846 197 l 846 410 q 848 516 846 474 q 861 584 850 558 q 894 621 872 610 q 958 632 917 632 l 972 632 l 972 694 l 561 694 l 561 632 q 633 621 607 632 q 670 584 658 610 q 684 516 682 558 q 686 410 686 474 l 686 322 q 674 206 686 253 q 638 131 661 158 q 580 92 614 103 q 503 82 546 81 q 426 92 460 81 q 367 132 392 104 q 331 206 343 160 q 318 322 318 253 z "},"¶":{"ha":785,"x_min":39,"x_max":746,"o":"m 392 -369 l 550 -369 l 550 660 l 636 624 l 636 -374 l 744 -374 l 746 475 q 722 619 743 556 q 659 728 701 683 q 549 798 617 774 q 386 822 482 822 q 231 798 294 822 q 125 728 167 774 q 63 619 83 683 q 39 475 42 556 q 67 340 42 400 q 139 235 93 279 q 249 163 185 190 q 390 131 313 136 l 392 -369 z "},"·":{"ha":231,"x_min":32,"x_max":196,"o":"m 115 526 q 52 502 71 526 q 32 446 33 478 q 52 390 33 414 q 115 367 71 367 q 175 390 157 367 q 196 446 193 414 q 175 502 193 478 q 115 526 157 526 z "},"¸":{"ha":390,"x_min":6,"x_max":369,"o":"m 190 44 l 144 44 q 132 20 139 42 q 118 -28 125 -1 q 104 -83 111 -56 q 92 -126 97 -111 q 99 -135 89 -133 q 124 -137 110 -137 q 150 -134 138 -136 q 163 -132 163 -132 q 211 -147 186 -132 q 243 -185 236 -161 q 238 -222 250 -211 q 204 -234 226 -233 q 153 -228 182 -235 q 96 -213 124 -222 q 46 -197 68 -204 q 15 -187 24 -189 q 6 -202 7 -186 q 7 -224 6 -218 q 51 -258 11 -243 q 142 -281 90 -274 q 248 -281 194 -287 q 332 -250 301 -275 q 358 -216 347 -237 q 369 -171 369 -194 q 355 -126 369 -147 q 304 -93 340 -104 q 237 -76 268 -79 q 156 -90 206 -74 q 173 -19 165 -57 q 190 44 181 19 z "},"¹":{"ha":328,"x_min":26,"x_max":303,"o":"m 226 585 l 226 1042 l 26 1042 l 26 976 q 60 975 46 976 q 84 963 75 974 q 98 926 93 951 q 103 856 103 901 l 103 585 q 101 528 103 551 q 93 492 100 506 q 71 472 86 478 q 28 465 56 465 l 28 399 l 303 399 l 303 465 l 281 465 q 234 491 242 465 q 226 585 226 517 z "},"º":{"ha":579,"x_min":56,"x_max":532,"o":"m 299 1014 q 188 994 233 1014 q 114 942 143 975 q 71 867 85 910 q 56 779 57 825 q 72 690 57 732 q 115 615 86 647 q 188 563 143 582 q 299 544 233 544 q 405 563 361 544 q 476 614 449 582 q 518 688 504 646 q 532 779 532 731 q 517 867 531 825 q 476 942 504 910 q 404 994 447 975 q 299 1014 361 1014 m 182 764 q 190 849 182 815 q 213 901 199 882 q 247 929 228 921 q 290 938 267 938 q 376 906 346 938 q 407 794 407 874 q 399 710 407 743 q 376 657 392 676 q 339 630 361 638 q 288 622 317 622 q 212 653 242 622 q 182 764 182 685 m 74 451 l 74 347 l 510 347 l 510 451 l 74 451 z "},"»":{"ha":601,"x_min":39,"x_max":565,"o":"m 519 281 q 558 330 550 314 q 565 356 565 346 q 560 376 565 365 q 531 415 554 388 q 469 487 504 446 q 403 565 435 528 q 349 628 372 603 q 324 654 326 654 q 307 651 317 654 q 300 640 297 647 q 335 563 315 611 q 373 467 356 514 q 403 388 390 421 q 415 354 415 354 q 401 288 415 326 q 367 209 386 249 q 329 133 349 169 q 300 76 310 97 q 306 63 296 67 q 324 58 317 58 q 381 119 331 58 q 519 281 432 181 m 263 279 q 301 328 293 313 q 308 354 308 344 q 303 375 308 364 q 274 414 297 386 q 213 485 247 444 q 147 564 178 526 q 92 627 115 601 q 67 653 69 653 q 50 649 60 653 q 43 639 40 646 q 78 561 58 610 q 116 466 99 513 q 146 386 133 419 q 158 353 158 353 q 144 286 158 325 q 110 208 129 247 q 72 132 92 168 q 43 75 53 96 q 49 61 39 65 q 67 57 60 57 q 124 118 74 57 q 263 279 175 179 z "},"¼":{"ha":1010,"x_min":35,"x_max":961,"o":"m 461 206 l 478 164 l 744 164 q 742 117 744 136 q 732 87 739 99 q 710 70 725 75 q 669 65 694 65 l 669 0 l 944 0 l 944 65 l 922 65 q 878 87 886 65 q 869 164 869 108 l 961 164 l 961 317 l 896 317 l 896 289 q 892 253 896 265 q 869 239 889 242 l 869 656 l 751 656 l 461 206 m 747 1042 q 722 997 747 1042 q 657 879 697 953 q 565 712 617 806 q 460 521 514 618 q 354 330 406 424 q 263 163 303 236 q 198 44 222 89 q 175 0 174 0 l 246 0 q 274 44 247 0 q 345 163 301 89 q 444 330 389 236 q 558 521 500 424 q 672 712 617 618 q 772 879 728 806 q 842 997 815 953 q 868 1042 868 1042 l 747 1042 m 235 572 l 235 1043 l 35 1043 l 35 978 q 69 976 54 978 q 92 964 83 975 q 106 928 101 953 q 111 857 111 903 l 111 572 q 110 516 111 539 q 101 479 108 493 q 79 459 94 465 q 36 453 64 453 l 36 386 l 311 386 l 311 453 l 289 453 q 242 478 250 453 q 235 572 235 504 m 590 239 l 751 476 l 751 239 l 590 239 z "},"½":{"ha":1175,"x_min":35,"x_max":1143,"o":"m 1121 183 l 1051 183 l 1050 111 q 1033 90 1047 96 q 988 83 1019 85 l 842 82 l 840 154 q 862 219 839 196 q 916 258 885 243 q 978 281 947 272 q 1026 300 1010 289 q 1056 319 1036 304 q 1094 356 1075 335 q 1128 406 1114 378 q 1143 467 1143 435 l 1143 468 q 1086 601 1139 550 q 926 653 1033 653 q 808 640 868 653 q 686 607 747 626 q 694 565 690 589 q 701 517 697 542 q 707 469 704 492 q 713 431 710 446 l 778 431 l 778 517 q 790 543 778 533 q 820 559 801 553 q 864 568 839 565 q 915 574 889 571 q 988 553 957 572 q 1019 485 1019 533 q 1004 434 1018 463 q 951 390 990 406 l 818 343 q 777 317 796 335 q 744 277 758 300 q 721 228 729 254 q 713 178 713 203 l 713 1 l 1121 1 l 1121 183 m 747 1042 q 722 997 747 1042 q 657 879 697 953 q 565 712 617 806 q 460 521 514 618 q 354 330 406 424 q 263 163 303 236 q 198 44 222 89 q 175 0 174 0 l 246 0 q 274 44 247 0 q 345 163 301 89 q 444 330 389 236 q 558 521 500 424 q 672 712 617 618 q 772 879 728 806 q 842 997 815 953 q 868 1042 868 1042 l 747 1042 m 235 572 l 235 1043 l 35 1043 l 35 978 q 69 976 54 978 q 92 964 83 975 q 106 928 101 953 q 111 857 111 903 l 111 572 q 110 516 111 539 q 101 479 108 493 q 79 459 94 465 q 36 453 64 453 l 36 386 l 311 386 l 311 453 l 289 453 q 242 478 250 453 q 235 572 235 504 z "},"¾":{"ha":1026,"x_min":32,"x_max":988,"o":"m 488 206 l 504 164 l 771 164 q 768 117 771 136 q 758 87 765 99 q 736 70 751 75 q 696 65 721 65 l 696 0 l 971 0 l 971 65 l 949 65 q 904 87 913 65 q 896 164 896 108 l 988 164 l 988 317 l 922 317 l 922 289 q 919 253 922 265 q 896 239 915 242 l 896 656 l 778 656 l 488 206 m 115 581 q 60 540 76 546 q 42 533 44 533 q 43 506 43 508 q 43 510 43 503 q 82 465 54 489 q 164 422 110 440 q 219 415 192 415 q 307 432 267 415 q 376 478 347 449 q 422 547 406 507 q 438 635 438 588 q 402 739 438 696 q 304 793 367 782 l 435 929 l 435 1042 l 32 1042 l 32 885 l 99 885 l 99 911 q 103 946 100 935 q 131 957 107 957 l 306 957 l 144 717 q 281 699 244 717 q 321 650 318 681 q 322 633 322 642 q 322 619 322 626 q 313 566 322 588 q 290 531 304 544 q 256 510 275 517 q 219 500 238 503 q 160 519 181 500 q 115 581 140 539 m 774 1042 q 749 997 774 1042 q 683 879 724 953 q 592 712 643 806 q 486 521 540 618 q 381 330 432 424 q 289 163 329 236 q 224 44 249 89 q 201 0 200 0 l 272 0 q 301 44 274 0 q 372 163 328 89 q 471 330 415 236 q 585 521 526 424 q 699 712 643 618 q 798 879 754 806 q 868 997 842 953 q 894 1042 894 1042 l 774 1042 m 617 239 l 778 476 l 778 239 l 617 239 z "},"¿":{"ha":729,"x_min":29,"x_max":742,"o":"m 213 256 q 167 224 197 247 q 106 165 136 200 q 52 87 75 131 q 31 -6 29 43 q 54 -122 32 -69 q 119 -212 76 -175 q 223 -271 161 -250 q 368 -292 285 -292 q 556 -271 464 -290 q 742 -222 649 -251 q 731 -162 736 -196 q 722 -94 726 -129 q 713 -26 717 -60 q 706 33 708 7 l 639 33 l 640 -85 q 620 -141 640 -119 q 565 -176 600 -162 q 484 -195 529 -189 q 389 -206 439 -201 q 310 -196 347 -206 q 247 -166 274 -186 q 204 -113 219 -146 q 190 -33 189 -81 q 197 11 190 -14 q 219 61 204 36 q 258 108 233 86 q 319 144 282 131 l 382 178 q 447 219 417 190 q 500 283 478 247 q 534 360 522 319 q 546 438 546 400 l 546 544 l 378 544 l 378 478 q 363 391 372 424 q 334 337 353 358 q 285 298 315 315 q 213 256 256 281 m 456 603 q 519 627 500 603 q 539 683 538 651 q 519 739 538 715 q 456 763 500 763 q 396 739 414 763 q 375 683 378 715 q 396 627 378 651 q 456 603 414 603 z "},"À":{"ha":1107,"x_min":29,"x_max":1086,"o":"m 29 0 l 440 0 l 440 63 q 369 74 394 63 q 331 110 343 85 q 317 178 319 136 q 315 285 315 221 l 315 463 l 800 463 l 800 285 q 798 178 800 221 q 784 110 796 136 q 747 74 772 85 q 675 63 721 63 l 675 0 l 1086 0 l 1086 63 l 1072 63 q 1008 74 1031 63 q 975 110 986 85 q 962 178 964 136 q 960 285 960 221 l 960 676 q 933 828 960 761 q 856 943 907 896 q 731 1016 804 990 q 564 1042 657 1042 q 260 944 365 1042 q 156 676 156 846 l 156 285 q 153 178 156 221 q 140 110 151 136 q 107 74 129 85 q 43 63 85 63 l 29 58 l 29 0 m 315 719 q 337 835 315 789 q 393 910 358 882 q 471 949 428 938 q 557 960 514 961 q 644 950 600 961 q 722 911 688 939 q 778 836 757 883 q 800 719 800 789 l 800 526 l 315 526 l 315 719 m 432 1385 q 358 1261 354 1264 q 685 1146 367 1253 l 707 1189 l 432 1385 z "},"Á":{"ha":1107,"x_min":29,"x_max":1086,"o":"m 29 0 l 440 0 l 440 63 q 369 74 394 63 q 331 110 343 85 q 317 178 319 136 q 315 285 315 221 l 315 463 l 800 463 l 800 285 q 798 178 800 221 q 784 110 796 136 q 747 74 772 85 q 675 63 721 63 l 675 0 l 1086 0 l 1086 63 l 1072 63 q 1008 74 1031 63 q 975 110 986 85 q 962 178 964 136 q 960 285 960 221 l 960 676 q 933 828 960 761 q 856 943 907 896 q 731 1016 804 990 q 564 1042 657 1042 q 260 944 365 1042 q 156 676 156 846 l 156 285 q 153 178 156 221 q 140 110 151 136 q 107 74 129 85 q 43 63 85 63 l 29 58 l 29 0 m 315 719 q 337 835 315 789 q 393 910 358 882 q 471 949 428 938 q 557 960 514 961 q 644 950 600 961 q 722 911 688 939 q 778 836 757 883 q 800 719 800 789 l 800 526 l 315 526 l 315 719 m 706 1385 l 431 1189 l 453 1146 q 779 1261 771 1253 q 706 1385 783 1264 z "},"Â":{"ha":1111,"x_min":29,"x_max":1086,"o":"m 29 0 l 440 0 l 440 63 q 369 74 394 63 q 331 110 343 85 q 317 178 319 136 q 315 285 315 221 l 315 463 l 800 463 l 800 285 q 798 178 800 221 q 784 110 796 136 q 747 74 772 85 q 675 63 721 63 l 675 0 l 1086 0 l 1086 63 l 1072 63 q 1008 74 1031 63 q 975 110 986 85 q 962 178 964 136 q 960 285 960 221 l 960 676 q 933 828 960 761 q 856 943 907 896 q 731 1016 804 990 q 564 1042 657 1042 q 260 944 365 1042 q 156 676 156 846 l 156 285 q 153 178 156 221 q 140 110 151 136 q 107 74 129 85 q 43 63 85 63 l 29 58 l 29 0 m 315 719 q 337 835 315 789 q 393 910 358 882 q 471 949 428 938 q 557 960 514 961 q 644 950 600 961 q 722 911 688 939 q 778 836 757 883 q 800 719 800 789 l 800 526 l 315 526 l 315 719 m 756 1132 l 551 1386 l 351 1135 l 361 1111 l 554 1228 l 746 1108 l 756 1132 z "},"Ã":{"ha":1111,"x_min":29,"x_max":1086,"o":"m 29 0 l 440 0 l 440 63 q 369 74 394 63 q 331 110 343 85 q 317 178 319 136 q 315 285 315 221 l 315 463 l 800 463 l 800 285 q 798 178 800 221 q 784 110 796 136 q 747 74 772 85 q 675 63 721 63 l 675 0 l 1086 0 l 1086 63 l 1072 63 q 1008 74 1031 63 q 975 110 986 85 q 962 178 964 136 q 960 285 960 221 l 960 676 q 933 828 960 761 q 856 943 907 896 q 731 1016 804 990 q 564 1042 657 1042 q 260 944 365 1042 q 156 676 156 846 l 156 285 q 153 178 156 221 q 140 110 151 136 q 107 74 129 85 q 43 63 85 63 l 29 58 l 29 0 m 315 719 q 337 835 315 789 q 393 910 358 882 q 471 949 428 938 q 557 960 514 961 q 644 950 600 961 q 722 911 688 939 q 778 836 757 883 q 800 719 800 789 l 800 526 l 315 526 l 315 719 m 785 1282 l 764 1306 q 719 1266 746 1285 q 667 1247 693 1247 q 629 1256 650 1247 q 581 1282 608 1265 q 488 1317 528 1317 q 328 1164 375 1317 q 335 1159 332 1160 q 342 1158 339 1158 q 348 1155 344 1157 q 354 1146 351 1153 q 401 1197 375 1182 q 449 1211 426 1211 q 493 1201 468 1211 q 550 1174 518 1192 q 651 1138 613 1138 q 785 1282 732 1138 z "},"Ä":{"ha":1107,"x_min":29,"x_max":1086,"o":"m 29 0 l 440 0 l 440 63 q 369 74 394 63 q 331 110 343 85 q 317 178 319 136 q 315 285 315 221 l 315 463 l 800 463 l 800 285 q 798 178 800 221 q 784 110 796 136 q 747 74 772 85 q 675 63 721 63 l 675 0 l 1086 0 l 1086 63 l 1072 63 q 1008 74 1031 63 q 975 110 986 85 q 962 178 964 136 q 960 285 960 221 l 960 676 q 933 828 960 761 q 856 943 907 896 q 731 1016 804 990 q 564 1042 657 1042 q 260 944 365 1042 q 156 676 156 846 l 156 285 q 153 178 156 221 q 140 110 151 136 q 107 74 129 85 q 43 63 85 63 l 29 58 l 29 0 m 315 719 q 337 835 315 789 q 393 910 358 882 q 471 949 428 938 q 557 960 514 961 q 644 950 600 961 q 722 911 688 939 q 778 836 757 883 q 800 719 800 789 l 800 526 l 315 526 l 315 719 m 342 1226 q 367 1165 342 1189 q 428 1140 392 1140 q 490 1165 464 1140 q 515 1226 515 1189 q 490 1286 515 1261 q 428 1311 464 1311 q 367 1286 392 1311 q 342 1226 342 1261 m 603 1226 q 628 1165 603 1189 q 688 1140 653 1140 q 751 1165 725 1140 q 776 1226 776 1189 q 750 1286 776 1261 q 688 1311 724 1311 q 628 1286 654 1311 q 603 1226 603 1261 z "},"Å":{"ha":1111,"x_min":29,"x_max":1086,"o":"m 29 0 l 440 0 l 440 63 q 369 74 394 63 q 331 110 343 85 q 317 178 319 136 q 315 285 315 221 l 315 463 l 800 463 l 800 285 q 798 178 800 221 q 784 110 796 136 q 747 74 772 85 q 675 63 721 63 l 675 0 l 1086 0 l 1086 63 l 1072 63 q 1008 74 1031 63 q 975 110 986 85 q 962 178 964 136 q 960 285 960 221 l 960 676 q 933 828 960 761 q 856 943 907 896 q 731 1016 804 990 q 564 1042 657 1042 q 260 944 365 1042 q 156 676 156 846 l 156 285 q 153 178 156 221 q 140 110 151 136 q 107 74 129 85 q 43 63 85 63 l 29 58 l 29 0 m 315 719 q 337 835 315 789 q 393 910 358 882 q 471 949 428 938 q 557 960 514 961 q 644 950 600 961 q 722 911 688 939 q 778 836 757 883 q 800 719 800 789 l 800 526 l 315 526 l 315 719 m 693 1250 q 683 1303 693 1278 q 653 1347 672 1328 q 610 1376 635 1365 q 556 1388 585 1388 q 458 1348 497 1388 q 418 1250 418 1308 q 428 1197 418 1222 q 458 1153 439 1172 q 501 1124 476 1135 q 556 1113 526 1113 q 608 1123 583 1113 q 652 1152 633 1133 q 682 1196 671 1171 q 693 1250 693 1221 m 560 1174 q 503 1197 526 1174 q 481 1251 481 1219 q 503 1307 481 1283 q 560 1331 526 1331 q 615 1307 592 1331 q 638 1251 638 1283 q 615 1196 638 1218 q 560 1174 592 1174 z "},"Æ":{"ha":1533,"x_min":29,"x_max":1494,"o":"m 1493 74 l 1200 74 q 1114 85 1157 74 q 1037 124 1071 96 q 981 199 1003 153 q 960 314 960 244 l 960 521 l 1339 521 l 1339 585 l 960 585 l 960 753 q 961 850 960 810 q 972 916 963 890 q 999 956 981 942 q 1051 974 1018 969 l 1494 974 l 1494 1040 q 1121 1041 1274 1040 q 867 1042 968 1042 q 707 1042 765 1042 q 619 1042 650 1042 q 581 1042 590 1042 q 564 1042 571 1042 q 260 944 365 1042 q 156 676 156 846 l 156 285 q 153 178 156 221 q 140 110 151 136 q 107 74 129 85 q 43 63 85 63 l 29 58 l 29 0 l 440 0 l 440 63 q 369 74 394 63 q 331 110 343 85 q 317 178 319 136 q 315 285 315 221 l 315 463 l 800 463 l 800 275 q 928 69 824 144 q 1200 -7 1032 -6 l 1493 -7 l 1493 74 m 315 719 q 337 835 315 789 q 393 910 358 882 q 471 949 428 938 q 557 960 514 961 q 641 951 599 961 q 718 914 683 940 q 775 843 753 888 q 800 733 797 799 l 800 526 l 315 526 l 315 719 z "},"Ç":{"ha":1001,"x_min":39,"x_max":961,"o":"m 942 190 q 803 122 875 146 q 658 99 732 99 q 474 132 557 99 q 333 226 392 165 q 244 369 275 286 q 213 554 213 453 q 238 717 213 642 q 312 848 264 793 q 429 934 360 903 q 586 965 499 965 q 671 959 624 965 q 760 938 718 953 q 831 900 801 924 q 860 842 860 876 l 858 724 l 925 724 q 932 783 928 750 q 941 851 936 817 q 951 919 946 886 q 961 979 956 953 q 768 1030 865 1013 q 583 1047 671 1047 q 374 1012 472 1047 q 201 909 275 976 q 83 744 126 842 q 39 524 39 647 q 72 330 39 417 q 163 178 104 243 q 300 72 221 114 q 472 13 379 31 q 454 -55 463 -18 q 439 -111 446 -92 q 447 -120 436 -118 q 471 -122 457 -122 q 497 -119 485 -121 q 510 -117 510 -117 q 558 -131 533 -117 q 590 -169 583 -146 q 585 -207 597 -196 q 551 -219 574 -218 q 500 -213 529 -219 q 443 -198 471 -207 q 393 -181 415 -189 q 363 -172 371 -174 q 353 -187 354 -171 q 354 -208 353 -203 q 398 -243 358 -228 q 490 -265 438 -258 q 595 -266 542 -272 q 679 -235 649 -260 q 706 -201 694 -222 q 717 -156 717 -179 q 702 -110 717 -132 q 651 -78 688 -89 q 584 -61 615 -64 q 503 -75 553 -58 q 513 -35 508 -56 q 522 6 517 -14 q 566 1 544 3 q 611 0 588 0 q 687 6 644 0 q 773 24 729 13 q 859 50 817 35 q 935 85 901 65 l 942 190 z "},"È":{"ha":883,"x_min":19,"x_max":840,"o":"m 839 76 l 546 76 q 460 88 503 76 q 383 127 417 99 q 327 201 349 156 q 306 317 306 247 l 306 526 l 685 526 l 685 590 l 306 590 l 306 744 q 307 842 306 801 q 317 908 308 882 q 345 947 326 933 q 397 965 364 961 l 840 965 l 840 1042 l 19 1042 l 19 983 l 33 979 q 97 968 75 979 q 131 931 119 957 q 144 863 142 906 q 146 757 146 821 l 146 361 q 249 96 146 193 q 546 -3 351 -1 l 839 -3 l 839 76 m 375 1388 q 303 1264 297 1268 q 628 1149 306 1257 l 649 1192 l 375 1388 z "},"É":{"ha":883,"x_min":19,"x_max":840,"o":"m 839 76 l 546 76 q 460 88 503 76 q 383 127 417 99 q 327 201 349 156 q 306 317 306 247 l 306 526 l 685 526 l 685 590 l 306 590 l 306 744 q 307 842 306 801 q 317 908 308 882 q 345 947 326 933 q 397 965 364 961 l 840 965 l 840 1042 l 19 1042 l 19 983 l 33 979 q 97 968 75 979 q 131 931 119 957 q 144 863 142 906 q 146 757 146 821 l 146 361 q 249 96 146 193 q 546 -3 351 -1 l 839 -3 l 839 76 m 656 1385 l 381 1189 l 403 1146 q 729 1261 721 1253 q 656 1385 733 1264 z "},"Ê":{"ha":883,"x_min":19,"x_max":840,"o":"m 839 76 l 546 76 q 460 88 503 76 q 383 127 417 99 q 327 201 349 156 q 306 317 306 247 l 306 526 l 685 526 l 685 590 l 306 590 l 306 744 q 307 842 306 801 q 317 908 308 882 q 345 947 326 933 q 397 965 364 961 l 840 965 l 840 1042 l 19 1042 l 19 983 l 33 979 q 97 968 75 979 q 131 931 119 957 q 144 863 142 906 q 146 757 146 821 l 146 361 q 249 96 146 193 q 546 -3 351 -1 l 839 -3 l 839 76 m 704 1132 l 500 1386 l 300 1135 l 310 1111 l 503 1228 l 694 1108 l 704 1132 z "},"Ë":{"ha":883,"x_min":19,"x_max":840,"o":"m 839 76 l 546 76 q 460 88 503 76 q 383 127 417 99 q 327 201 349 156 q 306 317 306 247 l 306 526 l 685 526 l 685 590 l 306 590 l 306 744 q 307 842 306 801 q 317 908 308 882 q 345 947 326 933 q 397 965 364 961 l 840 965 l 840 1042 l 19 1042 l 19 983 l 33 979 q 97 968 75 979 q 131 931 119 957 q 144 863 142 906 q 146 757 146 821 l 146 361 q 249 96 146 193 q 546 -3 351 -1 l 839 -3 l 839 76 m 276 1226 q 301 1165 276 1189 q 363 1140 326 1140 q 424 1165 399 1140 q 450 1226 450 1189 q 424 1286 450 1261 q 363 1311 399 1311 q 301 1286 326 1311 q 276 1226 276 1261 m 538 1226 q 563 1165 538 1189 q 622 1140 588 1140 q 685 1165 660 1140 q 711 1226 711 1189 q 685 1286 711 1261 q 622 1311 658 1311 q 563 1286 589 1311 q 538 1226 538 1261 z "},"Ì":{"ha":478,"x_min":29,"x_max":453,"o":"m 326 757 q 328 863 326 821 q 342 931 331 906 q 380 968 354 957 q 451 979 406 979 l 451 1042 l 40 1042 l 40 979 l 54 979 q 118 968 96 979 q 151 931 140 957 q 165 863 163 906 q 167 757 167 821 l 167 285 q 165 178 167 221 q 151 110 163 136 q 113 74 139 85 q 42 63 88 63 l 42 0 l 453 0 l 453 63 l 439 63 q 375 74 397 63 q 342 110 353 85 q 328 178 331 136 q 326 285 326 221 l 326 757 m 107 1388 q 35 1264 29 1268 q 360 1149 38 1257 l 381 1192 l 107 1388 z "},"Í":{"ha":478,"x_min":40,"x_max":461,"o":"m 326 757 q 328 863 326 821 q 342 931 331 906 q 380 968 354 957 q 451 979 406 979 l 451 1042 l 40 1042 l 40 979 l 54 979 q 118 968 96 979 q 151 931 140 957 q 165 863 163 906 q 167 757 167 821 l 167 285 q 165 178 167 221 q 151 110 163 136 q 113 74 139 85 q 42 63 88 63 l 42 0 l 453 0 l 453 63 l 439 63 q 375 74 397 63 q 342 110 353 85 q 328 178 331 136 q 326 285 326 221 l 326 757 m 383 1385 l 108 1189 l 131 1146 q 457 1261 449 1253 q 383 1385 461 1264 z "},"Î":{"ha":478,"x_min":40,"x_max":453,"o":"m 326 757 q 328 863 326 821 q 342 931 331 906 q 380 968 354 957 q 451 979 406 979 l 451 1042 l 40 1042 l 40 979 l 54 979 q 118 968 96 979 q 151 931 140 957 q 165 863 163 906 q 167 757 167 821 l 167 285 q 165 178 167 221 q 151 110 163 136 q 113 74 139 85 q 42 63 88 63 l 42 0 l 453 0 l 453 63 l 439 63 q 375 74 397 63 q 342 110 353 85 q 328 178 331 136 q 326 285 326 221 l 326 757 m 449 1132 l 244 1386 l 44 1135 l 54 1111 l 247 1228 l 439 1108 l 449 1132 z "},"Ï":{"ha":478,"x_min":29,"x_max":464,"o":"m 326 757 q 328 863 326 821 q 342 931 331 906 q 380 968 354 957 q 451 979 406 979 l 451 1042 l 40 1042 l 40 979 l 54 979 q 118 968 96 979 q 151 931 140 957 q 165 863 163 906 q 167 757 167 821 l 167 285 q 165 178 167 221 q 151 110 163 136 q 113 74 139 85 q 42 63 88 63 l 42 0 l 453 0 l 453 63 l 439 63 q 375 74 397 63 q 342 110 353 85 q 328 178 331 136 q 326 285 326 221 l 326 757 m 29 1226 q 54 1165 29 1189 q 115 1140 79 1140 q 177 1165 151 1140 q 203 1226 203 1189 q 177 1286 203 1261 q 115 1311 151 1311 q 54 1286 79 1311 q 29 1226 29 1261 m 290 1226 q 315 1165 290 1189 q 375 1140 340 1140 q 438 1165 413 1140 q 464 1226 464 1189 q 438 1286 464 1261 q 375 1311 411 1311 q 316 1286 342 1311 q 290 1226 290 1261 z "},"Ð":{"ha":985,"x_min":24,"x_max":943,"o":"m 46 572 l 46 468 l 150 468 l 150 285 q 148 178 150 221 q 134 110 146 136 q 97 74 122 85 q 25 63 71 63 l 25 0 q 282 -1 189 -1 q 424 -1 375 -1 q 490 -1 472 -1 q 521 0 508 0 q 685 38 608 -3 q 819 151 761 79 q 910 321 876 222 q 943 532 943 419 q 909 744 943 650 q 810 905 875 839 q 651 1006 746 971 q 435 1042 557 1042 l 24 1042 l 24 979 l 38 979 q 101 968 79 979 q 135 931 124 957 q 148 863 146 906 q 150 757 150 821 l 150 572 l 46 572 m 392 947 q 681 836 583 947 q 779 514 779 725 q 776 410 779 465 q 760 302 774 356 q 718 201 746 249 q 642 123 690 154 q 519 81 593 92 q 339 88 446 69 q 313 157 317 110 q 310 285 310 204 l 310 468 l 393 468 l 393 572 l 310 572 l 310 815 q 325 929 310 893 q 349 944 333 940 q 392 947 365 947 z "},"Ñ":{"ha":1111,"x_min":29,"x_max":1086,"o":"m 315 719 q 337 835 315 789 q 393 910 358 882 q 471 949 428 938 q 557 960 514 961 q 644 950 600 961 q 722 911 688 939 q 778 836 757 883 q 800 719 800 789 l 800 285 q 798 178 800 221 q 784 110 796 136 q 747 74 772 85 q 675 63 721 63 l 675 0 l 1086 0 l 1086 63 l 1072 63 q 1008 74 1031 63 q 975 110 986 85 q 962 178 964 136 q 960 285 960 221 l 960 676 q 933 828 960 761 q 856 943 907 896 q 731 1016 804 990 q 564 1042 657 1042 q 260 944 365 1042 q 156 676 156 846 l 156 285 q 153 178 156 221 q 140 110 151 136 q 107 74 129 85 q 43 63 85 63 l 29 58 l 29 0 l 440 0 l 440 63 q 369 74 394 63 q 331 110 343 85 q 317 178 319 136 q 315 285 315 221 l 315 719 m 785 1282 l 764 1306 q 719 1266 746 1285 q 667 1247 693 1247 q 629 1256 650 1247 q 581 1282 608 1265 q 488 1317 528 1317 q 328 1164 375 1317 q 335 1159 332 1160 q 342 1158 339 1158 q 348 1155 344 1157 q 354 1146 351 1153 q 401 1197 375 1182 q 449 1211 426 1211 q 493 1201 468 1211 q 550 1174 518 1192 q 651 1138 613 1138 q 785 1282 732 1138 z "},"Ò":{"ha":913,"x_min":57,"x_max":861,"o":"m 861 678 q 835 830 861 763 q 757 944 808 897 q 632 1017 706 992 q 465 1043 558 1043 q 162 945 267 1043 q 57 678 57 847 l 57 365 q 162 98 57 196 q 465 0 267 0 q 632 26 558 0 q 757 99 706 51 q 835 213 808 146 q 861 365 861 281 l 861 678 m 217 322 l 217 721 q 238 837 217 790 q 294 911 260 883 q 372 951 329 939 q 458 961 415 963 q 545 951 501 963 q 624 913 589 940 q 680 838 658 885 q 701 721 701 790 l 701 322 q 680 206 701 253 q 624 131 658 158 q 545 92 589 103 q 458 82 501 81 q 372 92 415 81 q 294 132 329 104 q 238 206 260 160 q 217 322 217 253 m 346 1388 q 274 1264 268 1268 q 599 1149 276 1257 l 619 1192 l 346 1388 z "},"Ó":{"ha":913,"x_min":57,"x_max":861,"o":"m 861 678 q 835 830 861 763 q 757 944 808 897 q 632 1017 706 992 q 465 1043 558 1043 q 162 945 267 1043 q 57 678 57 847 l 57 365 q 162 98 57 196 q 465 0 267 0 q 632 26 558 0 q 757 99 706 51 q 835 213 808 146 q 861 365 861 281 l 861 678 m 217 322 l 217 721 q 238 837 217 790 q 294 911 260 883 q 372 951 329 939 q 458 961 415 963 q 545 951 501 963 q 624 913 589 940 q 680 838 658 885 q 701 721 701 790 l 701 322 q 680 206 701 253 q 624 131 658 158 q 545 92 589 103 q 458 82 501 81 q 372 92 415 81 q 294 132 329 104 q 238 206 260 160 q 217 322 217 253 m 586 1385 l 311 1189 l 333 1146 q 660 1261 651 1253 q 586 1385 664 1264 z "},"Ô":{"ha":913,"x_min":57,"x_max":861,"o":"m 861 678 q 835 830 861 763 q 757 944 808 897 q 632 1017 706 992 q 465 1043 558 1043 q 162 945 267 1043 q 57 678 57 847 l 57 365 q 162 98 57 196 q 465 0 267 0 q 632 26 558 0 q 757 99 706 51 q 835 213 808 146 q 861 365 861 281 l 861 678 m 217 322 l 217 721 q 238 837 217 790 q 294 911 260 883 q 372 951 329 939 q 458 961 415 963 q 545 951 501 963 q 624 913 589 940 q 680 838 658 885 q 701 721 701 790 l 701 322 q 680 206 701 253 q 624 131 658 158 q 545 92 589 103 q 458 82 501 81 q 372 92 415 81 q 294 132 329 104 q 238 206 260 160 q 217 322 217 253 m 667 1132 l 463 1386 l 263 1135 l 272 1111 l 465 1228 l 657 1108 l 667 1132 z "},"Õ":{"ha":913,"x_min":57,"x_max":861,"o":"m 861 678 q 835 830 861 763 q 757 944 808 897 q 632 1017 706 992 q 465 1043 558 1043 q 162 945 267 1043 q 57 678 57 847 l 57 365 q 162 98 57 196 q 465 0 267 0 q 632 26 558 0 q 757 99 706 51 q 835 213 808 146 q 861 365 861 281 l 861 678 m 217 322 l 217 721 q 238 837 217 790 q 294 911 260 883 q 372 951 329 939 q 458 961 415 963 q 545 951 501 963 q 624 913 589 940 q 680 838 658 885 q 701 721 701 790 l 701 322 q 680 206 701 253 q 624 131 658 158 q 545 92 589 103 q 458 82 501 81 q 372 92 415 81 q 294 132 329 104 q 238 206 260 160 q 217 322 217 253 m 689 1282 l 668 1306 q 624 1266 650 1285 q 571 1247 597 1247 q 533 1256 554 1247 q 485 1282 513 1265 q 392 1317 432 1317 q 232 1164 279 1317 q 240 1159 236 1160 q 246 1158 243 1158 q 252 1155 249 1157 q 258 1146 256 1153 q 305 1197 279 1182 q 353 1211 331 1211 q 397 1201 372 1211 q 454 1174 422 1192 q 556 1138 517 1138 q 689 1282 636 1138 z "},"Ö":{"ha":913,"x_min":57,"x_max":861,"o":"m 861 678 q 835 830 861 763 q 757 944 808 897 q 632 1017 706 992 q 465 1043 558 1043 q 162 945 267 1043 q 57 678 57 847 l 57 365 q 162 98 57 196 q 465 0 267 0 q 632 26 558 0 q 757 99 706 51 q 835 213 808 146 q 861 365 861 281 l 861 678 m 217 322 l 217 721 q 238 837 217 790 q 294 911 260 883 q 372 951 329 939 q 458 961 415 963 q 545 951 501 963 q 624 913 589 940 q 680 838 658 885 q 701 721 701 790 l 701 322 q 680 206 701 253 q 624 131 658 158 q 545 92 589 103 q 458 82 501 81 q 372 92 415 81 q 294 132 329 104 q 238 206 260 160 q 217 322 217 253 m 244 1226 q 269 1165 244 1189 q 331 1140 294 1140 q 392 1165 367 1140 q 418 1226 418 1189 q 392 1286 418 1261 q 331 1311 367 1311 q 269 1286 294 1311 q 244 1226 244 1261 m 506 1226 q 531 1165 506 1189 q 590 1140 556 1140 q 653 1165 628 1140 q 679 1226 679 1189 q 653 1286 679 1261 q 590 1311 626 1311 q 531 1286 557 1311 q 506 1226 506 1261 z "},"×":{"ha":553,"x_min":21,"x_max":533,"o":"m 278 590 l 85 783 l 21 719 l 214 526 l 22 335 l 85 272 l 276 464 l 469 271 l 533 335 l 340 528 l 532 719 l 469 782 l 278 590 z "},"Ø":{"ha":913,"x_min":57,"x_max":861,"o":"m 767 1119 q 747 1083 767 1119 q 694 989 726 1047 q 591 1029 649 1015 q 465 1043 533 1043 q 162 945 267 1043 q 57 678 57 847 l 57 365 q 190 75 57 171 q 128 -39 151 4 q 107 -82 106 -82 l 178 -82 q 197 -49 178 -82 q 247 42 215 -15 q 465 0 336 0 q 632 26 558 0 q 757 99 706 51 q 835 213 808 146 q 861 365 861 281 l 861 678 q 832 835 861 765 q 749 951 803 904 q 815 1074 790 1028 q 840 1119 840 1119 l 767 1119 m 217 322 l 217 721 q 238 837 217 790 q 294 911 260 883 q 372 951 329 939 q 458 961 415 963 q 556 947 507 963 q 642 894 606 932 q 551 728 600 818 q 449 544 501 638 q 346 357 397 450 q 250 182 294 264 q 226 244 235 210 q 217 322 217 278 m 701 721 l 701 322 q 680 206 701 253 q 624 131 658 158 q 545 92 589 103 q 458 82 501 81 q 373 91 415 81 q 296 129 331 101 q 385 291 336 203 q 485 472 433 379 q 587 657 536 565 q 682 831 638 749 q 701 721 701 783 z "},"Ù":{"ha":1107,"x_min":28,"x_max":1085,"o":"m 799 322 q 777 206 799 253 q 721 132 756 160 q 643 92 686 104 q 557 82 600 81 q 470 92 514 81 q 392 131 426 103 q 335 206 357 158 q 314 322 314 253 l 314 757 q 316 863 314 821 q 330 931 318 906 q 367 968 342 957 q 439 979 393 979 l 439 1042 l 28 1042 l 28 979 l 42 979 q 106 968 83 979 q 139 931 128 957 q 152 863 150 906 q 154 757 154 821 l 154 365 q 181 213 154 281 q 258 99 207 146 q 383 26 310 51 q 550 0 456 0 q 853 98 749 0 q 958 365 958 196 l 958 757 q 960 863 958 821 q 974 931 963 906 q 1007 968 985 957 q 1071 979 1029 979 l 1085 983 l 1085 1042 l 674 1042 l 674 979 q 745 968 719 979 q 783 931 771 957 q 797 863 794 906 q 799 757 799 821 l 799 322 m 432 1385 q 358 1261 354 1264 q 685 1146 367 1253 l 707 1189 l 432 1385 z "},"Ú":{"ha":1107,"x_min":29,"x_max":1086,"o":"m 315 322 l 315 757 q 317 863 315 821 q 331 931 319 906 q 369 968 343 957 q 440 979 394 979 l 440 1042 l 29 1042 l 29 983 l 43 979 q 107 968 85 979 q 140 931 129 957 q 153 863 151 906 q 156 757 156 821 l 156 365 q 260 98 156 196 q 564 0 365 0 q 731 26 657 0 q 856 99 804 51 q 933 213 907 146 q 960 365 960 281 l 960 757 q 962 863 960 821 q 975 931 964 906 q 1008 968 986 957 q 1072 979 1031 979 l 1086 979 l 1086 1042 l 675 1042 l 675 979 q 747 968 721 979 q 784 931 772 957 q 798 863 796 906 q 800 757 800 821 l 800 322 q 778 206 800 253 q 722 131 757 158 q 644 92 688 103 q 557 82 600 81 q 471 92 514 81 q 393 132 428 104 q 337 206 358 160 q 315 322 315 253 m 743 1385 l 468 1189 l 490 1146 q 817 1261 808 1253 q 743 1385 821 1264 z "},"Û":{"ha":1111,"x_min":29,"x_max":1086,"o":"m 315 322 l 315 757 q 317 863 315 821 q 331 931 319 906 q 369 968 343 957 q 440 979 394 979 l 440 1042 l 29 1042 l 29 983 l 43 979 q 107 968 85 979 q 140 931 129 957 q 153 863 151 906 q 156 757 156 821 l 156 365 q 260 98 156 196 q 564 0 365 0 q 731 26 657 0 q 856 99 804 51 q 933 213 907 146 q 960 365 960 281 l 960 757 q 962 863 960 821 q 975 931 964 906 q 1008 968 986 957 q 1072 979 1031 979 l 1086 979 l 1086 1042 l 675 1042 l 675 979 q 747 968 721 979 q 784 931 772 957 q 798 863 796 906 q 800 757 800 821 l 800 322 q 778 206 800 253 q 722 131 757 158 q 644 92 688 103 q 557 82 600 81 q 471 92 514 81 q 393 132 428 104 q 337 206 358 160 q 315 322 315 253 m 756 1132 l 551 1386 l 351 1135 l 361 1111 l 554 1228 l 746 1108 l 756 1132 z "},"Ü":{"ha":1107,"x_min":29,"x_max":1086,"o":"m 315 322 l 315 757 q 317 863 315 821 q 331 931 319 906 q 369 968 343 957 q 440 979 394 979 l 440 1042 l 29 1042 l 29 983 l 43 979 q 107 968 85 979 q 140 931 129 957 q 153 863 151 906 q 156 757 156 821 l 156 365 q 260 98 156 196 q 564 0 365 0 q 731 26 657 0 q 856 99 804 51 q 933 213 907 146 q 960 365 960 281 l 960 757 q 962 863 960 821 q 975 931 964 906 q 1008 968 986 957 q 1072 979 1031 979 l 1086 979 l 1086 1042 l 675 1042 l 675 979 q 747 968 721 979 q 784 931 772 957 q 798 863 796 906 q 800 757 800 821 l 800 322 q 778 206 800 253 q 722 131 757 158 q 644 92 688 103 q 557 82 600 81 q 471 92 514 81 q 393 132 428 104 q 337 206 358 160 q 315 322 315 253 m 342 1226 q 367 1165 342 1189 q 428 1140 392 1140 q 490 1165 464 1140 q 515 1226 515 1189 q 490 1286 515 1261 q 428 1311 464 1311 q 367 1286 392 1311 q 342 1226 342 1261 m 603 1226 q 628 1165 603 1189 q 688 1140 653 1140 q 751 1165 725 1140 q 776 1226 776 1189 q 750 1286 776 1261 q 688 1311 724 1311 q 628 1286 654 1311 q 603 1226 603 1261 z "},"Ý":{"ha":1107,"x_min":26,"x_max":1083,"o":"m 313 679 l 313 758 q 315 865 313 822 q 328 933 317 907 q 366 969 340 958 q 438 981 392 981 l 438 1043 l 26 1043 l 26 981 l 40 981 q 104 969 82 981 q 138 933 126 958 q 151 865 149 907 q 153 758 153 822 l 153 722 q 236 476 153 571 q 478 361 319 382 l 478 285 q 476 178 478 221 q 462 110 474 136 q 424 74 450 85 q 353 63 399 63 l 353 0 l 764 0 l 764 63 l 750 63 q 686 74 708 63 q 653 110 664 85 q 640 178 642 136 q 638 285 638 221 l 638 361 q 874 476 790 381 q 957 722 957 571 l 957 760 q 959 866 957 824 q 972 933 961 908 q 1006 969 983 958 q 1069 979 1028 979 l 1083 979 l 1083 1042 l 672 1043 l 672 981 q 744 969 718 981 q 781 933 769 958 q 795 865 793 907 q 797 758 797 822 l 797 679 q 776 563 797 610 q 719 488 754 515 q 641 449 685 460 q 554 439 597 438 q 468 449 511 438 q 390 489 425 461 q 334 563 356 517 q 313 679 313 610 m 771 1385 l 496 1189 l 518 1146 q 844 1261 836 1253 q 771 1385 849 1264 z "},"Þ":{"ha":906,"x_min":40,"x_max":876,"o":"m 329 178 l 331 213 q 419 183 371 193 q 529 174 467 174 q 685 197 621 174 q 790 266 749 221 q 853 375 832 311 q 876 519 874 439 q 853 664 874 600 q 790 773 832 728 q 685 842 749 818 q 529 867 621 867 q 326 826 404 867 q 333 894 328 865 q 352 942 339 924 q 390 970 365 961 q 451 979 414 979 l 451 1042 l 40 1042 l 40 979 l 54 979 q 118 967 96 979 q 151 926 140 954 q 165 854 163 899 q 167 746 167 810 l 167 274 q 165 169 167 210 q 151 104 163 128 q 113 72 139 81 q 42 63 88 63 l 42 0 l 453 0 l 453 63 l 439 63 q 356 86 378 63 q 329 169 335 110 l 329 178 m 328 496 l 328 544 q 342 660 328 614 q 381 735 356 707 q 443 774 407 763 q 522 785 479 786 q 601 775 565 786 q 663 736 638 764 q 703 661 689 708 q 717 544 717 614 l 717 496 q 703 379 717 426 q 663 304 689 332 q 601 265 638 276 q 522 256 565 254 q 443 266 479 254 q 381 306 407 278 q 342 380 356 333 q 328 496 328 426 z "},"ß":{"ha":826,"x_min":-135,"x_max":797,"o":"m 511 56 q 472 69 488 56 q 447 101 457 82 q 429 144 436 121 q 414 189 422 168 l 354 189 l 378 1 q 425 -1 408 1 q 456 -6 442 -3 q 485 -12 469 -10 q 526 -15 500 -15 q 622 -3 574 -15 q 710 33 671 8 q 773 98 749 58 q 797 192 797 138 q 778 275 797 240 q 727 335 758 310 q 657 380 696 361 q 579 414 618 399 q 531 440 549 426 q 505 468 514 453 q 494 503 496 483 q 492 547 492 522 q 504 588 492 571 q 536 617 517 606 q 581 635 556 629 q 633 642 607 642 q 690 597 667 597 q 728 614 714 596 q 749 657 743 632 q 754 690 756 682 q 727 850 751 783 q 657 960 703 917 q 543 1023 611 1003 q 386 1044 475 1043 q 274 1008 325 1038 q 186 931 224 979 q 128 819 149 883 q 107 679 107 754 l 107 632 l 10 632 l 10 528 l 107 528 l 107 43 q 89 -72 107 -26 q 39 -147 71 -118 q -37 -186 7 -175 q -135 -197 -82 -197 l -135 -278 l -133 -278 q 164 -179 61 -276 q 267 86 267 -82 l 267 722 q 280 836 267 790 q 317 909 293 882 q 375 948 340 936 q 453 960 410 960 q 593 903 544 960 q 639 718 642 847 q 438 660 511 713 q 365 525 365 607 q 374 438 365 474 q 400 376 382 401 q 446 333 418 351 q 514 301 474 315 q 572 278 544 290 q 622 250 600 265 q 656 215 643 235 q 669 169 669 194 q 657 121 669 142 q 622 85 644 100 q 572 63 600 71 q 511 56 543 56 z "},"à":{"ha":793,"x_min":35,"x_max":743,"o":"m 743 4 q 743 193 743 126 q 743 293 743 261 q 743 335 743 326 q 743 346 743 343 q 719 490 740 426 q 656 599 699 554 q 545 669 613 644 q 382 693 478 693 q 226 669 290 693 q 121 599 163 644 q 58 490 79 554 q 35 346 38 426 q 58 201 38 265 q 121 92 79 138 q 226 24 163 47 q 382 0 290 0 q 440 6 413 0 q 490 28 467 13 q 537 72 514 44 q 583 143 560 100 l 582 4 l 582 0 l 743 0 l 743 4 m 583 368 q 530 154 583 229 q 389 82 476 79 q 310 92 346 81 q 248 131 274 103 q 208 206 222 158 q 194 322 194 253 l 194 371 q 208 488 194 440 q 248 563 222 535 q 310 601 274 590 q 389 611 346 613 q 468 601 432 613 q 530 561 504 589 q 569 487 556 533 q 583 371 583 440 l 583 368 m 275 1040 q 203 917 197 921 q 528 801 206 910 l 549 844 l 275 1040 z "},"á":{"ha":793,"x_min":35,"x_max":743,"o":"m 743 4 q 743 193 743 126 q 743 293 743 261 q 743 335 743 326 q 743 346 743 343 q 719 490 740 426 q 656 599 699 554 q 545 669 613 644 q 382 693 478 693 q 226 669 290 693 q 121 599 163 644 q 58 490 79 554 q 35 346 38 426 q 58 201 38 265 q 121 92 79 138 q 226 24 163 47 q 382 0 290 0 q 440 6 413 0 q 490 28 467 13 q 537 72 514 44 q 583 143 560 100 l 582 4 l 582 0 l 743 0 l 743 4 m 583 368 q 530 154 583 229 q 389 82 476 79 q 310 92 346 81 q 248 131 274 103 q 208 206 222 158 q 194 322 194 253 l 194 371 q 208 488 194 440 q 248 563 222 535 q 310 601 274 590 q 389 611 346 613 q 468 601 432 613 q 530 561 504 589 q 569 487 556 533 q 583 371 583 440 l 583 368 m 551 1038 l 276 842 l 299 799 q 625 914 617 906 q 551 1038 629 917 z "},"â":{"ha":793,"x_min":35,"x_max":743,"o":"m 743 4 q 743 193 743 126 q 743 293 743 261 q 743 335 743 326 q 743 346 743 343 q 719 490 740 426 q 656 599 699 554 q 545 669 613 644 q 382 693 478 693 q 226 669 290 693 q 121 599 163 644 q 58 490 79 554 q 35 346 38 426 q 58 201 38 265 q 121 92 79 138 q 226 24 163 47 q 382 0 290 0 q 440 6 413 0 q 490 28 467 13 q 537 72 514 44 q 583 143 560 100 l 582 4 l 582 0 l 743 0 l 743 4 m 583 368 q 530 154 583 229 q 389 82 476 79 q 310 92 346 81 q 248 131 274 103 q 208 206 222 158 q 194 322 194 253 l 194 371 q 208 488 194 440 q 248 563 222 535 q 310 601 274 590 q 389 611 346 613 q 468 601 432 613 q 530 561 504 589 q 569 487 556 533 q 583 371 583 440 l 583 368 m 597 785 l 393 1039 l 193 788 l 203 764 l 396 881 l 588 761 l 597 785 z "},"ã":{"ha":793,"x_min":35,"x_max":743,"o":"m 743 4 q 743 193 743 126 q 743 293 743 261 q 743 335 743 326 q 743 346 743 343 q 719 490 740 426 q 656 599 699 554 q 545 669 613 644 q 382 693 478 693 q 226 669 290 693 q 121 599 163 644 q 58 490 79 554 q 35 346 38 426 q 58 201 38 265 q 121 92 79 138 q 226 24 163 47 q 382 0 290 0 q 440 6 413 0 q 490 28 467 13 q 537 72 514 44 q 583 143 560 100 l 582 4 l 582 0 l 743 0 l 743 4 m 583 368 q 530 154 583 229 q 389 82 476 79 q 310 92 346 81 q 248 131 274 103 q 208 206 222 158 q 194 322 194 253 l 194 371 q 208 488 194 440 q 248 563 222 535 q 310 601 274 590 q 389 611 346 613 q 468 601 432 613 q 530 561 504 589 q 569 487 556 533 q 583 371 583 440 l 583 368 m 625 935 l 604 958 q 560 919 586 938 q 507 900 533 900 q 469 909 490 900 q 421 935 449 918 q 328 969 368 969 q 168 817 215 969 q 176 812 172 813 q 182 810 179 811 q 188 808 185 810 q 194 799 192 806 q 241 849 215 835 q 289 864 267 864 q 333 854 308 864 q 390 826 358 844 q 492 790 453 790 q 625 935 572 790 z "},"ä":{"ha":793,"x_min":35,"x_max":743,"o":"m 743 4 q 743 193 743 126 q 743 293 743 261 q 743 335 743 326 q 743 346 743 343 q 719 490 740 426 q 656 599 699 554 q 545 669 613 644 q 382 693 478 693 q 226 669 290 693 q 121 599 163 644 q 58 490 79 554 q 35 346 38 426 q 58 201 38 265 q 121 92 79 138 q 226 24 163 47 q 382 0 290 0 q 440 6 413 0 q 490 28 467 13 q 537 72 514 44 q 583 143 560 100 l 582 4 l 582 0 l 743 0 l 743 4 m 583 368 q 530 154 583 229 q 389 82 476 79 q 310 92 346 81 q 248 131 274 103 q 208 206 222 158 q 194 322 194 253 l 194 371 q 208 488 194 440 q 248 563 222 535 q 310 601 274 590 q 389 611 346 613 q 468 601 432 613 q 530 561 504 589 q 569 487 556 533 q 583 371 583 440 l 583 368 m 182 879 q 207 817 182 842 q 268 793 232 793 q 330 817 304 793 q 356 879 356 842 q 330 939 356 914 q 268 964 304 964 q 207 939 232 964 q 182 879 182 914 m 443 879 q 468 817 443 842 q 528 793 493 793 q 591 817 565 793 q 617 879 617 842 q 590 939 617 914 q 528 964 564 964 q 469 939 494 964 q 443 879 443 914 z "},"å":{"ha":793,"x_min":35,"x_max":743,"o":"m 743 4 q 743 193 743 126 q 743 293 743 261 q 743 335 743 326 q 743 346 743 343 q 719 490 740 426 q 656 599 699 554 q 545 669 613 644 q 382 693 478 693 q 226 669 290 693 q 121 599 163 644 q 58 490 79 554 q 35 346 38 426 q 58 201 38 265 q 121 92 79 138 q 226 24 163 47 q 382 0 290 0 q 440 6 413 0 q 490 28 467 13 q 537 72 514 44 q 583 143 560 100 l 582 4 l 582 0 l 743 0 l 743 4 m 583 368 q 530 154 583 229 q 389 82 476 79 q 310 92 346 81 q 248 131 274 103 q 208 206 222 158 q 194 322 194 253 l 194 371 q 208 488 194 440 q 248 563 222 535 q 310 601 274 590 q 389 611 346 613 q 468 601 432 613 q 530 561 504 589 q 569 487 556 533 q 583 371 583 440 l 583 368 m 525 903 q 515 956 525 931 q 485 999 504 981 q 442 1029 467 1018 q 388 1040 417 1040 q 290 1001 329 1040 q 250 903 250 961 q 260 850 250 875 q 290 806 271 825 q 333 776 308 788 q 388 765 358 765 q 440 776 415 765 q 484 805 465 786 q 514 849 503 824 q 525 903 525 874 m 392 826 q 335 849 358 826 q 313 904 313 872 q 335 960 313 936 q 392 983 358 983 q 447 960 424 983 q 469 904 469 936 q 447 849 469 871 q 392 826 424 826 z "},"æ":{"ha":1289,"x_min":35,"x_max":1261,"o":"m 743 0 l 743 60 q 832 19 783 33 q 935 6 881 6 q 1028 19 983 3 q 1115 56 1072 36 l 1104 101 q 965 78 1017 78 q 867 96 907 78 q 802 143 828 114 q 763 208 776 172 q 743 279 749 244 l 743 307 l 1257 307 q 1258 328 1257 315 q 1258 349 1258 342 q 1238 478 1261 417 q 1169 587 1214 540 q 1063 660 1125 633 q 924 689 1000 688 q 784 656 847 686 q 676 575 721 625 q 562 663 633 632 q 382 693 490 693 q 226 669 290 693 q 121 599 163 644 q 58 490 79 554 q 35 346 38 426 q 58 201 38 265 q 121 92 79 138 q 226 24 163 47 q 382 0 290 0 q 440 6 413 0 q 490 28 467 13 q 537 72 514 44 q 583 143 560 100 l 582 4 l 582 0 l 743 0 m 583 368 q 530 154 583 229 q 389 82 476 79 q 310 92 346 81 q 248 131 274 103 q 208 206 222 158 q 194 322 194 253 l 194 371 q 208 488 194 440 q 248 563 222 535 q 310 601 274 590 q 389 611 346 613 q 468 601 432 613 q 530 561 504 589 q 569 487 556 533 q 583 371 583 440 l 583 368 m 918 610 l 921 610 q 1046 558 997 610 q 1106 393 1094 507 l 742 393 q 758 474 746 435 q 792 542 771 513 q 845 591 814 572 q 918 610 876 610 z "},"ç":{"ha":713,"x_min":39,"x_max":685,"o":"m 394 594 q 463 588 435 594 q 511 565 490 581 q 549 526 532 550 q 585 471 565 503 q 644 517 624 504 q 673 534 664 531 q 681 537 682 538 q 678 542 681 536 q 622 611 663 574 q 504 674 582 649 q 319 679 404 697 q 172 613 235 661 q 74 492 110 565 q 39 329 39 418 q 58 208 39 264 q 110 107 76 151 q 193 33 144 63 q 300 -8 242 3 q 284 -70 292 -37 q 271 -119 276 -103 q 278 -128 268 -126 q 303 -130 289 -131 q 329 -127 317 -129 q 342 -125 342 -125 q 390 -140 365 -125 q 422 -178 415 -154 q 417 -215 429 -204 q 383 -227 406 -226 q 332 -222 361 -228 q 275 -206 303 -215 q 225 -190 247 -197 q 194 -181 203 -182 q 185 -195 186 -179 q 186 -217 185 -211 q 230 -251 190 -236 q 322 -274 269 -267 q 427 -274 374 -281 q 511 -243 481 -268 q 538 -209 526 -231 q 549 -164 549 -187 q 534 -119 549 -140 q 483 -86 519 -97 q 416 -69 447 -72 q 335 -83 385 -67 q 343 -49 339 -67 q 351 -14 347 -32 q 365 -15 358 -15 q 381 -15 374 -15 q 491 -8 446 -14 q 569 8 536 -1 q 629 30 603 18 q 685 54 656 42 l 682 99 q 482 70 571 61 q 330 115 393 79 q 230 201 267 150 q 188 299 193 251 q 192 431 178 376 q 238 519 207 485 q 309 571 268 553 q 394 594 350 589 z "},"è":{"ha":747,"x_min":49,"x_max":721,"o":"m 717 303 q 717 324 717 311 q 718 344 718 338 q 697 474 721 413 q 629 583 674 536 q 522 656 585 629 q 383 685 460 683 q 250 654 311 682 q 144 580 189 626 q 74 472 99 533 q 49 342 49 411 q 78 204 51 267 q 151 97 106 142 q 259 26 197 51 q 394 1 321 1 q 488 15 443 -1 q 575 51 532 32 l 564 97 q 425 74 476 74 q 321 96 363 74 q 253 151 279 118 q 216 225 228 185 q 200 303 204 265 l 717 303 m 378 606 l 381 606 q 506 554 457 606 q 565 389 554 503 l 201 389 q 218 469 206 431 q 252 538 231 508 q 305 587 274 568 q 378 606 336 606 m 263 1040 q 190 917 185 921 q 515 801 193 910 l 536 844 l 263 1040 z "},"é":{"ha":747,"x_min":49,"x_max":721,"o":"m 717 303 q 717 324 717 311 q 718 344 718 338 q 697 474 721 413 q 629 583 674 536 q 522 656 585 629 q 383 685 460 683 q 250 654 311 682 q 144 580 189 626 q 74 472 99 533 q 49 342 49 411 q 78 204 51 267 q 151 97 106 142 q 259 26 197 51 q 394 1 321 1 q 488 15 443 -1 q 575 51 532 32 l 564 97 q 425 74 476 74 q 321 96 363 74 q 253 151 279 118 q 216 225 228 185 q 200 303 204 265 l 717 303 m 378 606 l 381 606 q 506 554 457 606 q 565 389 554 503 l 201 389 q 218 469 206 431 q 252 538 231 508 q 305 587 274 568 q 378 606 336 606 m 522 1038 l 247 842 l 269 799 q 596 914 588 906 q 522 1038 600 917 z "},"ê":{"ha":747,"x_min":49,"x_max":721,"o":"m 717 303 q 717 324 717 311 q 718 344 718 338 q 697 474 721 413 q 629 583 674 536 q 522 656 585 629 q 383 685 460 683 q 250 654 311 682 q 144 580 189 626 q 74 472 99 533 q 49 342 49 411 q 78 204 51 267 q 151 97 106 142 q 259 26 197 51 q 394 1 321 1 q 488 15 443 -1 q 575 51 532 32 l 564 97 q 425 74 476 74 q 321 96 363 74 q 253 151 279 118 q 216 225 228 185 q 200 303 204 265 l 717 303 m 378 606 l 381 606 q 506 554 457 606 q 565 389 554 503 l 201 389 q 218 469 206 431 q 252 538 231 508 q 305 587 274 568 q 378 606 336 606 m 593 785 l 389 1039 l 189 788 l 199 764 l 392 881 l 583 761 l 593 785 z "},"ë":{"ha":747,"x_min":49,"x_max":721,"o":"m 717 303 q 717 324 717 311 q 718 344 718 338 q 697 474 721 413 q 629 583 674 536 q 522 656 585 629 q 383 685 460 683 q 250 654 311 682 q 144 580 189 626 q 74 472 99 533 q 49 342 49 411 q 78 204 51 267 q 151 97 106 142 q 259 26 197 51 q 394 1 321 1 q 488 15 443 -1 q 575 51 532 32 l 564 97 q 425 74 476 74 q 321 96 363 74 q 253 151 279 118 q 216 225 228 185 q 200 303 204 265 l 717 303 m 378 606 l 381 606 q 506 554 457 606 q 565 389 554 503 l 201 389 q 218 469 206 431 q 252 538 231 508 q 305 587 274 568 q 378 606 336 606 m 158 879 q 183 817 158 842 q 244 793 208 793 q 306 817 281 793 q 332 879 332 842 q 306 939 332 914 q 244 964 281 964 q 183 939 208 964 q 158 879 158 914 m 419 879 q 444 817 419 842 q 504 793 469 793 q 567 817 542 793 q 593 879 593 842 q 567 939 593 914 q 504 964 540 964 q 445 939 471 964 q 419 879 419 914 z "},"ì":{"ha":478,"x_min":40,"x_max":453,"o":"m 326 410 q 328 516 326 474 q 342 584 331 558 q 380 621 354 610 q 451 632 406 632 l 451 694 l 40 694 l 40 632 l 54 632 q 118 621 96 632 q 151 584 140 610 q 165 516 163 558 q 167 410 167 474 l 167 285 q 165 178 167 221 q 151 110 163 136 q 113 74 139 85 q 42 63 88 63 l 42 0 l 453 0 l 453 63 l 439 63 q 375 74 397 63 q 342 110 353 85 q 328 178 331 136 q 326 285 326 221 l 326 410 m 147 1042 q 75 918 69 922 q 400 803 78 911 l 421 846 l 147 1042 z "},"í":{"ha":478,"x_min":40,"x_max":453,"o":"m 326 410 q 328 516 326 474 q 342 584 331 558 q 380 621 354 610 q 451 632 406 632 l 451 694 l 40 694 l 40 632 l 54 632 q 118 621 96 632 q 151 584 140 610 q 165 516 163 558 q 167 410 167 474 l 167 285 q 165 178 167 221 q 151 110 163 136 q 113 74 139 85 q 42 63 88 63 l 42 0 l 453 0 l 453 63 l 439 63 q 375 74 397 63 q 342 110 353 85 q 328 178 331 136 q 326 285 326 221 l 326 410 m 351 1042 l 76 846 l 99 803 q 425 918 417 910 q 351 1042 429 921 z "},"î":{"ha":478,"x_min":40,"x_max":453,"o":"m 326 410 q 328 516 326 474 q 342 584 331 558 q 380 621 354 610 q 451 632 406 632 l 451 694 l 40 694 l 40 632 l 54 632 q 118 621 96 632 q 151 584 140 610 q 165 516 163 558 q 167 410 167 474 l 167 285 q 165 178 167 221 q 151 110 163 136 q 113 74 139 85 q 42 63 88 63 l 42 0 l 453 0 l 453 63 l 439 63 q 375 74 397 63 q 342 110 353 85 q 328 178 331 136 q 326 285 326 221 l 326 410 m 446 785 l 242 1039 l 42 788 l 51 764 l 244 881 l 436 761 l 446 785 z "},"ï":{"ha":478,"x_min":31,"x_max":465,"o":"m 326 410 q 328 516 326 474 q 342 584 331 558 q 380 621 354 610 q 451 632 406 632 l 451 694 l 40 694 l 40 632 l 54 632 q 118 621 96 632 q 151 584 140 610 q 165 516 163 558 q 167 410 167 474 l 167 285 q 165 178 167 221 q 151 110 163 136 q 113 74 139 85 q 42 63 88 63 l 42 0 l 453 0 l 453 63 l 439 63 q 375 74 397 63 q 342 110 353 85 q 328 178 331 136 q 326 285 326 221 l 326 410 m 31 879 q 56 817 31 842 q 117 793 81 793 q 178 817 153 793 q 204 879 204 842 q 178 939 204 914 q 117 964 153 964 q 56 939 81 964 q 31 879 31 914 m 292 879 q 317 817 292 842 q 376 793 342 793 q 440 817 414 793 q 465 879 465 842 q 439 939 465 914 q 376 964 413 964 q 317 939 343 964 q 292 879 292 914 z "},"ð":{"ha":801,"x_min":49,"x_max":764,"o":"m 629 1040 l 529 968 q 425 1022 482 1003 q 299 1042 368 1042 l 275 1013 q 378 973 332 996 q 460 918 424 950 l 347 838 l 397 786 l 508 865 q 560 767 540 822 q 586 636 579 711 q 506 672 553 651 q 410 693 458 693 q 247 665 314 693 q 136 590 179 638 q 72 479 93 542 q 49 347 51 417 q 71 217 50 279 q 135 106 92 154 q 246 29 178 58 q 410 0 314 0 q 565 29 501 0 q 671 106 629 58 q 733 217 713 154 q 757 347 754 279 q 758 492 764 415 q 731 647 751 569 q 674 795 710 724 q 585 921 638 867 l 679 989 l 629 1040 m 208 371 q 222 487 208 440 q 262 561 236 533 q 324 601 288 589 q 403 611 360 613 q 482 601 446 613 q 544 563 518 590 q 583 488 569 535 q 597 371 597 440 l 597 322 q 583 206 597 253 q 544 131 569 158 q 482 92 518 103 q 403 82 446 81 q 324 92 360 81 q 262 132 288 104 q 222 206 236 160 q 208 322 208 253 l 208 371 z "},"ñ":{"ha":1014,"x_min":35,"x_max":978,"o":"m 692 367 l 692 279 q 690 173 692 215 q 676 105 688 131 q 638 68 664 79 q 567 57 613 57 l 567 -6 l 978 -6 l 978 53 l 964 57 q 900 68 922 57 q 867 105 878 79 q 853 173 856 131 q 851 279 851 215 l 851 324 q 833 476 851 408 q 773 590 814 543 q 667 663 732 638 q 508 689 601 689 q 251 591 340 689 q 161 324 161 493 l 161 279 q 159 173 161 215 q 146 105 157 131 q 113 68 135 79 q 49 57 90 57 l 35 57 l 35 -6 l 446 -6 l 446 57 q 374 68 400 57 q 337 105 349 79 q 323 173 325 131 q 321 279 321 215 l 321 367 q 335 483 321 436 q 374 558 349 531 q 436 597 400 586 q 515 607 472 608 q 592 597 558 608 q 647 557 625 585 q 681 483 669 529 q 692 367 692 436 m 733 935 l 713 958 q 668 919 694 938 q 615 900 642 900 q 578 909 599 900 q 529 935 557 918 q 436 969 476 969 q 276 817 324 969 q 284 812 281 813 q 290 810 288 811 q 297 808 293 810 q 303 799 300 806 q 349 849 324 835 q 397 864 375 864 q 442 854 417 864 q 499 826 467 844 q 600 790 561 790 q 733 935 681 790 z "},"ò":{"ha":793,"x_min":44,"x_max":753,"o":"m 406 693 q 242 664 310 693 q 131 587 174 635 q 67 476 88 539 q 44 346 46 414 q 68 214 47 276 q 132 103 89 151 q 242 28 175 56 q 406 0 310 0 q 562 28 497 0 q 668 102 626 56 q 730 212 710 149 q 753 346 750 275 q 729 476 750 414 q 667 587 708 539 q 561 664 625 635 q 406 693 497 693 m 204 322 l 204 371 q 218 487 204 440 q 258 561 232 533 q 319 601 283 589 q 399 611 356 613 q 478 601 442 613 q 540 563 514 590 q 579 488 565 535 q 593 371 593 440 l 593 322 q 579 206 593 253 q 540 131 565 158 q 478 92 514 103 q 399 82 442 81 q 319 92 356 81 q 258 132 283 104 q 218 206 232 160 q 204 322 204 253 m 275 1040 q 203 917 197 921 q 528 801 206 910 l 549 844 l 275 1040 z "},"ó":{"ha":793,"x_min":44,"x_max":753,"o":"m 406 693 q 242 664 310 693 q 131 587 174 635 q 67 476 88 539 q 44 346 46 414 q 68 214 47 276 q 132 103 89 151 q 242 28 175 56 q 406 0 310 0 q 562 28 497 0 q 668 102 626 56 q 730 212 710 149 q 753 346 750 275 q 729 476 750 414 q 667 587 708 539 q 561 664 625 635 q 406 693 497 693 m 204 322 l 204 371 q 218 487 204 440 q 258 561 232 533 q 319 601 283 589 q 399 611 356 613 q 478 601 442 613 q 540 563 514 590 q 579 488 565 535 q 593 371 593 440 l 593 322 q 579 206 593 253 q 540 131 565 158 q 478 92 514 103 q 399 82 442 81 q 319 92 356 81 q 258 132 283 104 q 218 206 232 160 q 204 322 204 253 m 551 1038 l 276 842 l 299 799 q 625 914 617 906 q 551 1038 629 917 z "},"ô":{"ha":793,"x_min":44,"x_max":753,"o":"m 406 693 q 242 664 310 693 q 131 587 174 635 q 67 476 88 539 q 44 346 46 414 q 68 214 47 276 q 132 103 89 151 q 242 28 175 56 q 406 0 310 0 q 562 28 497 0 q 668 102 626 56 q 730 212 710 149 q 753 346 750 275 q 729 476 750 414 q 667 587 708 539 q 561 664 625 635 q 406 693 497 693 m 204 322 l 204 371 q 218 487 204 440 q 258 561 232 533 q 319 601 283 589 q 399 611 356 613 q 478 601 442 613 q 540 563 514 590 q 579 488 565 535 q 593 371 593 440 l 593 322 q 579 206 593 253 q 540 131 565 158 q 478 92 514 103 q 399 82 442 81 q 319 92 356 81 q 258 132 283 104 q 218 206 232 160 q 204 322 204 253 m 597 785 l 393 1039 l 193 788 l 203 764 l 396 881 l 588 761 l 597 785 z "},"õ":{"ha":793,"x_min":44,"x_max":753,"o":"m 406 693 q 242 664 310 693 q 131 587 174 635 q 67 476 88 539 q 44 346 46 414 q 68 214 47 276 q 132 103 89 151 q 242 28 175 56 q 406 0 310 0 q 562 28 497 0 q 668 102 626 56 q 730 212 710 149 q 753 346 750 275 q 729 476 750 414 q 667 587 708 539 q 561 664 625 635 q 406 693 497 693 m 204 322 l 204 371 q 218 487 204 440 q 258 561 232 533 q 319 601 283 589 q 399 611 356 613 q 478 601 442 613 q 540 563 514 590 q 579 488 565 535 q 593 371 593 440 l 593 322 q 579 206 593 253 q 540 131 565 158 q 478 92 514 103 q 399 82 442 81 q 319 92 356 81 q 258 132 283 104 q 218 206 232 160 q 204 322 204 253 m 625 935 l 604 958 q 560 919 586 938 q 507 900 533 900 q 469 909 490 900 q 421 935 449 918 q 328 969 368 969 q 168 817 215 969 q 176 812 172 813 q 182 810 179 811 q 188 808 185 810 q 194 799 192 806 q 241 849 215 835 q 289 864 267 864 q 333 854 308 864 q 390 826 358 844 q 492 790 453 790 q 625 935 572 790 z "},"ö":{"ha":793,"x_min":44,"x_max":753,"o":"m 406 693 q 242 664 310 693 q 131 587 174 635 q 67 476 88 539 q 44 346 46 414 q 68 214 47 276 q 132 103 89 151 q 242 28 175 56 q 406 0 310 0 q 562 28 497 0 q 668 102 626 56 q 730 212 710 149 q 753 346 750 275 q 729 476 750 414 q 667 587 708 539 q 561 664 625 635 q 406 693 497 693 m 204 322 l 204 371 q 218 487 204 440 q 258 561 232 533 q 319 601 283 589 q 399 611 356 613 q 478 601 442 613 q 540 563 514 590 q 579 488 565 535 q 593 371 593 440 l 593 322 q 579 206 593 253 q 540 131 565 158 q 478 92 514 103 q 399 82 442 81 q 319 92 356 81 q 258 132 283 104 q 218 206 232 160 q 204 322 204 253 m 182 879 q 207 817 182 842 q 268 793 232 793 q 330 817 304 793 q 356 879 356 842 q 330 939 356 914 q 268 964 304 964 q 207 939 232 964 q 182 879 182 914 m 443 879 q 468 817 443 842 q 528 793 493 793 q 591 817 565 793 q 617 879 617 842 q 590 939 617 914 q 528 964 564 964 q 469 939 494 964 q 443 879 443 914 z "},"÷":{"ha":685,"x_min":24,"x_max":657,"o":"m 24 568 l 24 478 l 657 478 l 657 568 l 24 568 m 353 796 q 290 772 308 796 q 269 715 271 747 q 290 660 271 683 q 353 636 308 636 q 413 660 394 636 q 433 715 431 683 q 413 772 431 747 q 353 796 394 796 m 354 410 q 291 385 310 410 q 271 329 272 361 q 291 274 272 297 q 354 250 310 250 q 414 274 396 250 q 435 329 432 297 q 414 385 432 361 q 354 410 396 410 z "},"ø":{"ha":801,"x_min":44,"x_max":753,"o":"m 596 767 q 581 740 596 767 q 542 671 565 714 q 478 688 513 682 q 406 693 444 693 q 242 664 310 693 q 131 587 174 635 q 67 476 88 539 q 44 346 46 414 q 84 176 49 254 q 197 50 119 97 q 147 -40 165 -6 q 131 -74 129 -74 l 201 -74 q 217 -47 201 -74 q 257 22 232 -21 q 326 6 289 11 q 406 0 363 0 q 562 28 497 0 q 668 102 626 56 q 730 212 710 149 q 753 346 750 275 q 713 516 749 436 q 601 643 678 596 q 651 733 632 699 q 669 767 669 767 l 596 767 m 204 322 l 204 371 q 218 487 204 440 q 258 561 232 533 q 319 601 283 589 q 399 611 356 613 q 499 593 456 614 q 440 488 471 544 q 376 372 408 431 q 310 254 343 313 q 249 143 278 196 q 215 216 226 172 q 204 322 204 260 m 593 371 l 593 322 q 579 206 593 253 q 540 131 565 158 q 478 92 514 103 q 399 82 442 81 q 300 100 340 79 q 358 206 326 149 q 422 321 390 263 q 487 438 454 379 q 549 549 519 496 q 581 477 569 521 q 593 371 593 433 z "},"ù":{"ha":1007,"x_min":29,"x_max":972,"o":"m 315 322 l 315 410 q 317 516 315 474 q 331 584 319 558 q 369 621 343 610 q 440 632 394 632 l 440 694 l 29 694 l 29 636 l 43 632 q 107 621 85 632 q 140 584 129 610 q 153 516 151 558 q 156 410 156 474 l 156 365 q 176 213 156 281 q 240 99 197 146 q 350 26 283 51 q 510 0 417 0 q 761 98 676 0 q 846 365 846 196 l 846 410 q 848 516 846 474 q 861 584 850 558 q 894 621 872 610 q 958 632 917 632 l 972 632 l 972 694 l 561 694 l 561 632 q 633 621 607 632 q 670 584 658 610 q 684 516 682 558 q 686 410 686 474 l 686 322 q 674 206 686 253 q 638 131 661 158 q 580 92 614 103 q 503 82 546 81 q 425 92 460 81 q 366 132 390 104 q 328 206 342 160 q 315 322 315 253 m 342 1040 q 269 917 264 921 q 594 801 272 910 l 615 844 l 342 1040 z "},"ú":{"ha":1007,"x_min":29,"x_max":972,"o":"m 315 322 l 315 410 q 317 516 315 474 q 331 584 319 558 q 369 621 343 610 q 440 632 394 632 l 440 694 l 29 694 l 29 636 l 43 632 q 107 621 85 632 q 140 584 129 610 q 153 516 151 558 q 156 410 156 474 l 156 365 q 176 213 156 281 q 240 99 197 146 q 350 26 283 51 q 510 0 417 0 q 761 98 676 0 q 846 365 846 196 l 846 410 q 848 516 846 474 q 861 584 850 558 q 894 621 872 610 q 958 632 917 632 l 972 632 l 972 694 l 561 694 l 561 632 q 633 621 607 632 q 670 584 658 610 q 684 516 682 558 q 686 410 686 474 l 686 322 q 674 206 686 253 q 638 131 661 158 q 580 92 614 103 q 503 82 546 81 q 425 92 460 81 q 366 132 390 104 q 328 206 342 160 q 315 322 315 253 m 654 1038 l 379 842 l 401 799 q 728 914 719 906 q 654 1038 732 917 z "},"û":{"ha":1007,"x_min":29,"x_max":972,"o":"m 315 322 l 315 410 q 317 516 315 474 q 331 584 319 558 q 369 621 343 610 q 440 632 394 632 l 440 694 l 29 694 l 29 636 l 43 632 q 107 621 85 632 q 140 584 129 610 q 153 516 151 558 q 156 410 156 474 l 156 365 q 176 213 156 281 q 240 99 197 146 q 350 26 283 51 q 510 0 417 0 q 761 98 676 0 q 846 365 846 196 l 846 410 q 848 516 846 474 q 861 584 850 558 q 894 621 872 610 q 958 632 917 632 l 972 632 l 972 694 l 561 694 l 561 632 q 633 621 607 632 q 670 584 658 610 q 684 516 682 558 q 686 410 686 474 l 686 322 q 674 206 686 253 q 638 131 661 158 q 580 92 614 103 q 503 82 546 81 q 425 92 460 81 q 366 132 390 104 q 328 206 342 160 q 315 322 315 253 m 701 788 l 497 1042 l 297 790 l 307 767 l 500 883 l 692 764 l 701 788 z "},"ü":{"ha":1007,"x_min":29,"x_max":972,"o":"m 315 322 l 315 410 q 317 516 315 474 q 331 584 319 558 q 369 621 343 610 q 440 632 394 632 l 440 694 l 29 694 l 29 636 l 43 632 q 107 621 85 632 q 140 584 129 610 q 153 516 151 558 q 156 410 156 474 l 156 365 q 176 213 156 281 q 240 99 197 146 q 350 26 283 51 q 510 0 417 0 q 761 98 676 0 q 846 365 846 196 l 846 410 q 848 516 846 474 q 861 584 850 558 q 894 621 872 610 q 958 632 917 632 l 972 632 l 972 694 l 561 694 l 561 632 q 633 621 607 632 q 670 584 658 610 q 684 516 682 558 q 686 410 686 474 l 686 322 q 674 206 686 253 q 638 131 661 158 q 580 92 614 103 q 503 82 546 81 q 425 92 460 81 q 366 132 390 104 q 328 206 342 160 q 315 322 315 253 m 288 879 q 313 817 288 842 q 374 793 338 793 q 435 817 410 793 q 461 879 461 842 q 435 939 461 914 q 374 964 410 964 q 313 939 338 964 q 288 879 288 914 m 549 879 q 574 817 549 842 q 633 793 599 793 q 697 817 671 793 q 722 879 722 842 q 696 939 722 914 q 633 964 669 964 q 574 939 600 964 q 549 879 549 914 z "},"ý":{"ha":1007,"x_min":26,"x_max":969,"o":"m 863 -272 l 863 -210 l 860 -210 q 799 -208 822 -210 q 765 -201 776 -207 q 749 -184 753 -196 q 747 -151 746 -172 q 735 -96 744 -119 q 710 -54 726 -72 q 669 -20 693 -36 q 614 13 646 -4 q 649 23 632 19 q 682 38 665 26 q 803 164 763 81 q 843 365 843 247 l 843 410 q 845 516 843 474 q 858 584 847 558 q 892 621 869 610 q 956 632 914 632 l 969 632 l 969 694 l 558 694 l 558 632 q 630 621 604 632 q 667 584 656 610 q 681 516 679 558 q 683 410 683 474 l 683 322 q 671 206 683 253 q 635 131 658 158 q 577 92 611 103 q 500 82 543 81 q 422 92 457 81 q 363 132 388 104 q 326 206 339 160 q 313 322 313 253 l 313 410 q 315 516 313 474 q 328 584 317 558 q 366 621 340 610 q 438 632 392 632 l 438 694 l 26 694 l 26 636 l 40 632 q 104 621 82 632 q 138 584 126 610 q 151 516 149 558 q 153 410 153 474 l 153 365 q 210 131 153 224 q 394 11 268 39 q 458 -3 426 4 q 517 -24 490 -10 q 563 -60 544 -37 q 586 -118 581 -82 q 578 -169 583 -151 q 558 -197 572 -187 q 522 -208 544 -206 q 463 -210 499 -210 l 463 -272 l 863 -272 m 654 1038 l 379 842 l 401 799 q 728 914 719 906 q 654 1038 732 917 z "},"þ":{"ha":869,"x_min":8,"x_max":831,"o":"m 8 979 l 22 979 q 86 968 64 979 q 119 931 108 957 q 133 863 131 906 q 135 757 135 821 q 134 570 135 644 q 133 443 133 496 q 133 350 133 390 q 133 263 133 310 q 133 157 133 217 q 133 4 133 97 q 131 -102 133 -60 q 117 -170 129 -144 q 80 -207 106 -196 q 8 -218 54 -218 l 8 -281 l 406 -281 l 406 -218 l 392 -218 q 329 -207 351 -218 q 297 -171 307 -196 q 286 -104 288 -146 q 285 -1 285 -62 l 285 39 q 373 10 325 19 q 483 0 421 0 q 639 24 575 0 q 744 92 703 47 q 807 201 786 138 q 831 346 828 265 q 807 490 828 426 q 744 599 786 554 q 639 669 703 644 q 483 693 575 693 q 372 683 421 693 q 285 654 324 674 l 285 757 q 287 863 285 821 q 301 931 289 906 q 338 968 313 957 q 410 979 364 979 l 410 1042 l 8 1042 l 8 979 m 476 611 q 556 601 519 613 q 617 563 592 590 q 657 488 643 535 q 671 371 671 440 l 671 322 q 657 206 671 253 q 617 131 643 158 q 556 92 592 103 q 476 82 519 81 q 348 141 399 79 q 286 307 297 203 l 286 347 q 301 485 286 432 q 342 566 317 538 q 403 603 368 594 q 476 611 438 613 z "},"ÿ":{"ha":1007,"x_min":26,"x_max":969,"o":"m 863 -272 l 863 -210 l 860 -210 q 799 -208 822 -210 q 765 -201 776 -207 q 749 -184 753 -196 q 747 -151 746 -172 q 735 -96 744 -119 q 710 -54 726 -72 q 669 -20 693 -36 q 614 13 646 -4 q 649 23 632 19 q 682 38 665 26 q 803 164 763 81 q 843 365 843 247 l 843 410 q 845 516 843 474 q 858 584 847 558 q 892 621 869 610 q 956 632 914 632 l 969 632 l 969 694 l 558 694 l 558 632 q 630 621 604 632 q 667 584 656 610 q 681 516 679 558 q 683 410 683 474 l 683 322 q 671 206 683 253 q 635 131 658 158 q 577 92 611 103 q 500 82 543 81 q 422 92 457 81 q 363 132 388 104 q 326 206 339 160 q 313 322 313 253 l 313 410 q 315 516 313 474 q 328 584 317 558 q 366 621 340 610 q 438 632 392 632 l 438 694 l 26 694 l 26 636 l 40 632 q 104 621 82 632 q 138 584 126 610 q 151 516 149 558 q 153 410 153 474 l 153 365 q 210 131 153 224 q 394 11 268 39 q 458 -3 426 4 q 517 -24 490 -10 q 563 -60 544 -37 q 586 -118 581 -82 q 578 -169 583 -151 q 558 -197 572 -187 q 522 -208 544 -206 q 463 -210 499 -210 l 463 -272 l 863 -272 m 288 879 q 313 817 288 842 q 374 793 338 793 q 435 817 410 793 q 461 879 461 842 q 435 939 461 914 q 374 964 410 964 q 313 939 338 964 q 288 879 288 914 m 549 879 q 574 817 549 842 q 633 793 599 793 q 697 817 671 793 q 722 879 722 842 q 696 939 722 914 q 633 964 669 964 q 574 939 600 964 q 549 879 549 914 z "},"⁴":{"ha":538,"x_min":10,"x_max":510,"o":"m 10 607 l 26 565 l 293 565 q 290 519 293 538 q 281 488 288 500 q 258 472 274 476 q 218 467 243 467 l 218 401 l 493 401 l 493 467 l 471 467 q 426 488 435 467 q 418 565 418 510 l 510 565 l 510 718 l 444 718 l 444 690 q 441 655 444 667 q 418 640 438 643 l 418 1043 l 300 1043 l 10 607 m 139 640 l 300 864 l 300 640 l 139 640 z "},"Ŗ":{"ha":972,"x_min":13,"x_max":942,"o":"m 424 0 l 424 63 l 410 63 q 346 74 368 63 q 313 110 324 85 q 299 178 301 136 q 297 285 297 221 l 297 443 q 382 385 335 407 q 468 353 429 363 q 548 318 517 333 q 599 284 579 303 q 627 237 618 265 q 640 163 636 208 q 632 110 638 129 q 613 80 626 90 q 576 66 599 69 q 517 63 553 63 l 517 0 l 917 0 l 917 63 l 914 63 q 853 65 876 63 q 819 75 831 68 q 803 95 807 82 q 801 129 800 108 q 792 213 801 176 q 767 276 783 249 q 725 324 750 303 q 667 363 700 344 q 865 476 794 390 q 942 696 936 563 q 832 950 935 857 q 546 1043 729 1043 q 248 950 353 1043 q 138 696 143 857 l 138 285 q 135 178 138 221 q 122 110 133 136 q 84 74 110 85 q 13 63 58 63 l 13 0 l 424 0 m 297 721 q 319 837 297 790 q 375 911 340 883 q 453 951 410 939 q 539 961 496 963 q 626 951 582 963 q 704 913 669 940 q 760 838 739 885 q 782 721 782 790 l 782 672 q 760 556 782 603 q 704 481 739 508 q 626 442 669 453 q 539 432 582 431 q 456 441 497 431 q 380 477 414 451 q 323 545 346 503 q 297 651 300 588 l 297 721 m 503 -225 q 495 -269 507 -246 q 466 -314 483 -293 q 431 -351 449 -335 q 410 -372 414 -367 q 404 -390 399 -382 q 410 -399 410 -399 q 491 -326 460 -358 q 540 -263 522 -293 q 563 -206 557 -233 q 569 -147 569 -178 q 565 -117 569 -133 q 548 -86 560 -100 q 519 -63 536 -72 q 476 -54 501 -54 q 416 -81 436 -54 q 396 -147 396 -107 q 402 -175 396 -161 q 422 -201 408 -189 q 455 -219 435 -212 q 503 -225 475 -226 z "},"ŗ":{"ha":642,"x_min":15,"x_max":629,"o":"m 550 694 q 247 597 351 694 q 142 329 142 499 l 142 285 q 140 178 142 221 q 126 110 138 136 q 93 74 115 85 q 29 63 71 63 l 15 58 l 15 0 l 426 0 l 426 63 q 355 74 381 63 q 317 110 329 85 q 303 178 306 136 q 301 285 301 221 l 301 385 q 323 501 301 454 q 379 575 344 547 q 457 615 414 603 q 543 625 500 626 q 578 624 560 625 q 613 621 596 624 l 613 693 q 581 694 597 694 q 550 694 565 694 m 563 -85 q 555 -129 567 -106 q 526 -174 543 -153 q 491 -210 508 -194 q 469 -232 474 -226 q 464 -250 458 -242 q 469 -258 469 -258 q 551 -185 519 -218 q 599 -123 582 -153 q 623 -65 617 -93 q 629 -7 629 -37 q 624 24 629 7 q 608 54 619 40 q 578 77 596 68 q 536 86 561 86 q 476 60 496 86 q 456 -7 456 33 q 462 -35 456 -21 q 481 -60 468 -49 q 515 -79 494 -72 q 563 -85 535 -86 z "},"Ā":{"ha":1111,"x_min":29,"x_max":1086,"o":"m 29 0 l 440 0 l 440 63 q 369 74 394 63 q 331 110 343 85 q 317 178 319 136 q 315 285 315 221 l 315 463 l 800 463 l 800 285 q 798 178 800 221 q 784 110 796 136 q 747 74 772 85 q 675 63 721 63 l 675 0 l 1086 0 l 1086 63 l 1072 63 q 1008 74 1031 63 q 975 110 986 85 q 962 178 964 136 q 960 285 960 221 l 960 676 q 933 828 960 761 q 856 943 907 896 q 731 1016 804 990 q 564 1042 657 1042 q 260 944 365 1042 q 156 676 156 846 l 156 285 q 153 178 156 221 q 140 110 151 136 q 107 74 129 85 q 43 63 85 63 l 29 58 l 29 0 m 315 719 q 337 835 315 789 q 393 910 358 882 q 471 949 428 938 q 557 960 514 961 q 644 950 600 961 q 722 911 688 939 q 778 836 757 883 q 800 719 800 789 l 800 526 l 315 526 l 315 719 m 382 1281 l 382 1176 l 733 1176 l 733 1281 l 382 1281 z "},"Ć":{"ha":1001,"x_min":39,"x_max":961,"o":"m 942 190 q 803 122 875 146 q 658 99 732 99 q 474 132 557 99 q 333 226 392 165 q 244 369 275 286 q 213 554 213 453 q 238 717 213 642 q 312 848 264 793 q 429 934 360 903 q 586 965 499 965 q 671 959 624 965 q 760 938 718 953 q 831 900 801 924 q 860 842 860 876 l 858 724 l 925 724 q 932 783 928 750 q 941 851 936 817 q 951 919 946 886 q 961 979 956 953 q 768 1030 865 1013 q 583 1047 671 1047 q 374 1012 472 1047 q 201 909 275 976 q 83 744 126 842 q 39 524 39 647 q 84 299 39 397 q 207 135 129 201 q 389 34 285 68 q 611 0 493 0 q 687 6 644 0 q 773 24 729 13 q 859 50 817 35 q 935 85 901 65 l 942 190 m 743 1385 l 468 1189 l 490 1146 q 817 1261 808 1253 q 743 1385 821 1264 z "},"Ē":{"ha":883,"x_min":19,"x_max":840,"o":"m 839 76 l 546 76 q 460 88 503 76 q 383 127 417 99 q 327 201 349 156 q 306 317 306 247 l 306 526 l 685 526 l 685 590 l 306 590 l 306 744 q 307 842 306 801 q 317 908 308 882 q 345 947 326 933 q 397 965 364 961 l 840 965 l 840 1042 l 19 1042 l 19 983 l 33 979 q 97 968 75 979 q 131 931 119 957 q 144 863 142 906 q 146 757 146 821 l 146 361 q 249 96 146 193 q 546 -3 351 -1 l 839 -3 l 839 76 m 338 1283 l 338 1179 l 689 1179 l 689 1283 l 338 1283 z "},"Č":{"ha":1001,"x_min":39,"x_max":961,"o":"m 942 190 q 803 122 875 146 q 658 99 732 99 q 474 132 557 99 q 333 226 392 165 q 244 369 275 286 q 213 554 213 453 q 238 717 213 642 q 312 848 264 793 q 429 934 360 903 q 586 965 499 965 q 671 959 624 965 q 760 938 718 953 q 831 900 801 924 q 860 842 860 876 l 858 724 l 925 724 q 932 783 928 750 q 941 851 936 817 q 951 919 946 886 q 961 979 956 953 q 768 1030 865 1013 q 583 1047 671 1047 q 374 1012 472 1047 q 201 909 275 976 q 83 744 126 842 q 39 524 39 647 q 84 299 39 397 q 207 135 129 201 q 389 34 285 68 q 611 0 493 0 q 687 6 644 0 q 773 24 729 13 q 859 50 817 35 q 935 85 901 65 l 942 190 m 769 1346 l 760 1369 l 568 1250 l 375 1367 l 365 1343 l 565 1092 l 769 1346 z "},"Ź":{"ha":1039,"x_min":38,"x_max":982,"o":"m 72 835 l 135 835 q 135 892 135 868 q 144 933 136 917 q 168 956 151 949 q 218 963 185 963 l 761 964 q 671 849 722 915 q 561 709 619 783 q 441 556 503 635 q 320 401 379 476 q 210 260 261 326 q 119 144 158 193 q 59 69 81 96 q 40 44 38 42 l 56 0 q 410 1 264 0 q 653 1 556 1 q 810 1 751 1 q 900 1 868 1 q 946 1 932 1 q 972 1 961 1 l 972 210 l 910 210 q 909 152 910 176 q 901 112 908 128 q 878 88 894 96 q 828 81 861 81 l 283 81 q 418 255 346 161 q 563 443 490 349 q 704 628 635 538 q 831 790 774 718 q 927 913 888 863 q 982 978 967 963 l 982 1042 l 72 1043 l 72 835 m 713 1385 l 438 1189 l 460 1146 q 786 1261 778 1253 q 713 1385 790 1264 z "},"Ė":{"ha":883,"x_min":19,"x_max":840,"o":"m 839 76 l 546 76 q 460 88 503 76 q 383 127 417 99 q 327 201 349 156 q 306 317 306 247 l 306 526 l 685 526 l 685 590 l 306 590 l 306 744 q 307 842 306 801 q 317 908 308 882 q 345 947 326 933 q 397 965 364 961 l 840 965 l 840 1042 l 19 1042 l 19 983 l 33 979 q 97 968 75 979 q 131 931 119 957 q 144 863 142 906 q 146 757 146 821 l 146 361 q 249 96 146 193 q 546 -3 351 -1 l 839 -3 l 839 76 m 521 1321 q 458 1297 476 1321 q 438 1240 439 1272 q 458 1185 439 1208 q 521 1161 476 1161 q 581 1185 563 1161 q 601 1240 599 1208 q 581 1297 599 1272 q 521 1321 563 1321 z "},"Ģ":{"ha":1049,"x_min":35,"x_max":1010,"o":"m 599 -215 l 599 -278 l 1010 -278 l 1010 -215 l 996 -215 q 933 -204 956 -215 q 899 -168 910 -193 q 885 -102 888 -143 q 885 0 883 -61 l 885 263 q 887 365 885 326 q 900 426 889 404 q 937 455 911 447 q 1008 463 963 463 l 1008 525 l 597 525 l 597 463 q 669 462 643 463 q 708 448 696 461 q 724 401 721 435 q 725 300 726 367 l 725 147 q 631 109 679 119 q 524 99 582 99 q 398 127 454 99 q 302 210 342 156 q 240 342 263 264 q 218 518 218 419 q 303 840 218 726 q 532 953 388 953 q 712 893 638 953 q 825 696 786 833 l 867 696 q 851 806 854 753 q 846 901 847 860 q 844 966 844 942 q 835 990 843 990 q 761 999 801 990 q 678 1017 721 1007 q 593 1036 636 1028 q 511 1044 550 1044 q 320 1006 407 1044 q 169 897 233 967 q 70 728 106 826 q 35 513 35 631 q 68 297 35 393 q 163 134 101 201 q 310 30 224 67 q 503 -7 396 -7 q 725 67 631 -7 l 725 0 q 722 -102 725 -61 q 707 -168 719 -143 q 669 -204 694 -193 q 599 -215 644 -215 m 483 -237 q 476 -282 488 -258 q 447 -326 464 -306 q 412 -363 429 -347 q 390 -385 394 -379 q 385 -403 379 -394 q 390 -411 390 -411 q 472 -338 440 -371 q 520 -276 503 -306 q 544 -218 538 -246 q 550 -160 550 -190 q 545 -129 550 -146 q 528 -99 540 -112 q 499 -76 517 -85 q 457 -67 482 -67 q 397 -93 417 -67 q 376 -160 376 -119 q 383 -187 376 -174 q 402 -213 389 -201 q 435 -232 415 -225 q 483 -237 456 -239 z "},"Ķ":{"ha":1054,"x_min":40,"x_max":1017,"o":"m 731 276 l 731 251 q 728 150 731 188 q 715 93 726 113 q 677 68 703 74 q 606 63 651 63 l 606 0 l 1017 0 l 1017 63 l 1003 63 q 943 69 965 63 q 909 93 921 75 q 894 142 897 111 q 890 222 890 172 q 847 408 890 331 q 721 522 804 485 q 843 630 800 558 q 889 803 886 701 q 892 893 889 858 q 906 947 894 928 q 939 973 917 967 q 1001 979 961 979 l 1015 979 l 1015 1042 l 604 1042 l 604 979 q 676 974 650 979 q 713 949 701 968 q 727 892 725 929 q 729 790 729 854 l 729 769 q 714 673 729 711 q 673 611 699 635 q 613 577 647 588 q 543 564 579 567 q 511 564 536 564 q 453 564 486 564 q 386 564 421 564 q 326 565 351 564 l 326 757 q 328 863 326 821 q 342 931 331 906 q 380 968 354 957 q 451 979 406 979 l 451 1042 l 40 1042 l 40 979 l 54 979 q 118 968 96 979 q 151 931 140 957 q 165 863 163 906 q 167 757 167 821 l 167 285 q 165 178 167 221 q 151 110 163 136 q 113 74 139 85 q 42 63 88 63 l 42 0 l 453 0 l 453 63 l 439 63 q 375 74 397 63 q 342 110 353 85 q 328 178 331 136 q 326 285 326 221 l 326 479 q 396 483 360 482 q 463 483 432 483 q 515 482 493 482 q 543 482 538 482 q 613 469 579 479 q 673 435 647 458 q 715 373 699 411 q 731 276 731 335 m 557 -231 q 549 -275 561 -251 q 520 -319 538 -299 q 485 -356 503 -340 q 464 -378 468 -372 q 458 -396 453 -387 q 464 -404 464 -404 q 545 -331 514 -364 q 594 -269 576 -299 q 617 -211 611 -239 q 624 -153 624 -183 q 619 -122 624 -139 q 602 -92 614 -106 q 573 -69 590 -78 q 531 -60 556 -60 q 470 -86 490 -60 q 450 -153 450 -112 q 456 -181 450 -167 q 476 -206 463 -194 q 509 -225 489 -218 q 557 -231 529 -232 z "},"Ī":{"ha":478,"x_min":40,"x_max":453,"o":"m 326 757 q 328 863 326 821 q 342 931 331 906 q 380 968 354 957 q 451 979 406 979 l 451 1042 l 40 1042 l 40 979 l 54 979 q 118 968 96 979 q 151 931 140 957 q 165 863 163 906 q 167 757 167 821 l 167 285 q 165 178 167 221 q 151 110 163 136 q 113 74 139 85 q 42 63 88 63 l 42 0 l 453 0 l 453 63 l 439 63 q 375 74 397 63 q 342 110 353 85 q 328 178 331 136 q 326 285 326 221 l 326 757 m 72 1283 l 72 1179 l 424 1179 l 424 1283 l 72 1283 z "},"Ļ":{"ha":839,"x_min":19,"x_max":839,"o":"m 839 69 l 546 69 q 460 81 503 69 q 383 120 417 92 q 327 194 349 149 q 306 310 306 240 l 306 757 q 307 854 306 814 q 317 920 308 894 q 345 960 326 946 q 397 978 364 974 l 417 978 l 417 1042 l 19 1042 l 19 983 l 33 979 q 97 968 75 979 q 131 931 119 957 q 144 863 142 906 q 146 757 146 821 l 146 361 q 249 96 146 193 q 546 -3 351 -1 l 839 -3 l 839 69 m 567 -226 q 559 -271 571 -247 q 530 -315 547 -294 q 495 -352 513 -336 q 474 -374 478 -368 q 468 -392 463 -383 q 474 -400 474 -400 q 555 -327 524 -360 q 603 -265 586 -294 q 627 -207 621 -235 q 633 -149 633 -179 q 628 -118 633 -135 q 612 -87 624 -101 q 583 -65 600 -74 q 540 -56 565 -56 q 480 -82 500 -56 q 460 -149 460 -108 q 466 -176 460 -162 q 485 -202 472 -190 q 519 -221 499 -214 q 567 -226 539 -228 z "},"Ń":{"ha":1111,"x_min":29,"x_max":1086,"o":"m 315 719 q 337 835 315 789 q 393 910 358 882 q 471 949 428 938 q 557 960 514 961 q 644 950 600 961 q 722 911 688 939 q 778 836 757 883 q 800 719 800 789 l 800 285 q 798 178 800 221 q 784 110 796 136 q 747 74 772 85 q 675 63 721 63 l 675 0 l 1086 0 l 1086 63 l 1072 63 q 1008 74 1031 63 q 975 110 986 85 q 962 178 964 136 q 960 285 960 221 l 960 676 q 933 828 960 761 q 856 943 907 896 q 731 1016 804 990 q 564 1042 657 1042 q 260 944 365 1042 q 156 676 156 846 l 156 285 q 153 178 156 221 q 140 110 151 136 q 107 74 129 85 q 43 63 85 63 l 29 58 l 29 0 l 440 0 l 440 63 q 369 74 394 63 q 331 110 343 85 q 317 178 319 136 q 315 285 315 221 l 315 719 m 721 1385 l 446 1189 l 468 1146 q 794 1261 786 1253 q 721 1385 799 1264 z "},"Ņ":{"ha":1111,"x_min":29,"x_max":1086,"o":"m 315 719 q 337 835 315 789 q 393 910 358 882 q 471 949 428 938 q 557 960 514 961 q 644 950 600 961 q 722 911 688 939 q 778 836 757 883 q 800 719 800 789 l 800 285 q 798 178 800 221 q 784 110 796 136 q 747 74 772 85 q 675 63 721 63 l 675 0 l 1086 0 l 1086 63 l 1072 63 q 1008 74 1031 63 q 975 110 986 85 q 962 178 964 136 q 960 285 960 221 l 960 676 q 933 828 960 761 q 856 943 907 896 q 731 1016 804 990 q 564 1042 657 1042 q 260 944 365 1042 q 156 676 156 846 l 156 285 q 153 178 156 221 q 140 110 151 136 q 107 74 129 85 q 43 63 85 63 l 29 58 l 29 0 l 440 0 l 440 63 q 369 74 394 63 q 331 110 343 85 q 317 178 319 136 q 315 285 315 221 l 315 719 m 581 -207 q 573 -251 585 -228 q 544 -296 561 -275 q 509 -333 526 -317 q 488 -354 492 -349 q 482 -372 476 -364 q 488 -381 488 -381 q 569 -308 538 -340 q 617 -245 600 -275 q 641 -187 635 -215 q 647 -129 647 -160 q 642 -99 647 -115 q 626 -68 638 -82 q 597 -45 614 -54 q 554 -36 579 -36 q 494 -62 514 -36 q 474 -129 474 -89 q 480 -157 474 -143 q 499 -183 486 -171 q 533 -201 513 -194 q 581 -207 553 -208 z "},"Ō":{"ha":913,"x_min":57,"x_max":861,"o":"m 861 678 q 835 830 861 763 q 757 944 808 897 q 632 1017 706 992 q 465 1043 558 1043 q 162 945 267 1043 q 57 678 57 847 l 57 365 q 162 98 57 196 q 465 0 267 0 q 632 26 558 0 q 757 99 706 51 q 835 213 808 146 q 861 365 861 281 l 861 678 m 217 322 l 217 721 q 238 837 217 790 q 294 911 260 883 q 372 951 329 939 q 458 961 415 963 q 545 951 501 963 q 624 913 589 940 q 680 838 658 885 q 701 721 701 790 l 701 322 q 680 206 701 253 q 624 131 658 158 q 545 92 589 103 q 458 82 501 81 q 372 92 415 81 q 294 132 329 104 q 238 206 260 160 q 217 322 217 253 m 294 1283 l 294 1179 l 646 1179 l 646 1283 l 294 1283 z "},"Ś":{"ha":808,"x_min":43,"x_max":772,"o":"m 46 771 q 97 623 43 692 q 263 514 151 554 l 482 435 q 544 397 519 421 q 583 345 568 372 q 604 290 597 318 q 611 243 611 263 q 597 165 613 196 q 555 117 582 135 q 491 92 528 100 q 413 85 454 85 q 317 95 363 89 q 237 115 272 101 q 181 149 201 128 q 161 206 161 171 l 163 324 l 96 324 q 89 264 93 297 q 80 196 85 231 q 70 128 75 161 q 60 68 65 94 q 245 19 153 39 q 433 -1 338 -1 q 563 17 503 -1 q 669 72 624 36 q 741 157 714 107 q 771 271 768 207 q 763 348 772 308 q 732 424 754 388 q 674 493 710 461 q 589 546 639 525 l 383 632 q 311 667 346 647 q 251 709 276 686 q 209 756 225 732 q 193 803 193 779 q 208 869 192 840 q 253 917 225 897 q 319 946 282 936 q 397 958 357 956 q 479 948 435 956 q 561 926 524 940 q 624 888 599 911 q 650 833 650 865 l 647 715 l 714 714 q 722 774 718 740 q 731 842 726 807 q 741 910 736 876 q 751 969 746 943 q 563 1023 653 1007 q 367 1039 474 1039 q 130 969 213 1029 q 46 771 47 908 m 551 1385 l 276 1189 l 299 1146 q 625 1261 617 1253 q 551 1385 629 1264 z "},"Ū":{"ha":1111,"x_min":29,"x_max":1086,"o":"m 315 322 l 315 757 q 317 863 315 821 q 331 931 319 906 q 369 968 343 957 q 440 979 394 979 l 440 1042 l 29 1042 l 29 983 l 43 979 q 107 968 85 979 q 140 931 129 957 q 153 863 151 906 q 156 757 156 821 l 156 365 q 260 98 156 196 q 564 0 365 0 q 731 26 657 0 q 856 99 804 51 q 933 213 907 146 q 960 365 960 281 l 960 757 q 962 863 960 821 q 975 931 964 906 q 1008 968 986 957 q 1072 979 1031 979 l 1086 979 l 1086 1042 l 675 1042 l 675 979 q 747 968 721 979 q 784 931 772 957 q 798 863 796 906 q 800 757 800 821 l 800 322 q 778 206 800 253 q 722 131 757 158 q 644 92 688 103 q 557 82 600 81 q 471 92 514 81 q 393 132 428 104 q 337 206 358 160 q 315 322 315 253 m 381 1283 l 381 1179 l 732 1179 l 732 1283 l 381 1283 z "},"Ż":{"ha":1039,"x_min":38,"x_max":982,"o":"m 72 835 l 135 835 q 135 892 135 868 q 144 933 136 917 q 168 956 151 949 q 218 963 185 963 l 761 964 q 671 849 722 915 q 561 709 619 783 q 441 556 503 635 q 320 401 379 476 q 210 260 261 326 q 119 144 158 193 q 59 69 81 96 q 40 44 38 42 l 56 0 q 410 1 264 0 q 653 1 556 1 q 810 1 751 1 q 900 1 868 1 q 946 1 932 1 q 972 1 961 1 l 972 210 l 910 210 q 909 152 910 176 q 901 112 908 128 q 878 88 894 96 q 828 81 861 81 l 283 81 q 418 255 346 161 q 563 443 490 349 q 704 628 635 538 q 831 790 774 718 q 927 913 888 863 q 982 978 967 963 l 982 1042 l 72 1043 l 72 835 m 513 1322 q 449 1298 468 1322 q 429 1242 431 1274 q 449 1186 431 1210 q 513 1163 468 1163 q 572 1186 554 1163 q 593 1242 590 1210 q 572 1298 590 1274 q 513 1322 554 1322 z "},"ā":{"ha":793,"x_min":35,"x_max":743,"o":"m 743 4 q 743 193 743 126 q 743 293 743 261 q 743 335 743 326 q 743 346 743 343 q 719 490 740 426 q 656 599 699 554 q 545 669 613 644 q 382 693 478 693 q 226 669 290 693 q 121 599 163 644 q 58 490 79 554 q 35 346 38 426 q 58 201 38 265 q 121 92 79 138 q 226 24 163 47 q 382 0 290 0 q 440 6 413 0 q 490 28 467 13 q 537 72 514 44 q 583 143 560 100 l 582 4 l 582 0 l 743 0 l 743 4 m 583 368 q 530 154 583 229 q 389 82 476 79 q 310 92 346 81 q 248 131 274 103 q 208 206 222 158 q 194 322 194 253 l 194 371 q 208 488 194 440 q 248 563 222 535 q 310 601 274 590 q 389 611 346 613 q 468 601 432 613 q 530 561 504 589 q 569 487 556 533 q 583 371 583 440 l 583 368 m 218 939 l 218 835 l 569 835 l 569 939 l 218 939 z "},"Ą":{"ha":1111,"x_min":29,"x_max":1086,"o":"m 29 0 l 440 0 l 440 63 q 369 74 394 63 q 331 110 343 85 q 317 178 319 136 q 315 285 315 221 l 315 463 l 800 463 l 800 285 q 798 178 800 221 q 784 110 796 136 q 747 72 772 83 q 675 60 721 61 q 630 43 657 56 q 577 8 603 31 q 533 -49 551 -15 q 514 -132 515 -83 q 528 -202 513 -171 q 572 -256 544 -233 q 638 -292 600 -279 q 719 -306 675 -306 q 793 -291 761 -306 q 847 -256 825 -276 q 878 -212 868 -235 q 889 -176 889 -190 q 865 -147 889 -147 q 845 -156 854 -147 q 822 -176 836 -165 q 788 -197 808 -187 q 732 -206 767 -206 q 658 -180 683 -206 q 633 -119 633 -154 q 648 -52 633 -82 q 686 0 663 -22 l 1086 0 l 1086 63 l 1072 63 q 1008 74 1031 63 q 975 110 986 85 q 962 178 964 136 q 960 285 960 221 l 960 676 q 933 828 960 761 q 856 943 907 896 q 731 1016 804 990 q 564 1042 657 1042 q 260 944 365 1042 q 156 676 156 846 l 156 285 q 153 178 156 221 q 140 110 151 136 q 107 74 129 85 q 43 63 85 63 l 29 58 l 29 0 m 315 719 q 337 835 315 789 q 393 910 358 882 q 471 949 428 938 q 557 960 514 961 q 644 950 600 961 q 722 911 688 939 q 778 836 757 883 q 800 719 800 789 l 800 526 l 315 526 l 315 719 z "},"Į":{"ha":478,"x_min":40,"x_max":453,"o":"m 326 757 q 328 863 326 821 q 342 931 331 906 q 380 968 354 957 q 451 979 406 979 l 451 1042 l 40 1042 l 40 979 l 54 979 q 118 968 96 979 q 151 931 140 957 q 165 863 163 906 q 167 757 167 821 l 167 285 q 165 178 167 221 q 151 110 163 136 q 113 74 139 85 q 42 63 88 63 l 42 0 l 204 0 q 161 -23 183 -8 q 119 -59 139 -37 q 87 -111 100 -81 q 72 -182 74 -142 q 87 -252 71 -221 q 131 -306 103 -283 q 196 -342 158 -329 q 278 -356 233 -356 q 351 -341 319 -356 q 405 -306 383 -326 q 437 -262 426 -285 q 447 -226 447 -240 q 424 -197 447 -197 q 403 -206 413 -197 q 381 -226 394 -215 q 346 -247 367 -237 q 290 -256 325 -256 q 217 -230 242 -256 q 192 -169 192 -204 q 232 -61 192 -103 q 328 0 272 -19 l 453 0 l 453 63 l 439 63 q 375 74 397 63 q 342 110 353 85 q 328 178 331 136 q 326 285 326 221 l 326 757 z "},"Ę":{"ha":883,"x_min":19,"x_max":840,"o":"m 839 76 l 546 76 q 460 88 503 76 q 383 127 417 99 q 327 201 349 156 q 306 317 306 247 l 306 526 l 685 526 l 685 590 l 306 590 l 306 744 q 307 842 306 801 q 317 908 308 882 q 345 947 326 933 q 397 965 364 961 l 840 965 l 840 1042 l 19 1042 l 19 983 l 33 979 q 97 968 75 979 q 131 931 119 957 q 144 863 142 906 q 146 757 146 821 l 146 361 q 172 211 146 278 q 244 97 199 144 q 349 24 289 50 q 478 -3 410 -1 q 438 -27 458 -12 q 399 -63 417 -42 q 371 -113 382 -85 q 358 -179 360 -142 q 373 -249 357 -218 q 417 -303 389 -281 q 482 -340 444 -326 q 564 -353 519 -353 q 638 -338 606 -353 q 691 -303 669 -324 q 723 -260 713 -282 q 733 -224 733 -237 q 710 -194 733 -194 q 690 -203 699 -194 q 667 -224 681 -212 q 632 -244 653 -235 q 576 -253 611 -253 q 503 -227 528 -253 q 478 -167 478 -201 q 514 -64 478 -104 q 600 -3 550 -24 l 839 -3 l 839 76 z "},"Ų":{"ha":1111,"x_min":29,"x_max":1086,"o":"m 315 322 l 315 757 q 317 863 315 821 q 331 931 319 906 q 369 968 343 957 q 440 979 394 979 l 440 1042 l 29 1042 l 29 983 l 43 979 q 107 968 85 979 q 140 931 129 957 q 153 863 151 906 q 156 757 156 821 l 156 365 q 256 103 156 200 q 544 0 356 6 q 486 -60 513 -22 q 458 -157 460 -99 q 473 -227 457 -196 q 517 -281 489 -258 q 582 -317 544 -304 q 664 -331 619 -331 q 738 -316 706 -331 q 791 -281 769 -301 q 823 -237 813 -260 q 833 -201 833 -215 q 810 -172 833 -172 q 790 -181 799 -172 q 767 -201 781 -190 q 732 -222 753 -212 q 676 -231 711 -231 q 603 -205 628 -231 q 578 -144 578 -179 q 608 -49 578 -87 q 683 13 639 -10 q 888 133 817 42 q 960 365 960 225 l 960 757 q 962 863 960 821 q 975 931 964 906 q 1008 968 986 957 q 1072 979 1031 979 l 1086 979 l 1086 1042 l 675 1042 l 675 979 q 747 968 721 979 q 784 931 772 957 q 798 863 796 906 q 800 757 800 821 l 800 322 q 778 206 800 253 q 722 131 757 158 q 644 92 688 103 q 557 82 600 81 q 471 92 514 81 q 393 132 428 104 q 337 206 358 160 q 315 322 315 253 z "},"ą":{"ha":793,"x_min":35,"x_max":808,"o":"m 743 346 q 719 490 740 426 q 656 599 699 554 q 545 669 613 644 q 382 693 478 693 q 226 669 290 693 q 121 599 163 644 q 58 490 79 554 q 35 346 38 426 q 58 201 38 265 q 121 92 79 138 q 226 24 163 47 q 382 0 290 0 q 440 6 413 0 q 490 28 467 13 q 537 72 514 44 q 583 143 560 100 l 583 6 q 538 -13 564 0 q 490 -49 513 -26 q 451 -105 467 -72 q 433 -182 435 -137 q 448 -252 432 -221 q 492 -306 464 -283 q 557 -342 519 -329 q 639 -356 594 -356 q 713 -341 681 -356 q 766 -306 744 -326 q 798 -262 788 -285 q 808 -226 808 -240 q 785 -197 808 -197 q 765 -206 774 -197 q 742 -226 756 -215 q 707 -247 728 -237 q 651 -256 686 -256 q 578 -230 603 -256 q 553 -169 553 -204 q 593 -61 553 -103 q 689 0 633 -19 l 743 0 l 743 346 m 583 368 q 530 154 583 229 q 389 82 476 79 q 310 92 346 81 q 248 131 274 103 q 208 206 222 158 q 194 322 194 253 l 194 371 q 208 488 194 440 q 248 563 222 535 q 310 601 274 590 q 389 611 346 613 q 468 601 432 613 q 530 561 504 589 q 569 487 556 533 q 583 371 583 440 l 583 368 z "},"į":{"ha":478,"x_min":40,"x_max":515,"o":"m 326 410 q 328 516 326 474 q 342 584 331 558 q 380 621 354 610 q 451 632 406 632 l 451 694 l 40 694 l 40 632 l 54 632 q 118 621 96 632 q 151 584 140 610 q 165 516 163 558 q 167 410 167 474 l 167 285 q 165 178 167 221 q 151 110 163 136 q 113 74 139 85 q 42 63 88 63 l 42 0 l 239 0 q 172 -60 203 -21 q 140 -165 142 -100 q 155 -235 139 -204 q 199 -290 171 -267 q 264 -326 226 -312 q 346 -339 301 -339 q 419 -324 388 -339 q 473 -289 451 -310 q 505 -246 494 -268 q 515 -210 515 -224 q 492 -181 515 -181 q 472 -190 481 -181 q 449 -210 463 -199 q 414 -230 435 -221 q 358 -239 393 -239 q 285 -213 310 -239 q 260 -153 260 -187 q 288 -61 260 -99 q 358 0 317 -24 l 453 0 l 453 63 l 439 63 q 375 74 397 63 q 342 110 353 85 q 328 178 331 136 q 326 285 326 221 l 326 410 m 140 936 q 170 863 140 893 q 243 832 200 832 q 317 863 286 832 q 347 936 347 893 q 317 1010 347 979 q 243 1040 286 1040 q 170 1010 200 1040 q 140 936 140 979 z "},"ć":{"ha":713,"x_min":39,"x_max":685,"o":"m 394 594 q 463 588 435 594 q 511 565 490 581 q 549 526 532 550 q 585 471 565 503 q 644 517 624 504 q 673 534 664 531 q 681 537 682 538 q 678 542 681 536 q 622 611 663 574 q 504 674 582 649 q 319 679 404 697 q 172 613 235 661 q 74 492 110 565 q 39 329 39 418 q 64 190 39 254 q 135 81 89 126 q 243 9 181 35 q 381 -15 306 -17 q 491 -8 446 -14 q 569 8 536 -1 q 629 30 603 18 q 685 54 656 42 l 682 99 q 482 70 571 61 q 330 115 393 79 q 230 201 267 150 q 188 299 193 251 q 192 431 178 376 q 238 519 207 485 q 309 571 268 553 q 394 594 350 589 m 524 1040 l 249 844 l 271 801 q 597 917 589 908 q 524 1040 601 919 z "},"ę":{"ha":747,"x_min":49,"x_max":721,"o":"m 564 97 q 425 74 476 74 q 321 96 363 74 q 253 151 279 118 q 216 225 228 185 q 200 303 204 265 l 717 303 q 717 324 717 311 q 718 344 718 338 q 697 474 721 413 q 629 583 674 536 q 522 656 585 629 q 383 685 460 683 q 250 654 311 682 q 144 580 189 626 q 74 472 99 533 q 49 342 49 411 q 74 214 51 272 q 137 112 97 156 q 230 40 176 68 q 347 4 283 13 q 294 -55 317 -18 q 269 -147 271 -92 q 284 -217 268 -186 q 328 -272 300 -249 q 393 -308 356 -294 q 475 -321 431 -321 q 549 -306 517 -321 q 602 -271 581 -292 q 634 -228 624 -250 q 644 -192 644 -206 q 621 -162 644 -162 q 601 -172 610 -162 q 578 -192 592 -181 q 543 -212 564 -203 q 488 -221 522 -221 q 414 -195 439 -221 q 389 -135 389 -169 q 406 -63 389 -93 q 451 -12 424 -33 q 513 24 479 10 q 581 49 547 39 l 564 97 m 378 606 l 381 606 q 506 554 457 606 q 565 389 554 503 l 201 389 q 218 469 206 431 q 252 538 231 508 q 305 587 274 568 q 378 606 336 606 z "},"ē":{"ha":747,"x_min":49,"x_max":721,"o":"m 717 303 q 717 324 717 311 q 718 344 718 338 q 697 474 721 413 q 629 583 674 536 q 522 656 585 629 q 383 685 460 683 q 250 654 311 682 q 144 580 189 626 q 74 472 99 533 q 49 342 49 411 q 78 204 51 267 q 151 97 106 142 q 259 26 197 51 q 394 1 321 1 q 488 15 443 -1 q 575 51 532 32 l 564 97 q 425 74 476 74 q 321 96 363 74 q 253 151 279 118 q 216 225 228 185 q 200 303 204 265 l 717 303 m 378 606 l 381 606 q 506 554 457 606 q 565 389 554 503 l 201 389 q 218 469 206 431 q 252 538 231 508 q 305 587 274 568 q 378 606 336 606 m 206 932 l 206 828 l 557 828 l 557 932 l 206 932 z "},"č":{"ha":713,"x_min":39,"x_max":685,"o":"m 394 594 q 463 588 435 594 q 511 565 490 581 q 549 526 532 550 q 585 471 565 503 q 644 517 624 504 q 673 534 664 531 q 681 537 682 538 q 678 542 681 536 q 622 611 663 574 q 504 674 582 649 q 319 679 404 697 q 172 613 235 661 q 74 492 110 565 q 39 329 39 418 q 64 190 39 254 q 135 81 89 126 q 243 9 181 35 q 381 -15 306 -17 q 491 -8 446 -14 q 569 8 536 -1 q 629 30 603 18 q 685 54 656 42 l 682 99 q 482 70 571 61 q 330 115 393 79 q 230 201 267 150 q 188 299 193 251 q 192 431 178 376 q 238 519 207 485 q 309 571 268 553 q 394 594 350 589 m 583 1018 l 574 1042 l 382 922 l 189 1039 l 179 1015 l 379 764 l 583 1018 z "},"ź":{"ha":760,"x_min":40,"x_max":724,"o":"m 82 486 l 144 485 q 145 542 144 518 q 153 583 146 567 q 178 606 161 599 q 228 614 194 614 l 518 615 q 413 486 468 553 q 306 356 358 419 q 205 235 253 292 q 121 135 157 178 q 63 68 85 93 q 40 43 40 43 l 56 0 q 305 1 201 0 q 479 1 408 1 q 592 1 550 1 q 660 1 635 1 q 699 1 686 1 q 724 1 713 1 l 724 210 l 661 210 q 660 152 661 176 q 653 112 660 128 q 629 88 646 96 q 579 81 613 81 l 264 81 q 563 453 451 322 q 718 629 674 585 l 718 694 l 82 694 l 82 486 m 557 1040 l 282 844 l 304 801 q 631 917 622 908 q 557 1040 635 919 z "},"ė":{"ha":747,"x_min":49,"x_max":721,"o":"m 717 303 q 717 324 717 311 q 718 344 718 338 q 697 474 721 413 q 629 583 674 536 q 522 656 585 629 q 383 685 460 683 q 250 654 311 682 q 144 580 189 626 q 74 472 99 533 q 49 342 49 411 q 78 204 51 267 q 151 97 106 142 q 259 26 197 51 q 394 1 321 1 q 488 15 443 -1 q 575 51 532 32 l 564 97 q 425 74 476 74 q 321 96 363 74 q 253 151 279 118 q 216 225 228 185 q 200 303 204 265 l 717 303 m 378 606 l 381 606 q 506 554 457 606 q 565 389 554 503 l 201 389 q 218 469 206 431 q 252 538 231 508 q 305 587 274 568 q 378 606 336 606 m 381 981 q 317 956 336 981 q 297 900 299 932 q 317 844 299 868 q 381 821 336 821 q 440 844 422 821 q 461 900 458 868 q 440 956 458 932 q 381 981 422 981 z "},"ģ":{"ha":896,"x_min":60,"x_max":864,"o":"m 85 -276 l 485 -276 l 485 -214 q 425 -212 449 -214 q 388 -201 401 -210 q 369 -174 375 -192 q 361 -122 363 -156 q 421 -33 372 -58 q 533 0 469 -7 q 685 27 622 -3 q 787 106 747 57 q 845 217 826 154 q 864 343 864 279 q 753 597 858 504 q 456 690 649 690 q 169 597 272 690 q 60 343 67 504 q 136 124 65 210 q 335 10 207 38 q 278 -24 301 -8 q 238 -58 254 -40 q 212 -100 221 -76 q 200 -156 203 -124 q 198 -188 201 -176 q 183 -206 194 -200 q 148 -212 171 -211 q 88 -214 125 -214 l 85 -214 l 85 -276 m 704 368 l 704 299 q 678 192 701 235 q 622 124 656 150 q 546 88 588 99 q 463 79 504 78 q 376 89 419 78 q 297 128 332 100 q 241 203 263 156 q 219 319 219 250 l 219 368 q 241 485 219 438 q 297 560 263 532 q 376 599 332 588 q 463 608 419 610 q 549 598 506 610 q 626 558 592 586 q 683 484 661 531 q 704 368 704 438 m 454 935 q 462 979 450 956 q 491 1024 474 1003 q 526 1060 508 1044 q 547 1082 543 1076 q 553 1100 558 1092 q 547 1108 547 1108 q 466 1035 497 1068 q 417 973 435 1003 q 394 915 400 943 q 388 857 388 888 q 392 826 388 842 q 409 796 397 810 q 438 773 421 782 q 481 764 456 764 q 541 790 521 764 q 561 857 561 817 q 555 885 561 871 q 535 910 549 899 q 502 929 522 922 q 454 935 482 936 z "},"ķ":{"ha":993,"x_min":40,"x_max":957,"o":"m 654 549 q 662 599 654 582 q 685 622 669 615 q 726 630 701 629 q 783 631 750 631 l 783 693 l 524 693 q 523 565 524 607 q 504 514 522 524 q 417 478 464 503 q 325 413 369 454 l 325 757 q 328 863 325 821 q 343 931 331 906 q 381 968 356 957 q 453 979 407 979 l 453 1042 l 40 1042 l 40 979 q 106 968 82 979 q 144 931 131 957 q 163 863 158 906 q 167 757 167 821 l 167 285 q 165 178 167 221 q 151 110 163 136 q 113 74 139 85 q 42 63 88 63 l 42 0 l 453 0 l 453 63 l 439 63 q 378 72 401 63 q 344 103 356 81 q 330 161 333 125 q 326 250 326 197 q 363 338 333 300 q 432 402 393 376 q 510 441 471 428 q 578 454 550 454 q 654 439 615 454 q 725 390 693 424 q 778 306 757 357 q 799 182 799 254 q 792 14 799 82 q 767 -103 785 -54 q 719 -187 749 -151 q 647 -258 690 -224 l 668 -283 q 881 -130 804 -229 q 957 138 957 -31 q 878 389 957 289 q 654 517 799 489 q 654 533 657 525 q 654 549 651 540 m 633 -71 q 626 -115 638 -92 q 597 -160 614 -139 q 562 -197 579 -181 q 540 -218 544 -212 q 535 -236 529 -228 q 540 -244 540 -244 q 622 -172 590 -204 q 670 -109 653 -139 q 694 -51 688 -79 q 700 7 700 -24 q 695 38 700 21 q 678 68 690 54 q 649 91 667 82 q 607 100 632 100 q 547 74 567 100 q 526 7 526 47 q 533 -21 526 -7 q 552 -47 539 -35 q 585 -65 565 -58 q 633 -71 606 -72 z "},"ī":{"ha":478,"x_min":40,"x_max":453,"o":"m 326 410 q 328 516 326 474 q 342 584 331 558 q 380 621 354 610 q 451 632 406 632 l 451 694 l 40 694 l 40 632 l 54 632 q 118 621 96 632 q 151 584 140 610 q 165 516 163 558 q 167 410 167 474 l 167 285 q 165 178 167 221 q 151 110 163 136 q 113 74 139 85 q 42 63 88 63 l 42 0 l 453 0 l 453 63 l 439 63 q 375 74 397 63 q 342 110 353 85 q 328 178 331 136 q 326 285 326 221 l 326 410 m 68 938 l 68 833 l 419 833 l 419 938 l 68 938 z "},"ļ":{"ha":479,"x_min":39,"x_max":450,"o":"m 450 63 l 436 63 q 372 74 394 63 q 339 110 350 85 q 326 178 328 136 q 324 285 324 221 l 324 1043 l 164 1043 l 164 285 q 162 178 164 221 q 148 110 160 136 q 110 74 136 85 q 39 63 85 63 l 39 0 l 450 0 l 450 63 m 271 -235 q 263 -279 275 -256 q 234 -324 251 -303 q 199 -360 217 -344 q 178 -382 182 -376 q 172 -400 167 -392 q 178 -408 178 -408 q 259 -335 228 -368 q 308 -273 290 -303 q 331 -215 325 -243 q 338 -157 338 -187 q 333 -126 338 -143 q 316 -96 328 -110 q 287 -73 304 -82 q 244 -64 269 -64 q 184 -90 204 -64 q 164 -157 164 -117 q 170 -185 164 -171 q 190 -210 176 -199 q 223 -229 203 -222 q 271 -235 243 -236 z "},"ń":{"ha":1014,"x_min":35,"x_max":978,"o":"m 692 367 l 692 279 q 690 173 692 215 q 676 105 688 131 q 638 68 664 79 q 567 57 613 57 l 567 -6 l 978 -6 l 978 53 l 964 57 q 900 68 922 57 q 867 105 878 79 q 853 173 856 131 q 851 279 851 215 l 851 324 q 833 476 851 408 q 773 590 814 543 q 667 663 732 638 q 508 689 601 689 q 251 591 340 689 q 161 324 161 493 l 161 279 q 159 173 161 215 q 146 105 157 131 q 113 68 135 79 q 49 57 90 57 l 35 57 l 35 -6 l 446 -6 l 446 57 q 374 68 400 57 q 337 105 349 79 q 323 173 325 131 q 321 279 321 215 l 321 367 q 335 483 321 436 q 374 558 349 531 q 436 597 400 586 q 515 607 472 608 q 592 597 558 608 q 647 557 625 585 q 681 483 669 529 q 692 367 692 436 m 629 1043 l 354 847 l 376 804 q 703 919 694 911 q 629 1043 707 922 z "},"ņ":{"ha":1014,"x_min":35,"x_max":978,"o":"m 692 367 l 692 279 q 690 173 692 215 q 676 105 688 131 q 638 68 664 79 q 567 57 613 57 l 567 -6 l 978 -6 l 978 53 l 964 57 q 900 68 922 57 q 867 105 878 79 q 853 173 856 131 q 851 279 851 215 l 851 324 q 833 476 851 408 q 773 590 814 543 q 667 663 732 638 q 508 689 601 689 q 251 591 340 689 q 161 324 161 493 l 161 279 q 159 173 161 215 q 146 105 157 131 q 113 68 135 79 q 49 57 90 57 l 35 57 l 35 -6 l 446 -6 l 446 57 q 374 68 400 57 q 337 105 349 79 q 323 173 325 131 q 321 279 321 215 l 321 367 q 335 483 321 436 q 374 558 349 531 q 436 597 400 586 q 515 607 472 608 q 592 597 558 608 q 647 557 625 585 q 681 483 669 529 q 692 367 692 436 m 524 -237 q 516 -282 528 -258 q 487 -326 504 -306 q 452 -363 469 -347 q 431 -385 435 -379 q 425 -403 419 -394 q 431 -411 431 -411 q 512 -338 481 -371 q 560 -276 543 -306 q 584 -218 578 -246 q 590 -160 590 -190 q 585 -129 590 -146 q 569 -99 581 -112 q 540 -76 557 -85 q 497 -67 522 -67 q 437 -93 457 -67 q 417 -160 417 -119 q 423 -187 417 -174 q 442 -213 429 -201 q 476 -232 456 -225 q 524 -237 496 -239 z "},"ō":{"ha":801,"x_min":44,"x_max":753,"o":"m 406 693 q 242 664 310 693 q 131 587 174 635 q 67 476 88 539 q 44 346 46 414 q 68 214 47 276 q 132 103 89 151 q 242 28 175 56 q 406 0 310 0 q 562 28 497 0 q 668 102 626 56 q 730 212 710 149 q 753 346 750 275 q 729 476 750 414 q 667 587 708 539 q 561 664 625 635 q 406 693 497 693 m 204 322 l 204 371 q 218 487 204 440 q 258 561 232 533 q 319 601 283 589 q 399 611 356 613 q 478 601 442 613 q 540 563 514 590 q 579 488 565 535 q 593 371 593 440 l 593 322 q 579 206 593 253 q 540 131 565 158 q 478 92 514 103 q 399 82 442 81 q 319 92 356 81 q 258 132 283 104 q 218 206 232 160 q 204 322 204 253 m 233 931 l 233 826 l 585 826 l 585 931 l 233 931 z "},"ų":{"ha":1007,"x_min":29,"x_max":972,"o":"m 315 322 l 315 410 q 317 516 315 474 q 331 584 319 558 q 369 621 343 610 q 440 632 394 632 l 440 694 l 29 694 l 29 636 l 43 632 q 107 621 85 632 q 140 584 129 610 q 153 516 151 558 q 156 410 156 474 l 156 365 q 228 112 156 208 q 458 1 300 15 q 410 -56 431 -21 q 389 -143 390 -90 q 403 -213 388 -182 q 447 -267 419 -244 q 513 -303 475 -290 q 594 -317 550 -317 q 668 -302 636 -317 q 722 -267 700 -287 q 753 -224 743 -246 q 764 -187 764 -201 q 740 -158 764 -158 q 720 -167 729 -158 q 697 -187 711 -176 q 663 -208 683 -199 q 607 -217 642 -217 q 533 -191 558 -217 q 508 -131 508 -165 q 528 -52 508 -86 q 581 6 549 -18 q 779 119 713 25 q 846 365 846 214 l 846 410 q 848 516 846 474 q 861 584 850 558 q 894 621 872 610 q 958 632 917 632 l 972 632 l 972 694 l 561 694 l 561 632 q 633 621 607 632 q 670 584 658 610 q 684 516 682 558 q 686 410 686 474 l 686 322 q 674 206 686 253 q 638 131 661 158 q 580 92 614 103 q 503 82 546 81 q 425 92 460 81 q 366 132 390 104 q 328 206 342 160 q 315 322 315 253 z "},"ś":{"ha":583,"x_min":33,"x_max":551,"o":"m 261 61 q 192 74 221 61 q 144 105 164 86 q 113 146 125 124 q 93 189 101 168 l 33 189 l 57 1 q 171 -3 118 1 q 276 -10 224 -8 q 372 2 324 -10 q 460 39 421 14 q 523 103 499 64 q 547 197 547 143 q 528 280 547 246 q 477 338 508 314 q 407 380 446 363 q 329 413 368 397 q 270 437 299 425 q 219 464 242 449 q 184 497 197 479 q 171 540 171 515 q 183 581 171 564 q 215 610 196 599 q 260 628 235 622 q 313 635 286 635 q 392 624 364 636 q 433 591 419 611 q 452 547 447 571 q 465 503 457 524 l 533 503 q 529 543 529 526 q 530 576 529 560 q 531 607 531 592 q 526 644 531 624 q 475 673 499 661 q 425 692 451 685 q 368 701 399 699 q 299 704 338 704 q 203 692 249 704 q 122 655 157 679 q 65 596 86 631 q 44 518 44 561 q 64 431 44 467 q 115 372 83 396 q 185 331 146 347 q 264 300 224 314 q 322 278 294 289 q 372 252 350 267 q 406 219 393 238 q 419 175 419 200 q 407 126 419 147 q 372 91 394 106 q 322 69 350 76 q 261 61 293 61 m 474 1042 l 199 846 l 221 803 q 547 918 539 910 q 474 1042 551 921 z "},"ū":{"ha":1007,"x_min":29,"x_max":972,"o":"m 315 322 l 315 410 q 317 516 315 474 q 331 584 319 558 q 369 621 343 610 q 440 632 394 632 l 440 694 l 29 694 l 29 636 l 43 632 q 107 621 85 632 q 140 584 129 610 q 153 516 151 558 q 156 410 156 474 l 156 365 q 176 213 156 281 q 240 99 197 146 q 350 26 283 51 q 510 0 417 0 q 761 98 676 0 q 846 365 846 196 l 846 410 q 848 516 846 474 q 861 584 850 558 q 894 621 872 610 q 958 632 917 632 l 972 632 l 972 694 l 561 694 l 561 632 q 633 621 607 632 q 670 584 658 610 q 684 516 682 558 q 686 410 686 474 l 686 322 q 674 206 686 253 q 638 131 661 158 q 580 92 614 103 q 503 82 546 81 q 425 92 460 81 q 366 132 390 104 q 328 206 342 160 q 315 322 315 253 m 333 933 l 333 829 l 685 829 l 685 933 l 333 933 z "},"ż":{"ha":760,"x_min":40,"x_max":724,"o":"m 82 486 l 144 485 q 145 542 144 518 q 153 583 146 567 q 178 606 161 599 q 228 614 194 614 l 518 615 q 413 486 468 553 q 306 356 358 419 q 205 235 253 292 q 121 135 157 178 q 63 68 85 93 q 40 43 40 43 l 56 0 q 305 1 201 0 q 479 1 408 1 q 592 1 550 1 q 660 1 635 1 q 699 1 686 1 q 724 1 713 1 l 724 210 l 661 210 q 660 152 661 176 q 653 112 660 128 q 629 88 646 96 q 579 81 613 81 l 264 81 q 563 453 451 322 q 718 629 674 585 l 718 694 l 82 694 l 82 486 m 400 967 q 337 942 356 967 q 317 886 318 918 q 337 831 318 854 q 400 807 356 807 q 460 831 442 807 q 481 886 478 854 q 460 942 478 918 q 400 967 442 967 z "},"Ť":{"ha":906,"x_min":21,"x_max":885,"o":"m 732 938 q 785 935 767 938 q 810 920 803 932 q 819 883 818 908 q 822 813 819 858 l 885 813 l 885 1042 l 21 1042 l 21 811 l 83 811 l 83 854 q 92 906 85 889 q 122 931 99 924 q 188 938 144 938 q 306 938 232 938 l 374 938 l 374 285 q 372 178 374 221 q 358 110 369 136 q 320 74 346 85 q 249 63 294 63 l 249 0 l 660 0 l 660 63 l 646 63 q 582 74 604 63 q 549 110 560 85 q 535 178 538 136 q 533 285 533 221 l 533 938 l 732 938 m 660 1340 l 650 1364 l 458 1244 l 265 1361 l 256 1338 l 456 1086 l 660 1340 z "},"ť":{"ha":535,"x_min":24,"x_max":618,"o":"m 510 694 l 349 694 l 349 1043 l 189 1043 l 189 694 l 24 694 l 24 614 l 189 614 l 189 285 q 187 178 189 221 q 173 110 185 136 q 135 74 161 85 q 64 63 110 63 l 64 0 l 475 0 l 475 63 q 403 74 429 63 q 365 110 378 85 q 351 178 353 136 q 349 285 349 221 l 349 614 l 510 614 l 510 694 m 618 1042 l 496 1042 l 403 763 l 442 763 l 618 1042 z "},"Ş":{"ha":808,"x_min":43,"x_max":772,"o":"m 46 771 q 97 623 43 692 q 263 514 151 554 l 482 435 q 544 397 519 421 q 583 345 568 372 q 604 290 597 318 q 611 243 611 263 q 597 165 613 196 q 555 117 582 135 q 491 92 528 100 q 413 85 454 85 q 317 95 363 89 q 237 115 272 101 q 181 149 201 128 q 161 206 161 171 l 163 324 l 96 324 q 89 264 93 297 q 80 196 85 231 q 70 128 75 161 q 60 68 65 94 q 245 19 153 39 q 433 -1 338 -1 q 563 17 503 -1 q 669 72 624 36 q 741 157 714 107 q 771 271 768 207 q 763 348 772 308 q 732 424 754 388 q 674 493 710 461 q 589 546 639 525 l 383 632 q 311 667 346 647 q 251 709 276 686 q 209 756 225 732 q 193 803 193 779 q 208 869 192 840 q 253 917 225 897 q 319 946 282 936 q 397 958 357 956 q 479 948 435 956 q 561 926 524 940 q 624 888 599 911 q 650 833 650 865 l 647 715 l 714 714 q 722 774 718 740 q 731 842 726 807 q 741 910 736 876 q 751 969 746 943 q 563 1023 653 1007 q 367 1039 474 1039 q 130 969 213 1029 q 46 771 47 908 m 432 -239 q 424 -283 436 -260 q 395 -328 413 -307 q 360 -365 378 -349 q 339 -386 343 -381 q 333 -404 328 -396 q 339 -412 339 -412 q 420 -340 389 -372 q 469 -277 451 -307 q 492 -219 486 -247 q 499 -161 499 -192 q 494 -131 499 -147 q 477 -100 489 -114 q 448 -77 465 -86 q 406 -68 431 -68 q 345 -94 365 -68 q 325 -161 325 -121 q 331 -189 325 -175 q 351 -215 338 -203 q 384 -233 364 -226 q 432 -239 404 -240 z "},"ş":{"ha":583,"x_min":33,"x_max":547,"o":"m 261 61 q 192 74 221 61 q 144 105 164 86 q 113 146 125 124 q 93 189 101 168 l 33 189 l 57 1 q 171 -3 118 1 q 276 -10 224 -8 q 372 2 324 -10 q 460 39 421 14 q 523 103 499 64 q 547 197 547 143 q 528 280 547 246 q 477 338 508 314 q 407 380 446 363 q 329 413 368 397 q 270 437 299 425 q 219 464 242 449 q 184 497 197 479 q 171 540 171 515 q 183 581 171 564 q 215 610 196 599 q 260 628 235 622 q 313 635 286 635 q 392 624 364 636 q 433 591 419 611 q 452 547 447 571 q 465 503 457 524 l 533 503 q 529 543 529 526 q 530 576 529 560 q 531 607 531 592 q 526 644 531 624 q 475 673 499 661 q 425 692 451 685 q 368 701 399 699 q 299 704 338 704 q 203 692 249 704 q 122 655 157 679 q 65 596 86 631 q 44 518 44 561 q 64 431 44 467 q 115 372 83 396 q 185 331 146 347 q 264 300 224 314 q 322 278 294 289 q 372 252 350 267 q 406 219 393 238 q 419 175 419 200 q 407 126 419 147 q 372 91 394 106 q 322 69 350 76 q 261 61 293 61 m 321 -228 q 313 -272 325 -249 q 284 -317 301 -296 q 249 -353 267 -337 q 228 -375 232 -369 q 222 -393 217 -385 q 228 -401 228 -401 q 309 -328 278 -361 q 358 -266 340 -296 q 381 -208 375 -236 q 388 -150 388 -181 q 383 -119 388 -136 q 366 -89 378 -103 q 337 -66 354 -75 q 294 -57 319 -57 q 234 -83 254 -57 q 214 -150 214 -110 q 220 -178 214 -164 q 240 -203 226 -192 q 273 -222 253 -215 q 321 -228 293 -229 z "},"Ľ":{"ha":839,"x_min":19,"x_max":839,"o":"m 839 69 l 546 69 q 460 81 503 69 q 383 120 417 92 q 327 194 349 149 q 306 310 306 240 l 306 757 q 307 854 306 814 q 317 920 308 894 q 345 960 326 946 q 397 978 364 974 l 417 978 l 417 1042 l 19 1042 l 19 983 l 33 979 q 97 968 75 979 q 131 931 119 957 q 144 863 142 906 q 146 757 146 821 l 146 361 q 249 96 146 193 q 546 -3 351 -1 l 839 -3 l 839 69 m 711 1043 l 589 1043 l 496 764 l 535 764 l 711 1043 z "},"ľ":{"ha":479,"x_min":39,"x_max":575,"o":"m 450 63 l 436 63 q 372 74 394 63 q 339 110 350 85 q 326 178 328 136 q 324 285 324 221 l 324 1043 l 164 1043 l 164 285 q 162 178 164 221 q 148 110 160 136 q 110 74 136 85 q 39 63 85 63 l 39 0 l 450 0 l 450 63 m 575 1042 l 453 1042 l 360 763 l 399 763 l 575 1042 z "},"Ŕ":{"ha":972,"x_min":13,"x_max":942,"o":"m 424 0 l 424 63 l 410 63 q 346 74 368 63 q 313 110 324 85 q 299 178 301 136 q 297 285 297 221 l 297 443 q 382 385 335 407 q 468 353 429 363 q 548 318 517 333 q 599 284 579 303 q 627 237 618 265 q 640 163 636 208 q 632 110 638 129 q 613 80 626 90 q 576 66 599 69 q 517 63 553 63 l 517 0 l 917 0 l 917 63 l 914 63 q 853 65 876 63 q 819 75 831 68 q 803 95 807 82 q 801 129 800 108 q 792 213 801 176 q 767 276 783 249 q 725 324 750 303 q 667 363 700 344 q 865 476 794 390 q 942 696 936 563 q 832 950 935 857 q 546 1043 729 1043 q 248 950 353 1043 q 138 696 143 857 l 138 285 q 135 178 138 221 q 122 110 133 136 q 84 74 110 85 q 13 63 58 63 l 13 0 l 424 0 m 297 721 q 319 837 297 790 q 375 911 340 883 q 453 951 410 939 q 539 961 496 963 q 626 951 582 963 q 704 913 669 940 q 760 838 739 885 q 782 721 782 790 l 782 672 q 760 556 782 603 q 704 481 739 508 q 626 442 669 453 q 539 432 582 431 q 456 441 497 431 q 380 477 414 451 q 323 545 346 503 q 297 651 300 588 l 297 721 m 651 1381 l 376 1185 l 399 1142 q 725 1257 717 1249 q 651 1381 729 1260 z "},"Ĺ":{"ha":839,"x_min":19,"x_max":839,"o":"m 839 69 l 546 69 q 460 81 503 69 q 383 120 417 92 q 327 194 349 149 q 306 310 306 240 l 306 757 q 307 854 306 814 q 317 920 308 894 q 345 960 326 946 q 397 978 364 974 l 417 978 l 417 1042 l 19 1042 l 19 983 l 33 979 q 97 968 75 979 q 131 931 119 957 q 144 863 142 906 q 146 757 146 821 l 146 361 q 249 96 146 193 q 546 -3 351 -1 l 839 -3 l 839 69 m 403 1385 l 128 1189 l 150 1146 q 476 1261 468 1253 q 403 1385 481 1264 z "},"Ě":{"ha":883,"x_min":19,"x_max":840,"o":"m 839 76 l 546 76 q 460 88 503 76 q 383 127 417 99 q 327 201 349 156 q 306 317 306 247 l 306 526 l 685 526 l 685 590 l 306 590 l 306 744 q 307 842 306 801 q 317 908 308 882 q 345 947 326 933 q 397 965 364 961 l 840 965 l 840 1042 l 19 1042 l 19 983 l 33 979 q 97 968 75 979 q 131 931 119 957 q 144 863 142 906 q 146 757 146 821 l 146 361 q 249 96 146 193 q 546 -3 351 -1 l 839 -3 l 839 76 m 679 1354 l 669 1378 l 478 1258 l 285 1375 l 275 1351 l 475 1100 l 679 1354 z "},"Ď":{"ha":985,"x_min":24,"x_max":943,"o":"m 943 532 q 909 744 943 650 q 810 905 875 839 q 651 1006 746 971 q 435 1042 557 1042 l 24 1042 l 24 979 l 38 979 q 101 968 79 979 q 135 931 124 957 q 148 863 146 906 q 150 757 150 821 l 150 285 q 148 178 150 221 q 134 110 146 136 q 97 74 122 85 q 25 63 71 63 l 25 0 q 282 -1 189 -1 q 424 -1 375 -1 q 490 -1 472 -1 q 521 0 508 0 q 685 38 608 -3 q 819 151 761 79 q 910 321 876 222 q 943 532 943 419 m 392 947 q 681 836 583 947 q 779 514 779 725 q 776 410 779 465 q 760 302 774 356 q 718 201 746 249 q 642 123 690 154 q 519 81 593 92 q 339 88 446 69 q 313 157 317 110 q 310 285 310 204 l 310 815 q 325 929 310 893 q 349 944 333 940 q 392 947 365 947 m 629 1356 l 619 1379 l 428 1260 l 235 1376 l 225 1353 l 425 1101 l 629 1356 z "},"Đ":{"ha":985,"x_min":24,"x_max":943,"o":"m 46 572 l 46 468 l 150 468 l 150 285 q 148 178 150 221 q 134 110 146 136 q 97 74 122 85 q 25 63 71 63 l 25 0 q 282 -1 189 -1 q 424 -1 375 -1 q 490 -1 472 -1 q 521 0 508 0 q 685 38 608 -3 q 819 151 761 79 q 910 321 876 222 q 943 532 943 419 q 909 744 943 650 q 810 905 875 839 q 651 1006 746 971 q 435 1042 557 1042 l 24 1042 l 24 979 l 38 979 q 101 968 79 979 q 135 931 124 957 q 148 863 146 906 q 150 757 150 821 l 150 572 l 46 572 m 392 947 q 681 836 583 947 q 779 514 779 725 q 776 410 779 465 q 760 302 774 356 q 718 201 746 249 q 642 123 690 154 q 519 81 593 92 q 339 88 446 69 q 313 157 317 110 q 310 285 310 204 l 310 468 l 550 468 l 550 572 l 310 572 l 310 815 q 325 929 310 893 q 349 944 333 940 q 392 947 365 947 z "},"Ň":{"ha":1111,"x_min":29,"x_max":1086,"o":"m 315 719 q 337 835 315 789 q 393 910 358 882 q 471 949 428 938 q 557 960 514 961 q 644 950 600 961 q 722 911 688 939 q 778 836 757 883 q 800 719 800 789 l 800 285 q 798 178 800 221 q 784 110 796 136 q 747 74 772 85 q 675 63 721 63 l 675 0 l 1086 0 l 1086 63 l 1072 63 q 1008 74 1031 63 q 975 110 986 85 q 962 178 964 136 q 960 285 960 221 l 960 676 q 933 828 960 761 q 856 943 907 896 q 731 1016 804 990 q 564 1042 657 1042 q 260 944 365 1042 q 156 676 156 846 l 156 285 q 153 178 156 221 q 140 110 151 136 q 107 74 129 85 q 43 63 85 63 l 29 58 l 29 0 l 440 0 l 440 63 q 369 74 394 63 q 331 110 343 85 q 317 178 319 136 q 315 285 315 221 l 315 719 m 756 1356 l 746 1379 l 554 1260 l 361 1376 l 351 1353 l 551 1101 l 756 1356 z "},"Ő":{"ha":913,"x_min":57,"x_max":861,"o":"m 861 678 q 835 830 861 763 q 757 944 808 897 q 632 1017 706 992 q 465 1043 558 1043 q 162 945 267 1043 q 57 678 57 847 l 57 365 q 162 98 57 196 q 465 0 267 0 q 632 26 558 0 q 757 99 706 51 q 835 213 808 146 q 861 365 861 281 l 861 678 m 217 322 l 217 721 q 238 837 217 790 q 294 911 260 883 q 372 951 329 939 q 458 961 415 963 q 545 951 501 963 q 624 913 589 940 q 680 838 658 885 q 701 721 701 790 l 701 322 q 680 206 701 253 q 624 131 658 158 q 545 92 589 103 q 458 82 501 81 q 372 92 415 81 q 294 132 329 104 q 238 206 260 160 q 217 322 217 253 m 724 1386 l 601 1386 l 492 1107 l 531 1107 l 724 1386 m 536 1386 l 414 1386 l 321 1107 l 360 1107 l 536 1386 z "},"Ř":{"ha":972,"x_min":13,"x_max":942,"o":"m 424 0 l 424 63 l 410 63 q 346 74 368 63 q 313 110 324 85 q 299 178 301 136 q 297 285 297 221 l 297 443 q 382 385 335 407 q 468 353 429 363 q 548 318 517 333 q 599 284 579 303 q 627 237 618 265 q 640 163 636 208 q 632 110 638 129 q 613 80 626 90 q 576 66 599 69 q 517 63 553 63 l 517 0 l 917 0 l 917 63 l 914 63 q 853 65 876 63 q 819 75 831 68 q 803 95 807 82 q 801 129 800 108 q 792 213 801 176 q 767 276 783 249 q 725 324 750 303 q 667 363 700 344 q 865 476 794 390 q 942 696 936 563 q 832 950 935 857 q 546 1043 729 1043 q 248 950 353 1043 q 138 696 143 857 l 138 285 q 135 178 138 221 q 122 110 133 136 q 84 74 110 85 q 13 63 58 63 l 13 0 l 424 0 m 297 721 q 319 837 297 790 q 375 911 340 883 q 453 951 410 939 q 539 961 496 963 q 626 951 582 963 q 704 913 669 940 q 760 838 739 885 q 782 721 782 790 l 782 672 q 760 556 782 603 q 704 481 739 508 q 626 442 669 453 q 539 432 582 431 q 456 441 497 431 q 380 477 414 451 q 323 545 346 503 q 297 651 300 588 l 297 721 m 749 1360 l 739 1383 l 547 1264 l 354 1381 l 344 1357 l 544 1106 l 749 1360 z "},"Ů":{"ha":1111,"x_min":29,"x_max":1086,"o":"m 315 322 l 315 757 q 317 863 315 821 q 331 931 319 906 q 369 968 343 957 q 440 979 394 979 l 440 1042 l 29 1042 l 29 983 l 43 979 q 107 968 85 979 q 140 931 129 957 q 153 863 151 906 q 156 757 156 821 l 156 365 q 260 98 156 196 q 564 0 365 0 q 731 26 657 0 q 856 99 804 51 q 933 213 907 146 q 960 365 960 281 l 960 757 q 962 863 960 821 q 975 931 964 906 q 1008 968 986 957 q 1072 979 1031 979 l 1086 979 l 1086 1042 l 675 1042 l 675 979 q 747 968 721 979 q 784 931 772 957 q 798 863 796 906 q 800 757 800 821 l 800 322 q 778 206 800 253 q 722 131 757 158 q 644 92 688 103 q 557 82 600 81 q 471 92 514 81 q 393 132 428 104 q 337 206 358 160 q 315 322 315 253 m 693 1243 q 683 1296 693 1271 q 653 1340 672 1321 q 610 1369 635 1358 q 556 1381 585 1381 q 458 1341 497 1381 q 418 1243 418 1301 q 428 1190 418 1215 q 458 1147 439 1165 q 501 1117 476 1128 q 556 1106 526 1106 q 608 1116 583 1106 q 652 1145 633 1126 q 682 1189 671 1164 q 693 1243 693 1214 m 560 1167 q 503 1190 526 1167 q 481 1244 481 1213 q 503 1300 481 1276 q 560 1324 526 1324 q 615 1300 592 1324 q 638 1244 638 1276 q 615 1189 638 1211 q 560 1167 592 1167 z "},"Ű":{"ha":1111,"x_min":29,"x_max":1086,"o":"m 315 322 l 315 757 q 317 863 315 821 q 331 931 319 906 q 369 968 343 957 q 440 979 394 979 l 440 1042 l 29 1042 l 29 983 l 43 979 q 107 968 85 979 q 140 931 129 957 q 153 863 151 906 q 156 757 156 821 l 156 365 q 260 98 156 196 q 564 0 365 0 q 731 26 657 0 q 856 99 804 51 q 933 213 907 146 q 960 365 960 281 l 960 757 q 962 863 960 821 q 975 931 964 906 q 1008 968 986 957 q 1072 979 1031 979 l 1086 979 l 1086 1042 l 675 1042 l 675 979 q 747 968 721 979 q 784 931 772 957 q 798 863 796 906 q 800 757 800 821 l 800 322 q 778 206 800 253 q 722 131 757 158 q 644 92 688 103 q 557 82 600 81 q 471 92 514 81 q 393 132 428 104 q 337 206 358 160 q 315 322 315 253 m 853 1390 l 731 1390 l 621 1111 l 660 1111 l 853 1390 m 665 1390 l 543 1390 l 450 1111 l 489 1111 l 665 1390 z "}}}
